<svg id="Layer_1" data-name="Layer 1" xmlns="http://www.w3.org/2000/svg" xmlns:xlink="http://www.w3.org/1999/xlink" viewBox="0 0 350 350"><defs><style>.cls-1{fill:none;}.cls-2{clip-path:url(#clip-path);}.cls-3{fill:#0e0333;}.cls-4{opacity:0.5;}.cls-5{fill:#00becc;}.cls-6{fill:#5affff;}.cls-7{fill:#027da8;}.cls-8{fill:#faadbf;}.cls-9{fill:#fff;}.cls-10{fill:#fddee5;}.cls-11{fill:#ffc0d1;}.cls-12{fill:#f579a6;}.cls-13{fill:#c4c1cf;}.cls-14{fill:#dddce2;}.cls-15{fill:#0fa57e;}.cls-16{fill:#00e7b4;}.cls-17{fill:#11bc92;}.cls-18{fill:#b6fff0;}.cls-19{fill:#f3587d;}.cls-20{fill:#8c65f7;}.cls-21{fill:#a7a2b6;}.cls-22{fill:#02e2ac;}.cls-23{fill:#5bf1cd;}.cls-24{fill:#02e1ab;}</style><clipPath id="clip-path"><path class="cls-1" d="M174.99983,0h.00035A174.99982,174.99982,0,0,1,350,174.99982v.00035A174.99982,174.99982,0,0,1,175.00017,350h-.00035A174.99983,174.99983,0,0,1,0,175.00017v-.00035A174.99982,174.99982,0,0,1,174.99983,0Z"/></clipPath></defs><g class="cls-2"><path class="cls-3" d="M174.99983,0h.00035A174.99982,174.99982,0,0,1,350,174.99982v.00035A174.99982,174.99982,0,0,1,175.00017,350h-.00035A174.99983,174.99983,0,0,1,0,175.00017v-.00035A174.99982,174.99982,0,0,1,174.99983,0Z"/><g class="cls-4"><g id="_1421394342400" data-name=" 1421394342400"><polygon class="cls-5" points="38.602 20.019 38.602 26.566 30.604 15.293 38.602 20.019"/><polygon class="cls-6" points="46.61 15.293 38.602 26.566 38.602 20.019 46.61 15.293"/><polygon class="cls-5" points="38.602 0.504 38.602 9.05 30.604 13.776 38.602 0.504"/><polygon class="cls-6" points="46.6 13.776 38.602 9.05 38.602 0.504 46.6 13.776"/></g><polygon class="cls-7" points="38.602 9.05 38.602 18.508 30.604 13.776 38.602 9.05"/><polygon class="cls-5" points="46.6 13.776 38.602 18.508 38.602 9.05 46.6 13.776"/><g id="_1421394342400-2" data-name=" 1421394342400"><polygon class="cls-5" points="129.531 20.019 129.531 26.566 121.533 15.293 129.531 20.019"/><polygon class="cls-6" points="137.538 15.293 129.531 26.566 129.531 20.019 137.538 15.293"/><polygon class="cls-5" points="129.531 0.504 129.531 9.05 121.533 13.776 129.531 0.504"/><polygon class="cls-6" points="137.529 13.776 129.531 9.05 129.531 0.504 137.529 13.776"/></g><polygon class="cls-7" points="129.531 9.05 129.531 18.508 121.533 13.776 129.531 9.05"/><polygon class="cls-5" points="137.529 13.776 129.531 18.508 129.531 9.05 137.529 13.776"/><g id="_1421394342400-3" data-name=" 1421394342400"><polygon class="cls-5" points="220.46 20.019 220.46 26.566 212.462 15.293 220.46 20.019"/><polygon class="cls-6" points="228.467 15.293 220.46 26.566 220.46 20.019 228.467 15.293"/><polygon class="cls-5" points="220.46 0.504 220.46 9.05 212.462 13.776 220.46 0.504"/><polygon class="cls-6" points="228.458 13.776 220.46 9.05 220.46 0.504 228.458 13.776"/></g><polygon class="cls-7" points="220.46 9.05 220.46 18.508 212.462 13.776 220.46 9.05"/><polygon class="cls-5" points="228.458 13.776 220.46 18.508 220.46 9.05 228.458 13.776"/><g id="_1421394342400-4" data-name=" 1421394342400"><polygon class="cls-5" points="311.388 20.019 311.388 26.566 303.39 15.293 311.388 20.019"/><polygon class="cls-6" points="319.396 15.293 311.388 26.566 311.388 20.019 319.396 15.293"/><polygon class="cls-5" points="311.388 0.504 311.388 9.05 303.39 13.776 311.388 0.504"/><polygon class="cls-6" points="319.386 13.776 311.388 9.05 311.388 0.504 319.386 13.776"/></g><polygon class="cls-7" points="311.388 9.05 311.388 18.508 303.39 13.776 311.388 9.05"/><polygon class="cls-5" points="319.386 13.776 311.388 18.508 311.388 9.05 319.386 13.776"/><g id="_1421394342400-5" data-name=" 1421394342400"><polygon class="cls-6" points="5.619 16.275 -6.864 33.851 -6.864 23.644 5.619 16.275"/><polygon class="cls-6" points="5.604 13.911 -6.864 6.542 -6.864 -6.781 5.604 13.911"/></g><polygon class="cls-5" points="5.604 13.911 -6.864 21.287 -6.864 6.542 5.604 13.911"/><g id="_1421394342400-6" data-name=" 1421394342400"><polygon class="cls-5" points="84.064 23.644 84.064 33.851 71.595 16.275 84.064 23.644"/><polygon class="cls-6" points="96.548 16.275 84.064 33.851 84.064 23.644 96.548 16.275"/><polygon class="cls-5" points="84.064 -6.781 84.064 6.542 71.595 13.911 84.064 -6.781"/><polygon class="cls-6" points="96.533 13.911 84.064 6.542 84.064 -6.781 96.533 13.911"/></g><polygon class="cls-7" points="84.064 6.542 84.064 21.287 71.595 13.911 84.064 6.542"/><polygon class="cls-5" points="96.533 13.911 84.064 21.287 84.064 6.542 96.533 13.911"/><g id="_1421394342400-7" data-name=" 1421394342400"><polygon class="cls-5" points="174.993 23.644 174.993 33.851 162.524 16.275 174.993 23.644"/><polygon class="cls-6" points="187.476 16.275 174.993 33.851 174.993 23.644 187.476 16.275"/><polygon class="cls-5" points="174.993 -6.781 174.993 6.542 162.524 13.911 174.993 -6.781"/><polygon class="cls-6" points="187.462 13.911 174.993 6.542 174.993 -6.781 187.462 13.911"/></g><polygon class="cls-7" points="174.993 6.542 174.993 21.287 162.524 13.911 174.993 6.542"/><polygon class="cls-5" points="187.462 13.911 174.993 21.287 174.993 6.542 187.462 13.911"/><g id="_1421394342400-8" data-name=" 1421394342400"><polygon class="cls-5" points="265.921 23.644 265.921 33.851 253.452 16.275 265.921 23.644"/><polygon class="cls-6" points="278.405 16.275 265.921 33.851 265.921 23.644 278.405 16.275"/><polygon class="cls-5" points="265.921 -6.781 265.921 6.542 253.452 13.911 265.921 -6.781"/><polygon class="cls-6" points="278.39 13.911 265.921 6.542 265.921 -6.781 278.39 13.911"/></g><polygon class="cls-7" points="265.921 6.542 265.921 21.287 253.452 13.911 265.921 6.542"/><polygon class="cls-5" points="278.39 13.911 265.921 21.287 265.921 6.542 278.39 13.911"/><g id="_1421394342400-9" data-name=" 1421394342400"><polygon class="cls-5" points="356.85 23.644 356.85 33.851 344.381 16.275 356.85 23.644"/><polygon class="cls-5" points="356.85 -6.781 356.85 6.542 344.381 13.911 356.85 -6.781"/></g><polygon class="cls-7" points="356.85 6.542 356.85 21.287 344.381 13.911 356.85 6.542"/><g id="_1421394342400-10" data-name=" 1421394342400"><polygon class="cls-5" points="38.602 127.662 38.602 134.21 30.604 122.936 38.602 127.662"/><polygon class="cls-6" points="46.61 122.936 38.602 134.21 38.602 127.662 46.61 122.936"/><polygon class="cls-5" points="38.602 108.147 38.602 116.693 30.604 121.419 38.602 108.147"/><polygon class="cls-6" points="46.6 121.419 38.602 116.693 38.602 108.147 46.6 121.419"/></g><polygon class="cls-7" points="38.602 116.693 38.602 126.151 30.604 121.419 38.602 116.693"/><polygon class="cls-5" points="46.6 121.419 38.602 126.151 38.602 116.693 46.6 121.419"/><g id="_1421394342400-11" data-name=" 1421394342400"><polygon class="cls-5" points="129.531 127.662 129.531 134.21 121.533 122.936 129.531 127.662"/><polygon class="cls-6" points="137.538 122.936 129.531 134.21 129.531 127.662 137.538 122.936"/><polygon class="cls-5" points="129.531 108.147 129.531 116.693 121.533 121.419 129.531 108.147"/><polygon class="cls-6" points="137.529 121.419 129.531 116.693 129.531 108.147 137.529 121.419"/></g><polygon class="cls-7" points="129.531 116.693 129.531 126.151 121.533 121.419 129.531 116.693"/><polygon class="cls-5" points="137.529 121.419 129.531 126.151 129.531 116.693 137.529 121.419"/><g id="_1421394342400-12" data-name=" 1421394342400"><polygon class="cls-5" points="220.46 127.662 220.46 134.21 212.462 122.936 220.46 127.662"/><polygon class="cls-6" points="228.467 122.936 220.46 134.21 220.46 127.662 228.467 122.936"/><polygon class="cls-5" points="220.46 108.147 220.46 116.693 212.462 121.419 220.46 108.147"/><polygon class="cls-6" points="228.458 121.419 220.46 116.693 220.46 108.147 228.458 121.419"/></g><polygon class="cls-7" points="220.46 116.693 220.46 126.151 212.462 121.419 220.46 116.693"/><polygon class="cls-5" points="228.458 121.419 220.46 126.151 220.46 116.693 228.458 121.419"/><g id="_1421394342400-13" data-name=" 1421394342400"><polygon class="cls-5" points="311.388 127.662 311.388 134.21 303.39 122.936 311.388 127.662"/><polygon class="cls-6" points="319.396 122.936 311.388 134.21 311.388 127.662 319.396 122.936"/><polygon class="cls-5" points="311.388 108.147 311.388 116.693 303.39 121.419 311.388 108.147"/><polygon class="cls-6" points="319.386 121.419 311.388 116.693 311.388 108.147 319.386 121.419"/></g><polygon class="cls-7" points="311.388 116.693 311.388 126.151 303.39 121.419 311.388 116.693"/><polygon class="cls-5" points="319.386 121.419 311.388 126.151 311.388 116.693 319.386 121.419"/><g id="_1421394342400-14" data-name=" 1421394342400"><polygon class="cls-6" points="5.619 123.918 -6.864 141.494 -6.864 131.287 5.619 123.918"/><polygon class="cls-6" points="5.604 121.554 -6.864 114.185 -6.864 100.863 5.604 121.554"/></g><polygon class="cls-5" points="5.604 121.554 -6.864 128.93 -6.864 114.185 5.604 121.554"/><g id="_1421394342400-15" data-name=" 1421394342400"><polygon class="cls-5" points="84.064 131.287 84.064 141.494 71.595 123.918 84.064 131.287"/><polygon class="cls-6" points="96.548 123.918 84.064 141.494 84.064 131.287 96.548 123.918"/><polygon class="cls-5" points="84.064 100.863 84.064 114.185 71.595 121.554 84.064 100.863"/><polygon class="cls-6" points="96.533 121.554 84.064 114.185 84.064 100.863 96.533 121.554"/></g><polygon class="cls-7" points="84.064 114.185 84.064 128.93 71.595 121.554 84.064 114.185"/><polygon class="cls-5" points="96.533 121.554 84.064 128.93 84.064 114.185 96.533 121.554"/><g id="_1421394342400-16" data-name=" 1421394342400"><polygon class="cls-5" points="174.993 131.287 174.993 141.494 162.524 123.918 174.993 131.287"/><polygon class="cls-6" points="187.476 123.918 174.993 141.494 174.993 131.287 187.476 123.918"/><polygon class="cls-5" points="174.993 100.863 174.993 114.185 162.524 121.554 174.993 100.863"/><polygon class="cls-6" points="187.462 121.554 174.993 114.185 174.993 100.863 187.462 121.554"/></g><polygon class="cls-7" points="174.993 114.185 174.993 128.93 162.524 121.554 174.993 114.185"/><polygon class="cls-5" points="187.462 121.554 174.993 128.93 174.993 114.185 187.462 121.554"/><g id="_1421394342400-17" data-name=" 1421394342400"><polygon class="cls-5" points="265.921 131.287 265.921 141.494 253.452 123.918 265.921 131.287"/><polygon class="cls-6" points="278.405 123.918 265.921 141.494 265.921 131.287 278.405 123.918"/><polygon class="cls-5" points="265.921 100.863 265.921 114.185 253.452 121.554 265.921 100.863"/><polygon class="cls-6" points="278.39 121.554 265.921 114.185 265.921 100.863 278.39 121.554"/></g><polygon class="cls-7" points="265.921 114.185 265.921 128.93 253.452 121.554 265.921 114.185"/><polygon class="cls-5" points="278.39 121.554 265.921 128.93 265.921 114.185 278.39 121.554"/><g id="_1421394342400-18" data-name=" 1421394342400"><polygon class="cls-5" points="356.85 131.287 356.85 141.494 344.381 123.918 356.85 131.287"/><polygon class="cls-5" points="356.85 100.863 356.85 114.185 344.381 121.554 356.85 100.863"/></g><polygon class="cls-7" points="356.85 114.185 356.85 128.93 344.381 121.554 356.85 114.185"/><g id="_1421394342400-19" data-name=" 1421394342400"><polygon class="cls-5" points="38.602 235.306 38.602 241.853 30.604 230.579 38.602 235.306"/><polygon class="cls-6" points="46.61 230.579 38.602 241.853 38.602 235.306 46.61 230.579"/><polygon class="cls-5" points="38.602 215.79 38.602 224.336 30.604 229.063 38.602 215.79"/><polygon class="cls-6" points="46.6 229.063 38.602 224.336 38.602 215.79 46.6 229.063"/></g><polygon class="cls-7" points="38.602 224.336 38.602 233.794 30.604 229.063 38.602 224.336"/><polygon class="cls-5" points="46.6 229.063 38.602 233.794 38.602 224.336 46.6 229.063"/><g id="_1421394342400-20" data-name=" 1421394342400"><polygon class="cls-5" points="129.531 235.306 129.531 241.853 121.533 230.579 129.531 235.306"/><polygon class="cls-6" points="137.538 230.579 129.531 241.853 129.531 235.306 137.538 230.579"/><polygon class="cls-5" points="129.531 215.79 129.531 224.336 121.533 229.063 129.531 215.79"/><polygon class="cls-6" points="137.529 229.063 129.531 224.336 129.531 215.79 137.529 229.063"/></g><polygon class="cls-7" points="129.531 224.336 129.531 233.794 121.533 229.063 129.531 224.336"/><polygon class="cls-5" points="137.529 229.063 129.531 233.794 129.531 224.336 137.529 229.063"/><g id="_1421394342400-21" data-name=" 1421394342400"><polygon class="cls-5" points="220.46 235.306 220.46 241.853 212.462 230.579 220.46 235.306"/><polygon class="cls-6" points="228.467 230.579 220.46 241.853 220.46 235.306 228.467 230.579"/><polygon class="cls-5" points="220.46 215.79 220.46 224.336 212.462 229.063 220.46 215.79"/><polygon class="cls-6" points="228.458 229.063 220.46 224.336 220.46 215.79 228.458 229.063"/></g><polygon class="cls-7" points="220.46 224.336 220.46 233.794 212.462 229.063 220.46 224.336"/><polygon class="cls-5" points="228.458 229.063 220.46 233.794 220.46 224.336 228.458 229.063"/><g id="_1421394342400-22" data-name=" 1421394342400"><polygon class="cls-5" points="311.388 235.306 311.388 241.853 303.39 230.579 311.388 235.306"/><polygon class="cls-6" points="319.396 230.579 311.388 241.853 311.388 235.306 319.396 230.579"/><polygon class="cls-5" points="311.388 215.79 311.388 224.336 303.39 229.063 311.388 215.79"/><polygon class="cls-6" points="319.386 229.063 311.388 224.336 311.388 215.79 319.386 229.063"/></g><polygon class="cls-7" points="311.388 224.336 311.388 233.794 303.39 229.063 311.388 224.336"/><polygon class="cls-5" points="319.386 229.063 311.388 233.794 311.388 224.336 319.386 229.063"/><g id="_1421394342400-23" data-name=" 1421394342400"><polygon class="cls-6" points="5.619 231.561 -6.864 249.137 -6.864 238.93 5.619 231.561"/><polygon class="cls-6" points="5.604 229.197 -6.864 221.828 -6.864 208.506 5.604 229.197"/></g><polygon class="cls-5" points="5.604 229.197 -6.864 236.574 -6.864 221.828 5.604 229.197"/><g id="_1421394342400-24" data-name=" 1421394342400"><polygon class="cls-5" points="84.064 238.93 84.064 249.137 71.595 231.561 84.064 238.93"/><polygon class="cls-6" points="96.548 231.561 84.064 249.137 84.064 238.93 96.548 231.561"/><polygon class="cls-5" points="84.064 208.506 84.064 221.828 71.595 229.197 84.064 208.506"/><polygon class="cls-6" points="96.533 229.197 84.064 221.828 84.064 208.506 96.533 229.197"/></g><polygon class="cls-7" points="84.064 221.828 84.064 236.574 71.595 229.197 84.064 221.828"/><polygon class="cls-5" points="96.533 229.197 84.064 236.574 84.064 221.828 96.533 229.197"/><g id="_1421394342400-25" data-name=" 1421394342400"><polygon class="cls-5" points="174.993 238.93 174.993 249.137 162.524 231.561 174.993 238.93"/><polygon class="cls-6" points="187.476 231.561 174.993 249.137 174.993 238.93 187.476 231.561"/><polygon class="cls-5" points="174.993 208.506 174.993 221.828 162.524 229.197 174.993 208.506"/><polygon class="cls-6" points="187.462 229.197 174.993 221.828 174.993 208.506 187.462 229.197"/></g><polygon class="cls-7" points="174.993 221.828 174.993 236.574 162.524 229.197 174.993 221.828"/><polygon class="cls-5" points="187.462 229.197 174.993 236.574 174.993 221.828 187.462 229.197"/><g id="_1421394342400-26" data-name=" 1421394342400"><polygon class="cls-5" points="265.921 238.93 265.921 249.137 253.452 231.561 265.921 238.93"/><polygon class="cls-6" points="278.405 231.561 265.921 249.137 265.921 238.93 278.405 231.561"/><polygon class="cls-5" points="265.921 208.506 265.921 221.828 253.452 229.197 265.921 208.506"/><polygon class="cls-6" points="278.39 229.197 265.921 221.828 265.921 208.506 278.39 229.197"/></g><polygon class="cls-7" points="265.921 221.828 265.921 236.574 253.452 229.197 265.921 221.828"/><polygon class="cls-5" points="278.39 229.197 265.921 236.574 265.921 221.828 278.39 229.197"/><g id="_1421394342400-27" data-name=" 1421394342400"><polygon class="cls-5" points="356.85 238.93 356.85 249.137 344.381 231.561 356.85 238.93"/><polygon class="cls-5" points="356.85 208.506 356.85 221.828 344.381 229.197 356.85 208.506"/></g><polygon class="cls-7" points="356.85 221.828 356.85 236.574 344.381 229.197 356.85 221.828"/><g id="_1421394342400-28" data-name=" 1421394342400"><polygon class="cls-5" points="38.602 342.949 38.602 349.496 30.604 338.222 38.602 342.949"/><polygon class="cls-6" points="46.61 338.222 38.602 349.496 38.602 342.949 46.61 338.222"/><polygon class="cls-5" points="38.602 323.434 38.602 331.979 30.604 336.706 38.602 323.434"/><polygon class="cls-6" points="46.6 336.706 38.602 331.979 38.602 323.434 46.6 336.706"/></g><polygon class="cls-7" points="38.602 331.979 38.602 341.437 30.604 336.706 38.602 331.979"/><polygon class="cls-5" points="46.6 336.706 38.602 341.437 38.602 331.979 46.6 336.706"/><g id="_1421394342400-29" data-name=" 1421394342400"><polygon class="cls-5" points="129.531 342.949 129.531 349.496 121.533 338.222 129.531 342.949"/><polygon class="cls-6" points="137.538 338.222 129.531 349.496 129.531 342.949 137.538 338.222"/><polygon class="cls-5" points="129.531 323.434 129.531 331.979 121.533 336.706 129.531 323.434"/><polygon class="cls-6" points="137.529 336.706 129.531 331.979 129.531 323.434 137.529 336.706"/></g><polygon class="cls-7" points="129.531 331.979 129.531 341.437 121.533 336.706 129.531 331.979"/><polygon class="cls-5" points="137.529 336.706 129.531 341.437 129.531 331.979 137.529 336.706"/><g id="_1421394342400-30" data-name=" 1421394342400"><polygon class="cls-5" points="220.46 342.949 220.46 349.496 212.462 338.222 220.46 342.949"/><polygon class="cls-6" points="228.467 338.222 220.46 349.496 220.46 342.949 228.467 338.222"/><polygon class="cls-5" points="220.46 323.434 220.46 331.979 212.462 336.706 220.46 323.434"/><polygon class="cls-6" points="228.458 336.706 220.46 331.979 220.46 323.434 228.458 336.706"/></g><polygon class="cls-7" points="220.46 331.979 220.46 341.437 212.462 336.706 220.46 331.979"/><polygon class="cls-5" points="228.458 336.706 220.46 341.437 220.46 331.979 228.458 336.706"/><g id="_1421394342400-31" data-name=" 1421394342400"><polygon class="cls-5" points="311.388 342.949 311.388 349.496 303.39 338.222 311.388 342.949"/><polygon class="cls-6" points="319.396 338.222 311.388 349.496 311.388 342.949 319.396 338.222"/><polygon class="cls-5" points="311.388 323.434 311.388 331.979 303.39 336.706 311.388 323.434"/><polygon class="cls-6" points="319.386 336.706 311.388 331.979 311.388 323.434 319.386 336.706"/></g><polygon class="cls-7" points="311.388 331.979 311.388 341.437 303.39 336.706 311.388 331.979"/><polygon class="cls-5" points="319.386 336.706 311.388 341.437 311.388 331.979 319.386 336.706"/><g id="_1421394342400-32" data-name=" 1421394342400"><polygon class="cls-6" points="5.619 339.204 -6.864 356.781 -6.864 346.573 5.619 339.204"/><polygon class="cls-6" points="5.604 336.841 -6.864 329.472 -6.864 316.149 5.604 336.841"/></g><polygon class="cls-5" points="5.604 336.841 -6.864 344.217 -6.864 329.472 5.604 336.841"/><g id="_1421394342400-33" data-name=" 1421394342400"><polygon class="cls-5" points="84.064 346.573 84.064 356.781 71.595 339.204 84.064 346.573"/><polygon class="cls-6" points="96.548 339.204 84.064 356.781 84.064 346.573 96.548 339.204"/><polygon class="cls-5" points="84.064 316.149 84.064 329.472 71.595 336.841 84.064 316.149"/><polygon class="cls-6" points="96.533 336.841 84.064 329.472 84.064 316.149 96.533 336.841"/></g><polygon class="cls-7" points="84.064 329.472 84.064 344.217 71.595 336.841 84.064 329.472"/><polygon class="cls-5" points="96.533 336.841 84.064 344.217 84.064 329.472 96.533 336.841"/><g id="_1421394342400-34" data-name=" 1421394342400"><polygon class="cls-5" points="174.993 346.573 174.993 356.781 162.524 339.204 174.993 346.573"/><polygon class="cls-6" points="187.476 339.204 174.993 356.781 174.993 346.573 187.476 339.204"/><polygon class="cls-5" points="174.993 316.149 174.993 329.472 162.524 336.841 174.993 316.149"/><polygon class="cls-6" points="187.462 336.841 174.993 329.472 174.993 316.149 187.462 336.841"/></g><polygon class="cls-7" points="174.993 329.472 174.993 344.217 162.524 336.841 174.993 329.472"/><polygon class="cls-5" points="187.462 336.841 174.993 344.217 174.993 329.472 187.462 336.841"/><g id="_1421394342400-35" data-name=" 1421394342400"><polygon class="cls-5" points="265.921 346.573 265.921 356.781 253.452 339.204 265.921 346.573"/><polygon class="cls-6" points="278.405 339.204 265.921 356.781 265.921 346.573 278.405 339.204"/><polygon class="cls-5" points="265.921 316.149 265.921 329.472 253.452 336.841 265.921 316.149"/><polygon class="cls-6" points="278.39 336.841 265.921 329.472 265.921 316.149 278.39 336.841"/></g><polygon class="cls-7" points="265.921 329.472 265.921 344.217 253.452 336.841 265.921 329.472"/><polygon class="cls-5" points="278.39 336.841 265.921 344.217 265.921 329.472 278.39 336.841"/><g id="_1421394342400-36" data-name=" 1421394342400"><polygon class="cls-5" points="356.85 346.573 356.85 356.781 344.381 339.204 356.85 346.573"/><polygon class="cls-5" points="356.85 316.149 356.85 329.472 344.381 336.841 356.85 316.149"/></g><polygon class="cls-7" points="356.85 329.472 356.85 344.217 344.381 336.841 356.85 329.472"/><g id="_1421394342400-37" data-name=" 1421394342400"><polygon class="cls-6" points="1.141 65.472 -6.866 76.746 -6.866 70.199 1.141 65.472"/><polygon class="cls-6" points="1.131 63.956 -6.866 59.229 -6.866 50.683 1.131 63.956"/></g><polygon class="cls-5" points="1.131 63.956 -6.866 68.687 -6.866 59.229 1.131 63.956"/><g id="_1421394342400-38" data-name=" 1421394342400"><polygon class="cls-5" points="84.062 70.199 84.062 76.746 76.064 65.472 84.062 70.199"/><polygon class="cls-6" points="92.069 65.472 84.062 76.746 84.062 70.199 92.069 65.472"/><polygon class="cls-5" points="84.062 50.683 84.062 59.229 76.064 63.956 84.062 50.683"/><polygon class="cls-6" points="92.06 63.956 84.062 59.229 84.062 50.683 92.06 63.956"/></g><polygon class="cls-7" points="84.062 59.229 84.062 68.687 76.064 63.956 84.062 59.229"/><polygon class="cls-5" points="92.06 63.956 84.062 68.687 84.062 59.229 92.06 63.956"/><g id="_1421394342400-39" data-name=" 1421394342400"><polygon class="cls-5" points="174.991 70.199 174.991 76.746 166.993 65.472 174.991 70.199"/><polygon class="cls-6" points="182.998 65.472 174.991 76.746 174.991 70.199 182.998 65.472"/><polygon class="cls-5" points="174.991 50.683 174.991 59.229 166.993 63.956 174.991 50.683"/><polygon class="cls-6" points="182.989 63.956 174.991 59.229 174.991 50.683 182.989 63.956"/></g><polygon class="cls-7" points="174.991 59.229 174.991 68.687 166.993 63.956 174.991 59.229"/><polygon class="cls-5" points="182.989 63.956 174.991 68.687 174.991 59.229 182.989 63.956"/><g id="_1421394342400-40" data-name=" 1421394342400"><polygon class="cls-5" points="265.919 70.199 265.919 76.746 257.921 65.472 265.919 70.199"/><polygon class="cls-6" points="273.927 65.472 265.919 76.746 265.919 70.199 273.927 65.472"/><polygon class="cls-5" points="265.919 50.683 265.919 59.229 257.921 63.956 265.919 50.683"/><polygon class="cls-6" points="273.917 63.956 265.919 59.229 265.919 50.683 273.917 63.956"/></g><polygon class="cls-7" points="265.919 59.229 265.919 68.687 257.921 63.956 265.919 59.229"/><polygon class="cls-5" points="273.917 63.956 265.919 68.687 265.919 59.229 273.917 63.956"/><g id="_1421394342400-41" data-name=" 1421394342400"><polygon class="cls-5" points="356.848 70.199 356.848 76.746 348.85 65.472 356.848 70.199"/><polygon class="cls-5" points="356.848 50.683 356.848 59.229 348.85 63.956 356.848 50.683"/></g><polygon class="cls-7" points="356.848 59.229 356.848 68.687 348.85 63.956 356.848 59.229"/><g id="_1421394342400-42" data-name=" 1421394342400"><polygon class="cls-5" points="38.595 73.823 38.595 84.03 26.126 66.454 38.595 73.823"/><polygon class="cls-6" points="51.079 66.454 38.595 84.03 38.595 73.823 51.079 66.454"/><polygon class="cls-5" points="38.595 43.399 38.595 56.721 26.126 64.09 38.595 43.399"/><polygon class="cls-6" points="51.064 64.09 38.595 56.721 38.595 43.399 51.064 64.09"/></g><polygon class="cls-7" points="38.595 56.721 38.595 71.467 26.126 64.09 38.595 56.721"/><polygon class="cls-5" points="51.064 64.09 38.595 71.467 38.595 56.721 51.064 64.09"/><g id="_1421394342400-43" data-name=" 1421394342400"><polygon class="cls-5" points="129.524 73.823 129.524 84.03 117.055 66.454 129.524 73.823"/><polygon class="cls-6" points="142.007 66.454 129.524 84.03 129.524 73.823 142.007 66.454"/><polygon class="cls-5" points="129.524 43.399 129.524 56.721 117.055 64.09 129.524 43.399"/><polygon class="cls-6" points="141.993 64.09 129.524 56.721 129.524 43.399 141.993 64.09"/></g><polygon class="cls-7" points="129.524 56.721 129.524 71.467 117.055 64.09 129.524 56.721"/><polygon class="cls-5" points="141.993 64.09 129.524 71.467 129.524 56.721 141.993 64.09"/><g id="_1421394342400-44" data-name=" 1421394342400"><polygon class="cls-5" points="220.452 73.823 220.452 84.03 207.983 66.454 220.452 73.823"/><polygon class="cls-6" points="232.936 66.454 220.452 84.03 220.452 73.823 232.936 66.454"/><polygon class="cls-5" points="220.452 43.399 220.452 56.721 207.983 64.09 220.452 43.399"/><polygon class="cls-6" points="232.921 64.09 220.452 56.721 220.452 43.399 232.921 64.09"/></g><polygon class="cls-7" points="220.452 56.721 220.452 71.467 207.983 64.09 220.452 56.721"/><polygon class="cls-5" points="232.921 64.09 220.452 71.467 220.452 56.721 232.921 64.09"/><g id="_1421394342400-45" data-name=" 1421394342400"><polygon class="cls-5" points="311.381 73.823 311.381 84.03 298.912 66.454 311.381 73.823"/><polygon class="cls-6" points="323.864 66.454 311.381 84.03 311.381 73.823 323.864 66.454"/><polygon class="cls-5" points="311.381 43.399 311.381 56.721 298.912 64.09 311.381 43.399"/><polygon class="cls-6" points="323.85 64.09 311.381 56.721 311.381 43.399 323.85 64.09"/></g><polygon class="cls-7" points="311.381 56.721 311.381 71.467 298.912 64.09 311.381 56.721"/><polygon class="cls-5" points="323.85 64.09 311.381 71.467 311.381 56.721 323.85 64.09"/><g id="_1421394342400-46" data-name=" 1421394342400"><polygon class="cls-6" points="1.141 173.115 -6.866 184.389 -6.866 177.842 1.141 173.115"/><polygon class="cls-6" points="1.131 171.599 -6.866 166.872 -6.866 158.327 1.131 171.599"/></g><polygon class="cls-5" points="1.131 171.599 -6.866 176.33 -6.866 166.872 1.131 171.599"/><g id="_1421394342400-47" data-name=" 1421394342400"><polygon class="cls-5" points="84.062 177.842 84.062 184.389 76.064 173.115 84.062 177.842"/><polygon class="cls-6" points="92.069 173.115 84.062 184.389 84.062 177.842 92.069 173.115"/><polygon class="cls-5" points="84.062 158.327 84.062 166.872 76.064 171.599 84.062 158.327"/><polygon class="cls-6" points="92.06 171.599 84.062 166.872 84.062 158.327 92.06 171.599"/></g><polygon class="cls-7" points="84.062 166.872 84.062 176.33 76.064 171.599 84.062 166.872"/><polygon class="cls-5" points="92.06 171.599 84.062 176.33 84.062 166.872 92.06 171.599"/><g id="_1421394342400-48" data-name=" 1421394342400"><polygon class="cls-5" points="174.991 177.842 174.991 184.389 166.993 173.115 174.991 177.842"/><polygon class="cls-6" points="182.998 173.115 174.991 184.389 174.991 177.842 182.998 173.115"/><polygon class="cls-5" points="174.991 158.327 174.991 166.872 166.993 171.599 174.991 158.327"/><polygon class="cls-6" points="182.989 171.599 174.991 166.872 174.991 158.327 182.989 171.599"/></g><polygon class="cls-7" points="174.991 166.872 174.991 176.33 166.993 171.599 174.991 166.872"/><polygon class="cls-5" points="182.989 171.599 174.991 176.33 174.991 166.872 182.989 171.599"/><g id="_1421394342400-49" data-name=" 1421394342400"><polygon class="cls-5" points="265.919 177.842 265.919 184.389 257.921 173.115 265.919 177.842"/><polygon class="cls-6" points="273.927 173.115 265.919 184.389 265.919 177.842 273.927 173.115"/><polygon class="cls-5" points="265.919 158.327 265.919 166.872 257.921 171.599 265.919 158.327"/><polygon class="cls-6" points="273.917 171.599 265.919 166.872 265.919 158.327 273.917 171.599"/></g><polygon class="cls-7" points="265.919 166.872 265.919 176.33 257.921 171.599 265.919 166.872"/><polygon class="cls-5" points="273.917 171.599 265.919 176.33 265.919 166.872 273.917 171.599"/><g id="_1421394342400-50" data-name=" 1421394342400"><polygon class="cls-5" points="356.848 177.842 356.848 184.389 348.85 173.115 356.848 177.842"/><polygon class="cls-5" points="356.848 158.327 356.848 166.872 348.85 171.599 356.848 158.327"/></g><polygon class="cls-7" points="356.848 166.872 356.848 176.33 348.85 171.599 356.848 166.872"/><g id="_1421394342400-51" data-name=" 1421394342400"><polygon class="cls-5" points="38.595 181.466 38.595 191.673 26.126 174.097 38.595 181.466"/><polygon class="cls-6" points="51.079 174.097 38.595 191.673 38.595 181.466 51.079 174.097"/><polygon class="cls-5" points="38.595 151.042 38.595 164.365 26.126 171.733 38.595 151.042"/><polygon class="cls-6" points="51.064 171.733 38.595 164.365 38.595 151.042 51.064 171.733"/></g><polygon class="cls-7" points="38.595 164.365 38.595 179.11 26.126 171.733 38.595 164.365"/><polygon class="cls-5" points="51.064 171.733 38.595 179.11 38.595 164.365 51.064 171.733"/><g id="_1421394342400-52" data-name=" 1421394342400"><polygon class="cls-5" points="129.524 181.466 129.524 191.673 117.055 174.097 129.524 181.466"/><polygon class="cls-6" points="142.007 174.097 129.524 191.673 129.524 181.466 142.007 174.097"/><polygon class="cls-5" points="129.524 151.042 129.524 164.365 117.055 171.733 129.524 151.042"/><polygon class="cls-6" points="141.993 171.733 129.524 164.365 129.524 151.042 141.993 171.733"/></g><polygon class="cls-7" points="129.524 164.365 129.524 179.11 117.055 171.733 129.524 164.365"/><polygon class="cls-5" points="141.993 171.733 129.524 179.11 129.524 164.365 141.993 171.733"/><g id="_1421394342400-53" data-name=" 1421394342400"><polygon class="cls-5" points="220.452 181.466 220.452 191.673 207.983 174.097 220.452 181.466"/><polygon class="cls-6" points="232.936 174.097 220.452 191.673 220.452 181.466 232.936 174.097"/><polygon class="cls-5" points="220.452 151.042 220.452 164.365 207.983 171.733 220.452 151.042"/><polygon class="cls-6" points="232.921 171.733 220.452 164.365 220.452 151.042 232.921 171.733"/></g><polygon class="cls-7" points="220.452 164.365 220.452 179.11 207.983 171.733 220.452 164.365"/><polygon class="cls-5" points="232.921 171.733 220.452 179.11 220.452 164.365 232.921 171.733"/><g id="_1421394342400-54" data-name=" 1421394342400"><polygon class="cls-5" points="311.381 181.466 311.381 191.673 298.912 174.097 311.381 181.466"/><polygon class="cls-6" points="323.864 174.097 311.381 191.673 311.381 181.466 323.864 174.097"/><polygon class="cls-5" points="311.381 151.042 311.381 164.365 298.912 171.733 311.381 151.042"/><polygon class="cls-6" points="323.85 171.733 311.381 164.365 311.381 151.042 323.85 171.733"/></g><polygon class="cls-7" points="311.381 164.365 311.381 179.11 298.912 171.733 311.381 164.365"/><polygon class="cls-5" points="323.85 171.733 311.381 179.11 311.381 164.365 323.85 171.733"/><g id="_1421394342400-55" data-name=" 1421394342400"><polygon class="cls-6" points="1.141 280.758 -6.866 292.032 -6.866 285.485 1.141 280.758"/><polygon class="cls-6" points="1.131 279.242 -6.866 274.515 -6.866 265.97 1.131 279.242"/></g><polygon class="cls-5" points="1.131 279.242 -6.866 283.973 -6.866 274.515 1.131 279.242"/><g id="_1421394342400-56" data-name=" 1421394342400"><polygon class="cls-5" points="84.062 285.485 84.062 292.032 76.064 280.758 84.062 285.485"/><polygon class="cls-6" points="92.069 280.758 84.062 292.032 84.062 285.485 92.069 280.758"/><polygon class="cls-5" points="84.062 265.97 84.062 274.515 76.064 279.242 84.062 265.97"/><polygon class="cls-6" points="92.06 279.242 84.062 274.515 84.062 265.97 92.06 279.242"/></g><polygon class="cls-7" points="84.062 274.515 84.062 283.973 76.064 279.242 84.062 274.515"/><polygon class="cls-5" points="92.06 279.242 84.062 283.973 84.062 274.515 92.06 279.242"/><g id="_1421394342400-57" data-name=" 1421394342400"><polygon class="cls-5" points="174.991 285.485 174.991 292.032 166.993 280.758 174.991 285.485"/><polygon class="cls-6" points="182.998 280.758 174.991 292.032 174.991 285.485 182.998 280.758"/><polygon class="cls-5" points="174.991 265.97 174.991 274.515 166.993 279.242 174.991 265.97"/><polygon class="cls-6" points="182.989 279.242 174.991 274.515 174.991 265.97 182.989 279.242"/></g><polygon class="cls-7" points="174.991 274.515 174.991 283.973 166.993 279.242 174.991 274.515"/><polygon class="cls-5" points="182.989 279.242 174.991 283.973 174.991 274.515 182.989 279.242"/><g id="_1421394342400-58" data-name=" 1421394342400"><polygon class="cls-5" points="265.919 285.485 265.919 292.032 257.921 280.758 265.919 285.485"/><polygon class="cls-6" points="273.927 280.758 265.919 292.032 265.919 285.485 273.927 280.758"/><polygon class="cls-5" points="265.919 265.97 265.919 274.515 257.921 279.242 265.919 265.97"/><polygon class="cls-6" points="273.917 279.242 265.919 274.515 265.919 265.97 273.917 279.242"/></g><polygon class="cls-7" points="265.919 274.515 265.919 283.973 257.921 279.242 265.919 274.515"/><polygon class="cls-5" points="273.917 279.242 265.919 283.973 265.919 274.515 273.917 279.242"/><g id="_1421394342400-59" data-name=" 1421394342400"><polygon class="cls-5" points="356.848 285.485 356.848 292.032 348.85 280.758 356.848 285.485"/><polygon class="cls-5" points="356.848 265.97 356.848 274.515 348.85 279.242 356.848 265.97"/></g><polygon class="cls-7" points="356.848 274.515 356.848 283.973 348.85 279.242 356.848 274.515"/><g id="_1421394342400-60" data-name=" 1421394342400"><polygon class="cls-5" points="38.595 289.11 38.595 299.317 26.126 281.741 38.595 289.11"/><polygon class="cls-6" points="51.079 281.741 38.595 299.317 38.595 289.11 51.079 281.741"/><polygon class="cls-5" points="38.595 258.685 38.595 272.008 26.126 279.377 38.595 258.685"/><polygon class="cls-6" points="51.064 279.377 38.595 272.008 38.595 258.685 51.064 279.377"/></g><polygon class="cls-7" points="38.595 272.008 38.595 286.753 26.126 279.377 38.595 272.008"/><polygon class="cls-5" points="51.064 279.377 38.595 286.753 38.595 272.008 51.064 279.377"/><g id="_1421394342400-61" data-name=" 1421394342400"><polygon class="cls-5" points="129.524 289.11 129.524 299.317 117.055 281.741 129.524 289.11"/><polygon class="cls-6" points="142.007 281.741 129.524 299.317 129.524 289.11 142.007 281.741"/><polygon class="cls-5" points="129.524 258.685 129.524 272.008 117.055 279.377 129.524 258.685"/><polygon class="cls-6" points="141.993 279.377 129.524 272.008 129.524 258.685 141.993 279.377"/></g><polygon class="cls-7" points="129.524 272.008 129.524 286.753 117.055 279.377 129.524 272.008"/><polygon class="cls-5" points="141.993 279.377 129.524 286.753 129.524 272.008 141.993 279.377"/><g id="_1421394342400-62" data-name=" 1421394342400"><polygon class="cls-5" points="220.452 289.11 220.452 299.317 207.983 281.741 220.452 289.11"/><polygon class="cls-6" points="232.936 281.741 220.452 299.317 220.452 289.11 232.936 281.741"/><polygon class="cls-5" points="220.452 258.685 220.452 272.008 207.983 279.377 220.452 258.685"/><polygon class="cls-6" points="232.921 279.377 220.452 272.008 220.452 258.685 232.921 279.377"/></g><polygon class="cls-7" points="220.452 272.008 220.452 286.753 207.983 279.377 220.452 272.008"/><polygon class="cls-5" points="232.921 279.377 220.452 286.753 220.452 272.008 232.921 279.377"/><g id="_1421394342400-63" data-name=" 1421394342400"><polygon class="cls-5" points="311.381 289.11 311.381 299.317 298.912 281.741 311.381 289.11"/><polygon class="cls-6" points="323.864 281.741 311.381 299.317 311.381 289.11 323.864 281.741"/><polygon class="cls-5" points="311.381 258.685 311.381 272.008 298.912 279.377 311.381 258.685"/><polygon class="cls-6" points="323.85 279.377 311.381 272.008 311.381 258.685 323.85 279.377"/></g><polygon class="cls-7" points="311.381 272.008 311.381 286.753 298.912 279.377 311.381 272.008"/><polygon class="cls-5" points="323.85 279.377 311.381 286.753 311.381 272.008 323.85 279.377"/></g><path class="cls-8" d="M258.89156,90.03383v68.43a8.24892,8.24892,0,0,1-7.5,8.23,6.23582,6.23582,0,0,1-.76.04h-3.53a8.02805,8.02805,0,0,0,1.74-.2,8.22539,8.22539,0,0,0,6.51-8.07v-68.43a8.24534,8.24534,0,0,0-8.25-8.25h3.53a8.26234,8.26234,0,0,1,8.26,8.25Z"/><path class="cls-9" d="M255.35158,90.03383v68.43a8.22539,8.22539,0,0,1-6.51,8.07,8.02805,8.02805,0,0,1-1.74.2,8.256,8.256,0,0,1-8.25-8.27v-33.36a5,5,0,0,0-5-5H216.11153a4.61,4.61,0,0,1,0-9.22h5.06a5.445,5.445,0,0,0,0-10.89h-14.79a9.11643,9.11643,0,0,1-9.09917-8.97811,9.38914,9.38914,0,0,1,9.433-9.23191h40.3862a8.24534,8.24534,0,0,1,8.25,8.25Z"/><path class="cls-10" d="M274.996,189.64785a82.74081,82.74081,0,0,1-6.41886,32.06772q-.97868,2.36736-2.11607,4.65539c-74.63661,22.67756-138.59569-31.39761-138.59569-31.39761V172.24294c3.183-9.1433,28.94644-59.70929,86.40739-62.6983h.0176a83.10944,83.10944,0,0,1,38.11628,23.11842l.00877.00882A82.87471,82.87471,0,0,1,274.996,189.64785Z"/><path class="cls-11" d="M272.8446,208.5076a80.75678,80.75678,0,0,1-4.26749,13.208q-.97868,2.36736-2.11607,4.65539c-74.63661,22.67756-138.59569-31.39761-138.59569-31.39761v-9.928S188.91481,220.74566,272.8446,208.5076Z"/><path class="cls-9" d="M269.81162,229.61479a87.04237,87.04237,0,0,1-7.051,11.46147,86.14381,86.14381,0,0,1-5.96033,7.34758,87.7492,87.7492,0,0,1-38.5653,24.779c-.00958,0-.01916.00958-.02873.00958-.067.0191-.14348.04783-.21045.067-.44011.13389-.88974.26785-1.32986.4018-.76536.22961-1.5403.44963-2.31524.65057-.49751.13395-.995.26785-1.502.38271-.74627.19129-1.50206.36349-2.25784.52618s-1.51163.32525-2.277.46878-1.53078.27743-2.29614.40181c-.77494.12437-1.5403.23918-2.31524.354h-.00958c-.77494.10522-1.55945.20093-2.33439.27748-.708.0765-1.41593.14348-2.13347.21045-.0957.00958-.19135.00958-.28706.01916q-2.03778.1722-4.1043.2296c-.4018.01915-.80361.02867-1.20547.03825-.60274.00957-1.20548.01915-1.80821.01915a87.49388,87.49388,0,0,1-74.0691-40.83272c-.19135-.287-.37313-.56449-.54533-.85149-.354-.56443-.68881-1.12892-1.0237-1.70293-.56443-.95672-1.10019-1.93259-1.62637-2.918-.03831-.07649-.08613-.15305-.12438-.2296-.66014-1.22457-1.282-2.48744-1.88477-3.75032-.15305-.32531-.30615-.66014-.4592-.98545-.27743-.60273-.54534-1.215-.81319-1.8273a87.14928,87.14928,0,0,1-5.02277-15.6328c-.36356-1.67426-.68887-3.37718-.9472-5.08969q-.1291-.76064-.2296-1.52121a87.96426,87.96426,0,0,1-.861-12.2747q0-1.85122.08607-3.67377a84.72476,84.72476,0,0,1,.77494-8.60088,79.35323,79.35323,0,0,1,1.5403-8.14168,85.48837,85.48837,0,0,1,4.20958-13.021c.38271-.93757.7941-1.86556,1.21505-2.784a.58463.58463,0,0,1,.04783-.1148c.3444-.74627.68881-1.4829,1.05236-2.21959l.08613-.19136c.22-.44.44012-.87058.66972-1.30112v-.00957c.13389-.26785.27743-.53576.41138-.7941l1.24372-2.26741v-.00952l.53576-.91847v-.00958c.10523-.18178.21051-.354.31574-.53576l.61231-1.01412.18172-.30615c.36356-.59316.73669-1.17675,1.1194-1.76033.421-.66014.861-1.32028,1.3107-1.96132V139.999a1.45794,1.45794,0,0,0,.10523-.15305l.01915-.01915c.47836-.69839.97581-1.38719,1.4829-2.07606l.01915-.02867c.40181-.54534.80361-1.0811,1.215-1.60734l.36356-.45921c.44969-.58358.91847-1.16716,1.38726-1.73165l.54533-.66014c.34441-.41138.69839-.82277,1.05237-1.22457l.58364-.66014c.421-.47836.85144-.9472,1.29155-1.416l.26785-.29658c.53582-.574,1.08109-1.12892,1.636-1.68383l6.03688-5.549c.44969-.38265.9089-.76536,1.37768-1.12892a2.02258,2.02258,0,0,1,.22-.18178q.83236-.67444,1.69341-1.32027.55969-.41615,1.11934-.83234c.43054-.31573.86107-.63141,1.30118-.93757.82277-.58358,1.66468-1.14807,2.5066-1.703.43053-.287.861-.56443,1.30112-.83234.32531-.21045.65056-.41138.98539-.61232q2.13834-1.33461,4.36269-2.50659c.4209-.22961.84186-.44963,1.26282-.66966q3.20028-1.65038,6.55355-3.03284.60272-.2583,1.20547-.48793c2.5066-1.00454,5.08017-1.88471,7.70157-2.65007q.50225-.14357,1.00455-.287c.85149-.23918,1.703-.45926,2.564-.66971a.9714.9714,0,0,1,.23918-.0574q.73191-.18657,1.46381-.34441c.421-.0957.84192-.19135,1.27239-.27748.30616-.067.60274-.134.9089-.19136h.00957a88.22124,88.22124,0,0,1,43.54983,2.38228,89.30864,89.30864,0,0,0-16.62777.95672,77.98572,77.98572,0,0,0-27.18991,9.548c-36.585,21.20084-45.14753,44.076-46.57308,48.77346-.17221.56449-.23918.87065-.23918.87065a15.35535,15.35535,0,0,1,.25833,2.83185V201.2385s40.28738,33.179,81.56021,37.61816c26.80726,2.87973,44.25779-1.87513,53.21265-5.5681V233.279A39.63125,39.63125,0,0,0,269.81162,229.61479Z"/><path class="cls-10" d="M218.20625,273.21244c-.067.0191-.14348.04783-.21045.067-.44011.13389-.88974.26785-1.32986.4018-.76536.22961-1.5403.44963-2.31524.65057-.49751.13395-.995.26785-1.502.38271-.74627.19129-1.50206.36349-2.25784.52618s-1.51163.32525-2.277.46878-1.53078.27743-2.29614.40181c-.76536.134-1.5403.24875-2.31524.354h-.00958c-.77494.10522-1.55945.20093-2.33439.27748-.708.0765-1.41593.14348-2.13347.21045-.0957.00958-.19135.00958-.28706.01916q-2.03778.1722-4.1043.2296c-.4018.01915-.80361.02867-1.20547.03825-.60274.00957-1.20548.01915-1.80821.01915a87.49388,87.49388,0,0,1-74.0691-40.83272c-.19135-.287-.37313-.56449-.54533-.85149-.354-.56443-.68881-1.12892-1.0237-1.70293-.56443-.95672-1.10019-1.93259-1.62637-2.918-.03831-.07649-.08613-.15305-.12438-.2296-.66014-1.22457-1.282-2.48744-1.88477-3.75032-.15305-.32531-.30615-.66014-.4592-.98545-.27743-.60273-.54534-1.215-.81319-1.8273a87.14928,87.14928,0,0,1-5.02277-15.6328c-.36356-1.67426-.68887-3.37718-.9472-5.08969q-.1291-.76064-.2296-1.52121a87.96426,87.96426,0,0,1-.861-12.2747q0-1.85122.08607-3.67377a84.72476,84.72476,0,0,1,.77494-8.60088,79.35323,79.35323,0,0,1,1.5403-8.14168,85.48837,85.48837,0,0,1,4.20958-13.021c.38271-.93757.7941-1.86556,1.21505-2.784a.58463.58463,0,0,1,.04783-.1148c.3444-.74627.68881-1.4829,1.05236-2.21959l.08613-.19136c.22-.44.44012-.87058.66972-1.30112.13389-.26791.26785-.53576.41138-.80367l1.24372-2.26741v-.00952l.53576-.91847q.14348-.27267.31574-.54534l.61231-1.01412.18172-.30615c.36356-.59316.73669-1.17675,1.1194-1.76033.421-.66014.861-1.32028,1.3107-1.96132a1.55753,1.55753,0,0,0,.10523-.16263l.01915-.01915c.47836-.69839.97581-1.38719,1.4829-2.07606l.01915-.02867c.40181-.54534.80361-1.0811,1.215-1.60734l.36356-.45921c.44969-.58358.91847-1.16716,1.38726-1.73165l.54533-.66014c.34441-.41138.69839-.82277,1.05237-1.22457l.58364-.66014c.421-.47836.85144-.9472,1.29155-1.416l.26785-.29658c.53582-.574,1.08109-1.12892,1.636-1.68383l6.03688-5.549c.44969-.38265.9089-.76536,1.37768-1.12892a2.02258,2.02258,0,0,1,.22-.18178q.83236-.67444,1.69341-1.32027.55969-.41615,1.11934-.83234c.43054-.31573.86107-.63141,1.30118-.93757.82277-.58358,1.66468-1.14807,2.5066-1.703.43053-.287.861-.56443,1.30112-.83234.32531-.21045.65056-.41138.98539-.61232q2.13834-1.33461,4.36269-2.50659c.4209-.22961.84186-.44963,1.26282-.66966q3.20028-1.65038,6.55355-3.03284.60272-.2583,1.20547-.48793c2.5066-1.00454,5.08017-1.88471,7.70157-2.65007q.50225-.14357,1.00455-.287c.85149-.23918,1.703-.45926,2.564-.66971a.9714.9714,0,0,1,.23918-.0574q.73191-.18657,1.46381-.34441c.421-.0957.84192-.19135,1.27239-.27748.30616-.067.60274-.134.9089-.19136a87.79314,87.79314,0,0,0-52.54294,45.47284c-.29658.58358-.574,1.17675-.84192,1.76991h-.00958c-.31573.69844-.6314,1.4064-.928,2.11436-.25834.58359-.49752,1.17675-.72712,1.76991-.48794,1.20547-.94714,2.42052-1.3681,3.65467q-.96156,2.741-1.73166,5.55853c-.52624,1.90386-.98544,3.81729-1.3681,5.769q-.71754,3.45849-1.129,7.0127a84.69414,84.69414,0,0,0-.60267,9.1367c-.01916.44-.01916.88017-.01916,1.32028a87.6937,87.6937,0,0,0,.62183,10.45692,85.24842,85.24842,0,0,0,2.65013,13.33665q.1292.48788.287.97581c.62189,2.16219,1.33942,4.27656,2.143,6.3622.66013,1.76991,1.38725,3.50156,2.17176,5.21413h.00958l.51661,1.11934q.91847,1.95168,1.94216,3.846l.25834.48794c.75578,1.40635,1.55939,2.784,2.39179,4.133a87.69661,87.69661,0,0,0,91.80663,39.99086Z"/><path class="cls-12" d="M252.40662,132.66306a83.10944,83.10944,0,0,0-38.11628-23.11842h-.0176c-57.46095,2.989-83.22444,53.555-86.40739,62.6983v-3.16535a15.81494,15.81494,0,0,0-.25573-2.83908s5.79283-25.86933,46.80991-49.6402a77.78717,77.78717,0,0,1,27.18307-9.54886,89.69142,89.69142,0,0,1,16.629-.96109h.00883c1.1109.34388,2.18662.70536,3.23585,1.09331A61.72132,61.72132,0,0,1,252.40662,132.66306Z"/><path class="cls-12" d="M269.81152,229.61564a39.49263,39.49263,0,0,1-7.17711,3.66794v.00882c-8.94936,3.68554-26.40717,8.44673-53.21106,5.56358-41.27276-4.435-81.558-37.6137-81.558-37.6137v-6.26893S191.82443,249.04852,266.461,226.371q1.13739-2.288,2.11607-4.65539C271.30161,227.27915,269.81152,229.61564,269.81152,229.61564Z"/><path class="cls-8" d="M191.1984,248.66939a119.86138,119.86138,0,0,1-6.49818,12.22046,9.02393,9.02393,0,0,1-3.906,3.50919c-.00883,0-.02643.00882-.03525.00882a9.067,9.067,0,0,1-5.5195.67011,85.80811,85.80811,0,0,1-10.76568-2.80383,9.07735,9.07735,0,0,1-6.13665-7.33581c-.40561-2.97136-.84646-7.02725-1.10214-11.762a10.77115,10.77115,0,0,0-4.726-8.36741c-6.26893-4.23218-17.59886-12.45853-24.6437-21.00229v-4.13521c2.83025,2.29247,29.36969,23.25946,60.6086,32.98473A4.3916,4.3916,0,0,1,191.1984,248.66939Z"/><path class="cls-12" d="M195.80977,245.41589c-1.46366,3.23585-3.45633,7.49452-5.29025,10.95962a16.09682,16.09682,0,0,1-9.593,7.98828,1.00314,1.00314,0,0,0-.13228.03525,9.02393,9.02393,0,0,0,3.906-3.50919,119.86138,119.86138,0,0,0,6.49818-12.22046,4.3916,4.3916,0,0,0-2.72445-6.01325c-31.23891-9.72527-57.77835-30.69226-60.6086-32.98473V207.185s22.025,17.92509,43.87375,25.4725c10.8274,3.73844,17.36966,5.69586,21.22272,6.71862A4.37628,4.37628,0,0,1,195.80977,245.41589Z"/><path class="cls-1" d="M180.79427,264.39906c-.00882,0-.02645.00882-.03527.00882"/><path class="cls-13" d="M174.63113,259.51439a8.13138,8.13138,0,0,0,2.97135-.5643,8.81794,8.81794,0,0,1-4.68187,1.33138,8.91406,8.91406,0,1,1,0-17.82811,8.81836,8.81836,0,0,1,4.68187,1.33134,8.14573,8.14573,0,1,0-2.97135,15.72969Z"/><path class="cls-9" d="M181.83467,251.36742a8.90737,8.90737,0,0,1-4.23219,7.58267,8.147,8.147,0,1,1,0-15.16539A8.9075,8.9075,0,0,1,181.83467,251.36742Z"/><path class="cls-14" d="M162.03154,261.0309c-9.43429-3.23585-3.13888-17.03455-12.03534-23.08311-14.69806-9.99854-22.13085-20.73773-22.13085-20.73773v-3.40344c7.04484,8.54376,18.37477,16.77011,24.6437,21.00229a10.77115,10.77115,0,0,1,4.726,8.36741c.25568,4.73476.69653,8.79065,1.10214,11.762A9.00058,9.00058,0,0,0,162.03154,261.0309Z"/><path class="cls-9" d="M250.6087,165.28335a6.61517,6.61517,0,0,1-6.283-4.55492c-.06285-.18728-7.33006-21.167-29.04728-30.63161a6.61274,6.61274,0,0,1,5.28336-12.12434c27.2985,11.897,35.9761,37.55051,36.33171,38.63672a6.61758,6.61758,0,0,1-6.28476,8.67415Z"/><circle class="cls-9" cx="259.46028" cy="177.7893" r="7.05366"/><path class="cls-8" d="M119.63,87.04v68.43a8.24891,8.24891,0,0,1-7.5,8.23,6.23576,6.23576,0,0,1-.76.04h-3.53a8.02805,8.02805,0,0,0,1.74-.2,8.22539,8.22539,0,0,0,6.51-8.07V87.04a8.24536,8.24536,0,0,0-8.25-8.25h3.53a8.26234,8.26234,0,0,1,8.26,8.25Z"/><path class="cls-9" d="M116.09,87.04v68.43a8.22539,8.22539,0,0,1-6.51,8.07,8.02805,8.02805,0,0,1-1.74.2,8.256,8.256,0,0,1-8.25-8.27V122.11a5,5,0,0,0-5-5H76.85a4.61,4.61,0,1,1,0-9.22h5.06a5.445,5.445,0,0,0,0-10.89H67.12a9.11643,9.11643,0,0,1-9.09918-8.97811,9.38915,9.38915,0,0,1,9.433-9.23191H107.84a8.24536,8.24536,0,0,1,8.25,8.25Z"/><path class="cls-12" d="M127.86337,166.14609v48.77353a27.87622,27.87622,0,0,1-10.11252,21.507,27.28731,27.28731,0,0,1-3.97992,2.75535,26.63523,26.63523,0,0,1-5.73073,2.48745,28.26117,28.26117,0,0,1-8.09386,1.18632h-.02873c-.71753,0-1.4255-.0191-2.11431-.0765a28.4116,28.4116,0,0,0,5.96034-1.10982A26.71154,26.71154,0,0,0,109.504,239.182a27.90322,27.90322,0,0,0,14.04461-22.71247c.03831-.51667.04783-1.03328.04783-1.54988V166.14609a28.425,28.425,0,0,0-.45921-5.05144,27.45623,27.45623,0,0,0-2.784-8.02688c-.22961-.43053-.46879-.86107-.72712-1.282a27.42063,27.42063,0,0,0-3.53987-4.707c-.1722-.19136-.354-.37313-.53576-.55491v-.00952l-.13395-.134c-.63141-.63146-1.282-1.22462-1.97084-1.78905a28.3058,28.3058,0,0,0-9.682-5.20455c-.21045-.067-.43054-.12438-.641-.19136a29.44073,29.44073,0,0,0-5.31935-.91847c.68881-.04782,1.39678-.07649,2.11431-.07649h.02873a26.84205,26.84205,0,0,1,3.17631.18177,28.5324,28.5324,0,0,1,4.91755,1.00455,27.96672,27.96672,0,0,1,6.8405,3.14758c.41138.25833.81324.52618,1.20547.81319.31574.22008.62189.44968.928.68886a28.26971,28.26971,0,0,1,2.61182,2.28657l.0574.0574a27.18464,27.18464,0,0,1,2.4492,2.80318,27.76029,27.76029,0,0,1,5.27152,11.91115,26.33983,26.33983,0,0,1,.44006,4.2765C127.86337,165.62949,127.86337,165.88782,127.86337,166.14609Z"/><path class="cls-14" d="M123.59639,166.14609v48.77353c0,.5166-.00952,1.03321-.04783,1.54988A27.922,27.922,0,0,1,109.504,239.182a26.71154,26.71154,0,0,1-5.74031,2.48745,28.4116,28.4116,0,0,1-5.96034,1.10982c-.22008-.01915-.44968-.04788-.66971-.0574-.47836-.0574-.95672-.11486-1.43508-.19135-.421-.0574-.83234-.134-1.23414-.21051h-.00958a24.11386,24.11386,0,0,1-2.35355-.574c-.25833-.07655-.5166-.15311-.76536-.23918a27.08832,27.08832,0,0,1-2.631-.995,25.95154,25.95154,0,0,1-3.15716-1.636c0-.00958-.00958,0-.00958,0a28.50475,28.50475,0,0,1-3.81729-2.76493c-.59316-.507-1.16723-1.05237-1.71257-1.60728q-.83227-.84673-1.57855-1.75081a27.87464,27.87464,0,0,1-6.4196-17.83318V166.14609a27.8359,27.8359,0,0,1,6.4196-17.83324q.74619-.904,1.57855-1.75075a27.7084,27.7084,0,0,1,14.45606-7.82594c.4018-.07656.81318-.14354,1.23414-.21051.47836-.067.95672-.134,1.43508-.18178.22-.01915.44963-.04783.66971-.067a29.44073,29.44073,0,0,1,5.31935.91847c.21045.067.43054.12438.641.19136a28.3058,28.3058,0,0,1,9.682,5.20455c.68887.56443,1.33943,1.15759,1.97084,1.78905l.13395.134v.00952c.18178.18178.36356.36355.53576.55491a27.42063,27.42063,0,0,1,3.53987,4.707c.25833.421.49751.85149.72712,1.282a27.45623,27.45623,0,0,1,2.784,8.02688A28.425,28.425,0,0,1,123.59639,166.14609Z"/><path class="cls-9" d="M119.32946,166.14609v48.77353a28.19794,28.19794,0,0,1-.22008,3.50156A27.91067,27.91067,0,0,1,105.237,239.182a26.71017,26.71017,0,0,1-5.7403,2.48745,27.3818,27.3818,0,0,1-3.79815.86107c-.421-.0574-.83234-.134-1.23414-.21051h-.00958c-.79409-.16263-1.58818-.354-2.35355-.574-.25833-.07655-.5166-.15311-.76536-.23918a27.08832,27.08832,0,0,1-2.631-.995,30.7577,30.7577,0,0,1-3.15716-1.636c0-.00958-.00958,0-.00958,0a30.299,30.299,0,0,1-3.81729-2.76493c-.59316-.51661-1.16723-1.05237-1.71257-1.60728q-.83227-.84673-1.57855-1.75081a27.87464,27.87464,0,0,1-6.4196-17.83318V166.14609a27.8359,27.8359,0,0,1,6.4196-17.83324q.74619-.904,1.57855-1.75075a27.7084,27.7084,0,0,1,14.45606-7.82594c.4018-.07656.81318-.14354,1.23414-.21051a27.39884,27.39884,0,0,1,3.79815.87064,26.29015,26.29015,0,0,1,3.626,1.39677,27.63075,27.63075,0,0,1,8.02688,5.58726c.22961.22961.45921.46879.66966.708a24.76828,24.76828,0,0,1,2.07612,2.497v.00957a27.20282,27.20282,0,0,1,2.19086,3.47289,26.76859,26.76859,0,0,1,2.17177,5.42458,26.36342,26.36342,0,0,1,.61226,2.6023,29.46214,29.46214,0,0,1,.421,3.69292C119.31988,165.2372,119.32946,165.68689,119.32946,166.14609Z"/><path class="cls-14" d="M95.6659,229.57764a18.25427,18.25427,0,0,1-5.28029-.77163,18.03815,18.03815,0,0,1-3.76618-1.63224,18.29625,18.29625,0,0,1-9.19115-15.84907V169.73442a18.44339,18.44339,0,0,1,.28861-3.28354,18.11853,18.11853,0,0,1,5.047-9.61846,18.3002,18.3002,0,0,1,12.902-5.35094c.62545,0,1.18735.04113,1.73056.08075l.07963.00561.27478.03626c.16187.02169.32.04375.47479.071a9.20294,9.20294,0,0,1,1.0737.18281,18.25013,18.25013,0,0,1,14.612,17.87647v41.59775A18.24645,18.24645,0,0,1,99.26011,229.209l-.00075.015c-.33684.06953-.68153.11664-1.03445.16-.15552.02766-.31441.05009-.477.07177l-.25983.0344a17.90221,17.90221,0,0,1-1.80683.08748Z"/><path class="cls-15" d="M97.85214,226.62744c-.19661.03937-.40105.06293-.61341.08655a14.65318,14.65318,0,0,1-1.55715.07863h-.01574a15.70338,15.70338,0,0,1-4.55352-.66846,15.27687,15.27687,0,0,1-3.24016-1.3999,15.73522,15.73522,0,0,1-7.93527-13.67634V186.613l4.43557.00787v24.42706a15.75154,15.75154,0,0,0,7.93523,13.67634,15.29759,15.29759,0,0,0,5.54445,1.90318Z"/><path class="cls-16" d="M98.75658,154.581a8.67365,8.67365,0,0,0-.90442-.1494,16.63448,16.63448,0,0,0-2.3043.51118A15.75326,15.75326,0,0,0,84.632,167.172a16.087,16.087,0,0,0-.25951,2.839V186.613l27.03018.00784V170.01107A15.71886,15.71886,0,0,0,98.75658,154.581Z"/><path class="cls-17" d="M97.85214,154.43157a16.63888,16.63888,0,0,0-2.30429.51121A15.75327,15.75327,0,0,0,84.632,167.172a16.08608,16.08608,0,0,0-.2595,2.83906V186.613l-4.43557.00787V170.01109a16.08177,16.08177,0,0,1,.25167-2.83906,15.748,15.748,0,0,1,15.47728-12.90559h.01574c.52691,0,1.03812.03932,1.55715.07863C97.45109,154.36864,97.65553,154.39226,97.85214,154.43157Z"/><path class="cls-16" d="M94.95019,158.30088c-.00787,0-.01574.00787-.02361.01574a11.10266,11.10266,0,0,0-2.18635,1.69875,11.48987,11.48987,0,0,0-3.16149,6.02417A11.89828,11.89828,0,0,0,89.39,168.1079v10.81366a1.25832,1.25832,0,0,1-2.51664,0V168.1079a12.71873,12.71873,0,0,1,.18874-2.06836,11.54554,11.54554,0,0,1,3.16153-6.02417,11.36321,11.36321,0,0,1,4.78157-2.8548c.08655-.03149.346-.09437.346-.09437a.6711.6711,0,0,1,.72357.22018C96.30286,157.64029,95.73664,157.78184,94.95019,158.30088Z"/><path class="cls-18" d="M111.40266,186.62086v24.43493A15.71665,15.71665,0,0,1,98.75657,226.478c-.13368-.02357,0,.01574,0,.01574-.29885.05506-.59771.09437-.90443.13368a15.29759,15.29759,0,0,1-5.54445-1.90318,15.75154,15.75154,0,0,1-7.93523-13.67634V186.62086Z"/><path class="cls-18" d="M94.95019,158.30088c-.00787,0-.01574.00787-.02361.01574a11.10266,11.10266,0,0,0-2.18635,1.69875,11.48987,11.48987,0,0,0-3.16149,6.02417A11.89828,11.89828,0,0,0,89.39,168.1079v10.81366a1.25832,1.25832,0,0,1-2.51664,0V168.1079a12.71873,12.71873,0,0,1,.18874-2.06836,11.54554,11.54554,0,0,1,3.16153-6.02417,11.36321,11.36321,0,0,1,4.78157-2.8548c.08655-.03149.346-.09437.346-.09437a.6711.6711,0,0,1,.72357.22018C96.30286,157.64029,95.73664,157.78184,94.95019,158.30088Z"/><rect class="cls-19" x="86.87336" y="190.48113" width="11.45987" height="2.81246" rx="1.40623"/><rect class="cls-20" x="86.87336" y="196.37038" width="11.45987" height="2.81246" rx="1.40623"/><rect class="cls-9" x="86.87336" y="202.25962" width="11.45987" height="2.81246" rx="1.40623"/><path class="cls-21" d="M245.35791,262.22928a93.25756,93.25756,0,0,1-136.2271-20.91384,26.50648,26.50648,0,0,0,4.64012-2.13347,27.28731,27.28731,0,0,0,3.97992-2.75535A87.49388,87.49388,0,0,0,191.82,277.25934c.60273,0,1.20547-.00958,1.80821-.01915.40186-.00958.80367-.0191,1.20547-.03825q2.06652-.05738,4.1043-.2296c.09571-.00958.19136-.00958.28706-.01916.71754-.0574,1.4255-.12437,2.13347-.21045.78451-.07655,1.55945-.17226,2.33439-.27748h.00958c.77494-.10523,1.54988-.22,2.31524-.354.77494-.1148,1.53072-.24876,2.29614-.40181.76537-.14353,1.52115-.29658,2.277-.46878.75578-.16269,1.51157-.33489,2.25784-.52618.507-.12438,1.00454-.24876,1.502-.38271.77494-.20094,1.54988-.421,2.31524-.65057.44012-.12437.88975-.25833,1.32986-.4018.067-.01915.14347-.04788.21045-.067.00957,0,.01915-.00958.02873-.00958a87.32463,87.32463,0,0,0,26.46279-13.69063C244.94653,260.41155,245.16655,261.31087,245.35791,262.22928Z"/><path class="cls-14" d="M245.97022,266.391A98.81863,98.81863,0,0,1,100.4821,242.84616a28.16507,28.16507,0,0,0,7.5581-1.17674c.36356-.1148.72706-.22961,1.09061-.354a93.25756,93.25756,0,0,0,136.2271,20.91384A38.27826,38.27826,0,0,1,245.97022,266.391Z"/><path class="cls-9" d="M248.582,300.76591V349.9426H82.48624V314.91575a50.71024,50.71024,0,0,1,14.6665-36.16393,19.78915,19.78915,0,0,0,5.87421-14.05419c0-.44963-.0191-.88974-.04783-1.33943l-.00957-.0191a.85168.85168,0,0,0-.00952-.22008.67654.67654,0,0,0-.00958-.1339,39.16164,39.16164,0,0,0-3.42506-14.236c-1.01412-2.21-2.09522-5.15672-2.344-5.87426a.79736.79736,0,0,0-.03824-.1148l-.00958-.03825c.22.00952.44963.03825.66971.0574.68881.0574,1.39678.0765,2.11431.0765h.02873c.18178,0,.354,0,.53576-.00958A98.81863,98.81863,0,0,0,245.97022,266.391c.067.708.1148,1.4255.14348,2.143.00957.4592.01915.91847.01915,1.37767a38.41217,38.41217,0,0,1-.63141,6.93621.035.035,0,0,1-.00958.02867,10.75388,10.75388,0,0,0,.33483,4.92712,63.93864,63.93864,0,0,1,1.90386,8.35213h.00958c.04782.34446.10528.68887.15311,1.03327A66.779,66.779,0,0,1,248.582,300.76591Z"/><path class="cls-19" d="M209.873,334.86388a11.83028,11.83028,0,0,1-6.06975,3.04161c-7.65371,1.30123-15.17306-5.3864-16.79619-14.93608-1.39129-8.20438,2.01829-15.84794,7.86469-18.66245-3.92625,3.63979-5.96012,9.92714-4.8319,16.58505,1.62254,9.54087,9.13309,16.2291,16.78739,14.93667A11.42779,11.42779,0,0,0,209.873,334.86388Z"/><path class="cls-12" d="M209.873,334.86388a11.42779,11.42779,0,0,1-3.04576.9648c-7.6543,1.29243-15.16485-5.3958-16.78739-14.93667-1.12822-6.65791.90565-12.94526,4.8319-16.58505a11.24388,11.24388,0,0,1,3.06273-.97479c7.6537-1.30123,15.17306,5.3864,16.78744,14.93666C215.8501,324.92675,213.81687,331.2229,209.873,334.86388Z"/><ellipse class="cls-19" cx="200.2979" cy="311.84112" rx="5.59565" ry="1.82687" transform="translate(-64.50502 52.52751) rotate(-12.88712)"/><ellipse class="cls-19" cx="205.65908" cy="327.045" rx="5.59565" ry="1.82687" transform="translate(-67.76091 54.10619) rotate(-12.88712)"/><ellipse class="cls-19" cx="202.97849" cy="319.44306" rx="7.78432" ry="2.54143" transform="translate(-66.13297 53.31685) rotate(-12.88712)"/><path class="cls-14" d="M231.45172,287.69769a49.01839,49.01839,0,0,0,9.84223-6.17761,1.49994,1.49994,0,0,0-1.98633-2.24805c-.165.14551-16.9375,14.52344-55.56836,16.90137a1.49994,1.49994,0,0,0,.09082,2.99707c.03027,0,.06152-.001.09277-.00293a144.77422,144.77422,0,0,0,29.75434-4.769c1.83636,4.49689,8.14331,27.84418,8.95544,55.54407h3.00189c-.79858-27.89319-6.93927-51.21277-9.05-56.38642a98.55781,98.55781,0,0,0,12.1496-4.55591c2.07556,4.86005,8.78967,29.019,9.09125,60.94233h3.00006C240.52588,316.987,233.648,292.70459,231.45172,287.69769Z"/><path class="cls-14" d="M119.2207,326.43945a135.0628,135.0628,0,0,1-28.16992-2.95215,1.4996,1.4996,0,1,1,.68506-2.91992c.24121.05664,24.30762,5.582,47.21387,1.08106a1.4998,1.4998,0,1,1,.57812,2.94336A106.10789,106.10789,0,0,1,119.2207,326.43945Z"/><path class="cls-14" d="M119.88672,335.63184a155.15039,155.15039,0,0,1-31.543-3.2461,1.4996,1.4996,0,1,1,.68506-2.91992c.26807.06152,27.0918,6.22168,52.62793,1.2041a1.4998,1.4998,0,0,1,.57812,2.94336A116.844,116.844,0,0,1,119.88672,335.63184Z"/><path class="cls-14" d="M148.52,329.72V350h-8.56V331.3a36.0388,36.0388,0,0,0-15.26-29.47,26.66321,26.66321,0,0,0-2.72-1.69c-.01-.01-.02-.02-.03-.02a28.57148,28.57148,0,0,0-27.01.2.71093.71093,0,0,1-.94-.23,2.339,2.339,0,0,1-.41-1.33,2.38525,2.38525,0,0,1,1.43-2.19l1.49-.66a37.27991,37.27991,0,0,1,6.18-2.12,36.90757,36.90757,0,0,1,8.23-1.06c.26,0,.51,0,.76-.01a36.57266,36.57266,0,0,1,8.99,1.15,36.99321,36.99321,0,0,1,27.85,35.85Z"/><path class="cls-21" d="M153.02,349.94257V333.74a41.05573,41.05573,0,0,0-41.34-41.02,36.57266,36.57266,0,0,1,8.99,1.15,36.99321,36.99321,0,0,1,27.85,35.85v20.2226Z"/><path class="cls-22" d="M136.75126,294.43244a75.31519,75.31519,0,0,1,26.04855,32.53338,8.95114,8.95114,0,0,0,8.24539,5.57266h.00006c6.54917,0,9.996-7.61486,7.09246-14.64064-2.1859-5.28916-4.506-8.16655-7.997-12.66407a76.99317,76.99317,0,0,0-70.77792-29.10931,19.79767,19.79767,0,0,1-2.21008,2.62736,47.52681,47.52681,0,0,0-5.4321,6.44114A58.0456,58.0456,0,0,1,136.75126,294.43244Z"/><path class="cls-23" d="M101.78323,271.586a19.60782,19.60782,0,0,1-4.63049,7.16581,48.07956,48.07956,0,0,0-8.467,11.30841l-2.68837,1.11935a34.11916,34.11916,0,0,0-20.97125,31.476v27.287h-7.2232V315.56631A43.97849,43.97849,0,0,1,101.78323,271.586Z"/><path class="cls-21" d="M177.73952,324.1979a7.73476,7.73476,0,0,1-2.02426,4.14295,6.09249,6.09249,0,0,1-3.85812,1.813.1589.1589,0,0,1-.06545-.00043,6.07608,6.07608,0,0,0,3.07277-1.69791,7.73489,7.73489,0,0,0,2.02426-4.143,10.13591,10.13591,0,0,0-.43582-4.99381,10.37513,10.37513,0,0,0-2.72208-4.25169,7.79316,7.79316,0,0,0-5.61757-2.20822,5.1696,5.1696,0,0,1,.83478-.11246,7.82678,7.82678,0,0,1,5.63359,2.20606,10.46412,10.46412,0,0,1,2.72208,4.25168A10.2311,10.2311,0,0,1,177.73952,324.1979Z"/><path class="cls-9" d="M176.88872,324.31252a7.73489,7.73489,0,0,1-2.02426,4.143,6.07608,6.07608,0,0,1-3.07277,1.69791,7.44673,7.44673,0,0,1-4.335-1.18024,10.07639,10.07639,0,0,1-3.445-3.794,10.54675,10.54675,0,0,1-1.26164-5.05806,8.10056,8.10056,0,0,1,1.33771-4.56772,6.18959,6.18959,0,0,1,4.01743-2.69345l.008-.00108a7.79316,7.79316,0,0,1,5.61757,2.20822,10.37513,10.37513,0,0,1,2.72208,4.25169A10.13591,10.13591,0,0,1,176.88872,324.31252Z"/><path class="cls-3" d="M174.91111,321.87435a.29056.29056,0,0,0-.14617-.03585c-.153.00132-.39927.00431-.68914.00137-.27731.00015-.59366-.00492-.90083-.01413-.63086-.01932-1.22248-.064-1.36073-.07566a1.86507,1.86507,0,0,0-.2316-.80072,1.64629,1.64629,0,0,0-.54956-.58585q.27435-.70808.56722-1.40206.19591-.46456.39978-.92237l.004-.00893q.14387-.34938.29228-.69485c.08143-.15284.06019-.25384-.07971-.32252a5.07754,5.07754,0,0,0-.55883-.23518,4.76252,4.76252,0,0,0-3.30289.01738q-.19242-.503-.374-1.01735a.55664.55664,0,0,0-.23909-.30632.39933.39933,0,0,0-.51052.07093.55155.55155,0,0,0-.11128.18107.6384.6384,0,0,0-.04.22253.68039.68039,0,0,0,.0391.2283q.18913.5346.38985,1.05729a4.57871,4.57871,0,0,0-.944.83542q-.26438-.6703-.51017-1.36015a.61013.61013,0,0,0-.247-.325.40426.40426,0,0,0-.34981-.04795.3957.3957,0,0,0-.16439.11164.55245.55245,0,0,0-.10911.18686.71225.71225,0,0,0-.03635.2315.74657.74657,0,0,0,.04368.23905q.34848.97441.73336,1.91077a5.84942,5.84942,0,0,0-.63311,2.832,6.276,6.276,0,0,0,.77638,2.88967,4.38846,4.38846,0,0,0,6.93865,1.339q1.40354-1.241,2.81787-2.49153a.34312.34312,0,0,0,.105-.17126.27336.27336,0,0,0-.01559-.18623q-.459-.60936-.8923-1.25335A.29322.29322,0,0,0,174.91111,321.87435Zm-.11,1.46984-2.35754,1.996a3.57661,3.57661,0,0,1-5.57927-1.12753,4.99462,4.99462,0,0,1-.60123-1.93188,4.90578,4.90578,0,0,1,.20935-1.995q.22137.49222.45292.97293a.53972.53972,0,0,0,.27434.27579.40849.40849,0,0,0,.34872-.009.43171.43171,0,0,0,.15046-.12976.56054.56054,0,0,0,.09012-.18944.60326.60326,0,0,0,.01572-.2204.63477.63477,0,0,0-.05952-.21242q-.377-.7853-.72634-1.602a3.80211,3.80211,0,0,1,1.29954-1.18485,3.52131,3.52131,0,0,1,2.7726-.31745q-.52226,1.20539-.98931,2.45575a1.5302,1.5302,0,0,0-.77736.27816,1.71874,1.71874,0,0,0-.55592.67533,1.95625,1.95625,0,0,0-.18143.9057,1.97681,1.97681,0,0,0,.25.8956,1.67449,1.67449,0,0,0,.60917.63234,1.42321,1.42321,0,0,0,.79807.19819,1.51777,1.51777,0,0,0,.7803-.2709,1.81768,1.81768,0,0,0,.56537-.65l-.00781.03368q1.42936.06129,2.842-.01267Q174.61033,323.08028,174.80112,323.34419Zm-4.00029-1.83434a.82049.82049,0,0,1,.0992.4236.839.839,0,0,1-.12809.41976.7324.7324,0,0,1-.31744.2799.62616.62616,0,0,1-.40134.03823.679.679,0,0,1-.35-.22075.80612.80612,0,0,1-.17869-.40691.83869.83869,0,0,1,.05762-.44836.73348.73348,0,0,1,.27023-.33448.64123.64123,0,0,1,.52427-.09053A.69477.69477,0,0,1,170.80083,321.50985Z"/><path class="cls-24" d="M173.57684,319.60932a4.28709,4.28709,0,0,1,.499,2.23055c-.27731.00015-.59366-.00492-.90083-.01413a3.30616,3.30616,0,0,0-.404-1.68063,3.0057,3.0057,0,0,0-1.17072-1.18366q.19591-.46456.39978-.92237A3.92188,3.92188,0,0,1,173.57684,319.60932Z"/><path class="cls-14" d="M258.35973,311.883V350l-9.77769-.0574V300.76591a66.779,66.779,0,0,0-.6888-9.57676c-.04783-.3444-.10529-.68881-.15311-1.03327l1.16722,1.01412A27.42883,27.42883,0,0,1,258.35973,311.883Z"/><path class="cls-22" d="M88.68575,290.06023a52.2552,52.2552,0,0,0-6.19951,24.85552V349.9426H65.02613v-27.287a34.11916,34.11916,0,0,1,20.97125-31.476Z"/><path class="cls-22" d="M175,0A175,175,0,1,0,350,175,174.9998,174.9998,0,0,0,175,0Zm0,345A170,170,0,1,1,345,175,169.996,169.996,0,0,1,175,345Z"/></g></svg>