<svg id="Layer_1" data-name="Layer 1" xmlns="http://www.w3.org/2000/svg" xmlns:xlink="http://www.w3.org/1999/xlink" viewBox="0 0 350 350"><defs><style>.cls-1{fill:none;}.cls-2{clip-path:url(#clip-path);}.cls-3{fill:#140075;}.cls-4{fill:#ffeea8;}.cls-5{fill:#fff;}.cls-6{fill:#6f3ff5;}.cls-7{fill:#faadbf;}.cls-8{fill:#fddee5;}.cls-9{fill:#ffc0d1;}.cls-10{fill:#f579a6;}.cls-11{fill:#c4c1cf;}.cls-12{fill:#dddce2;}.cls-13{fill:#0fa57e;}.cls-14{fill:#00e7b4;}.cls-15{fill:#11bc92;}.cls-16{fill:#b6fff0;}.cls-17{fill:#f3587d;}.cls-18{fill:#8c65f7;}.cls-19{fill:#a7a2b6;}.cls-20{fill:#02e2ac;}.cls-21{fill:#5bf1cd;}.cls-22{fill:#0e0333;}.cls-23{fill:#02e1ab;}.cls-24{fill:#0d58ff;}</style><clipPath id="clip-path"><rect class="cls-1" width="350" height="350" rx="174.99982"/></clipPath></defs><g class="cls-2"><rect class="cls-3" width="350" height="350" rx="174.99982"/><circle class="cls-4" cx="92.37646" cy="80.41422" r="4.24881"/><circle class="cls-4" cx="81.5318" cy="44.4218" r="4.24881"/><circle class="cls-4" cx="133.55206" cy="87.31416" r="4.24881"/><circle class="cls-4" cx="272.81132" cy="61.53638" r="4.24881"/><circle class="cls-4" cx="61.84836" cy="202.57342" r="4.24881"/><circle class="cls-4" cx="216.51502" cy="71.90675" r="3.37394"/><circle class="cls-4" cx="47.92243" cy="102.72157" r="1.97445"/><circle class="cls-4" cx="283.18169" cy="228.0549" r="1.97445"/><circle class="cls-4" cx="161.66982" cy="59.85492" r="5.42123"/><circle class="cls-4" cx="159.37727" cy="26.22693" r="8.40562"/><circle class="cls-4" cx="77.5995" cy="262.67138" r="8.40562"/><circle class="cls-4" cx="106.54435" cy="20.09146" r="6.08004"/><circle class="cls-5" cx="125.27287" cy="51.89222" r="18.88864"/><polygon class="cls-6" points="426.667 302.222 404.971 282.009 410.87 264.722 408.168 236.945 299.557 108.836 309.786 175.194 276.053 149.566 296.368 243.8 289.778 264.889 260.148 271.407 244.741 309.333 296.296 371.556 321.07 358.381 331.797 408.143 370.417 383.267 391.734 320.8 426.667 302.222"/><polygon class="cls-6" points="39.956 266.779 52.759 227.239 40.75 148.466 -15.476 164.406 -18.3 173.438 -23.437 206.152 -21.371 233.022 -6.749 281.88 23.622 317.223 24.165 315.547 41.623 335.156 124.452 368.278 167.916 350.741 187.738 289.307 88.954 304.638 39.956 266.779"/><path class="cls-5" d="M259.60158,132.94889v34.75h-19.59v-31.54a45.22346,45.22346,0,0,0-13.25-31.99l-15.12-15.12a16.10288,16.10288,0,0,1,0-22.8l2.35,2.35,32.36,32.36005A45.26556,45.26556,0,0,1,259.60158,132.94889Z"/><path class="cls-7" d="M263.89156,132.94889v34.75h-4.29v-34.75a45.26556,45.26556,0,0,0-13.25-31.99l-32.36-32.36-2.35-2.35h4.29l34.71,34.71A45.22346,45.22346,0,0,1,263.89156,132.94889Z"/><path class="cls-8" d="M274.996,189.64785a82.74081,82.74081,0,0,1-6.41886,32.06772q-.97868,2.36736-2.11607,4.65539c-74.63661,22.67756-138.59569-31.39761-138.59569-31.39761V172.24294c3.183-9.1433,28.94644-59.70929,86.40739-62.6983h.0176a83.10944,83.10944,0,0,1,38.11628,23.11842l.00877.00882A82.87471,82.87471,0,0,1,274.996,189.64785Z"/><path class="cls-9" d="M272.8446,208.5076a80.75678,80.75678,0,0,1-4.26749,13.208q-.97868,2.36736-2.11607,4.65539c-74.63661,22.67756-138.59569-31.39761-138.59569-31.39761v-9.928S188.91481,220.74566,272.8446,208.5076Z"/><path class="cls-5" d="M269.81162,229.61479a87.04237,87.04237,0,0,1-7.051,11.46147,86.14381,86.14381,0,0,1-5.96033,7.34758,87.7492,87.7492,0,0,1-38.5653,24.779c-.00958,0-.01916.00958-.02873.00958-.067.0191-.14348.04783-.21045.067-.44011.13389-.88974.26785-1.32986.4018-.76536.22961-1.5403.44963-2.31524.65057-.49751.13395-.995.26785-1.502.38271-.74627.19129-1.50206.36349-2.25784.52618s-1.51163.32525-2.277.46878-1.53078.27743-2.29614.40181c-.77494.12437-1.5403.23918-2.31524.354h-.00958c-.77494.10522-1.55945.20093-2.33439.27748-.708.0765-1.41593.14348-2.13347.21045-.0957.00958-.19135.00958-.28706.01916q-2.03778.1722-4.1043.2296c-.4018.01915-.80361.02867-1.20547.03825-.60274.00957-1.20548.01915-1.80821.01915a87.49388,87.49388,0,0,1-74.0691-40.83272c-.19135-.287-.37313-.56449-.54533-.85149-.354-.56443-.68881-1.12892-1.0237-1.70293-.56443-.95672-1.10019-1.93259-1.62637-2.918-.03831-.07649-.08613-.15305-.12438-.2296-.66014-1.22457-1.282-2.48744-1.88477-3.75032-.15305-.32531-.30615-.66014-.4592-.98545-.27743-.60273-.54534-1.215-.81319-1.8273a87.14928,87.14928,0,0,1-5.02277-15.6328c-.36356-1.67426-.68887-3.37718-.9472-5.08969q-.1291-.76064-.2296-1.52121a87.96426,87.96426,0,0,1-.861-12.2747q0-1.85122.08607-3.67377a84.72476,84.72476,0,0,1,.77494-8.60088,79.35323,79.35323,0,0,1,1.5403-8.14168,85.48837,85.48837,0,0,1,4.20958-13.021c.38271-.93757.7941-1.86556,1.21505-2.784a.58463.58463,0,0,1,.04783-.1148c.3444-.74627.68881-1.4829,1.05236-2.21959l.08613-.19136c.22-.44.44012-.87058.66972-1.30112v-.00957c.13389-.26785.27743-.53576.41138-.7941l1.24372-2.26741v-.00952l.53576-.91847v-.00958c.10523-.18178.21051-.354.31574-.53576l.61231-1.01412.18172-.30615c.36356-.59316.73669-1.17675,1.1194-1.76033.421-.66014.861-1.32028,1.3107-1.96132V139.999a1.45794,1.45794,0,0,0,.10523-.15305l.01915-.01915c.47836-.69839.97581-1.38719,1.4829-2.07606l.01915-.02867c.40181-.54534.80361-1.0811,1.215-1.60734l.36356-.45921c.44969-.58358.91847-1.16716,1.38726-1.73165l.54533-.66014c.34441-.41138.69839-.82277,1.05237-1.22457l.58364-.66014c.421-.47836.85144-.9472,1.29155-1.416l.26785-.29658c.53582-.574,1.08109-1.12892,1.636-1.68383l6.03688-5.549c.44969-.38265.9089-.76536,1.37768-1.12892a2.02258,2.02258,0,0,1,.22-.18178q.83236-.67444,1.69341-1.32027.55969-.41615,1.11934-.83234c.43054-.31573.86107-.63141,1.30118-.93757.82277-.58358,1.66468-1.14807,2.5066-1.703.43053-.287.861-.56443,1.30112-.83234.32531-.21045.65056-.41138.98539-.61232q2.13834-1.33461,4.36269-2.50659c.4209-.22961.84186-.44963,1.26282-.66966q3.20028-1.65038,6.55355-3.03284.60272-.2583,1.20547-.48793c2.5066-1.00454,5.08017-1.88471,7.70157-2.65007q.50225-.14357,1.00455-.287c.85149-.23918,1.703-.45926,2.564-.66971a.9714.9714,0,0,1,.23918-.0574q.73191-.18657,1.46381-.34441c.421-.0957.84192-.19135,1.27239-.27748.30616-.067.60274-.134.9089-.19136h.00957a88.22124,88.22124,0,0,1,43.54983,2.38228,89.30864,89.30864,0,0,0-16.62777.95672,77.98572,77.98572,0,0,0-27.18991,9.548c-36.585,21.20084-45.14753,44.076-46.57308,48.77346-.17221.56449-.23918.87065-.23918.87065a15.35535,15.35535,0,0,1,.25833,2.83185V201.2385s40.28738,33.179,81.56021,37.61816c26.80726,2.87973,44.25779-1.87513,53.21265-5.5681V233.279A39.63125,39.63125,0,0,0,269.81162,229.61479Z"/><path class="cls-8" d="M218.20625,273.21244c-.067.0191-.14348.04783-.21045.067-.44011.13389-.88974.26785-1.32986.4018-.76536.22961-1.5403.44963-2.31524.65057-.49751.13395-.995.26785-1.502.38271-.74627.19129-1.50206.36349-2.25784.52618s-1.51163.32525-2.277.46878-1.53078.27743-2.29614.40181c-.76536.134-1.5403.24875-2.31524.354h-.00958c-.77494.10522-1.55945.20093-2.33439.27748-.708.0765-1.41593.14348-2.13347.21045-.0957.00958-.19135.00958-.28706.01916q-2.03778.1722-4.1043.2296c-.4018.01915-.80361.02867-1.20547.03825-.60274.00957-1.20548.01915-1.80821.01915a87.49388,87.49388,0,0,1-74.0691-40.83272c-.19135-.287-.37313-.56449-.54533-.85149-.354-.56443-.68881-1.12892-1.0237-1.70293-.56443-.95672-1.10019-1.93259-1.62637-2.918-.03831-.07649-.08613-.15305-.12438-.2296-.66014-1.22457-1.282-2.48744-1.88477-3.75032-.15305-.32531-.30615-.66014-.4592-.98545-.27743-.60273-.54534-1.215-.81319-1.8273a87.14928,87.14928,0,0,1-5.02277-15.6328c-.36356-1.67426-.68887-3.37718-.9472-5.08969q-.1291-.76064-.2296-1.52121a87.96426,87.96426,0,0,1-.861-12.2747q0-1.85122.08607-3.67377a84.72476,84.72476,0,0,1,.77494-8.60088,79.35323,79.35323,0,0,1,1.5403-8.14168,85.48837,85.48837,0,0,1,4.20958-13.021c.38271-.93757.7941-1.86556,1.21505-2.784a.58463.58463,0,0,1,.04783-.1148c.3444-.74627.68881-1.4829,1.05236-2.21959l.08613-.19136c.22-.44.44012-.87058.66972-1.30112.13389-.26791.26785-.53576.41138-.80367l1.24372-2.26741v-.00952l.53576-.91847q.14348-.27267.31574-.54534l.61231-1.01412.18172-.30615c.36356-.59316.73669-1.17675,1.1194-1.76033.421-.66014.861-1.32028,1.3107-1.96132a1.55753,1.55753,0,0,0,.10523-.16263l.01915-.01915c.47836-.69839.97581-1.38719,1.4829-2.07606l.01915-.02867c.40181-.54534.80361-1.0811,1.215-1.60734l.36356-.45921c.44969-.58358.91847-1.16716,1.38726-1.73165l.54533-.66014c.34441-.41138.69839-.82277,1.05237-1.22457l.58364-.66014c.421-.47836.85144-.9472,1.29155-1.416l.26785-.29658c.53582-.574,1.08109-1.12892,1.636-1.68383l6.03688-5.549c.44969-.38265.9089-.76536,1.37768-1.12892a2.02258,2.02258,0,0,1,.22-.18178q.83236-.67444,1.69341-1.32027.55969-.41615,1.11934-.83234c.43054-.31573.86107-.63141,1.30118-.93757.82277-.58358,1.66468-1.14807,2.5066-1.703.43053-.287.861-.56443,1.30112-.83234.32531-.21045.65056-.41138.98539-.61232q2.13834-1.33461,4.36269-2.50659c.4209-.22961.84186-.44963,1.26282-.66966q3.20028-1.65038,6.55355-3.03284.60272-.2583,1.20547-.48793c2.5066-1.00454,5.08017-1.88471,7.70157-2.65007q.50225-.14357,1.00455-.287c.85149-.23918,1.703-.45926,2.564-.66971a.9714.9714,0,0,1,.23918-.0574q.73191-.18657,1.46381-.34441c.421-.0957.84192-.19135,1.27239-.27748.30616-.067.60274-.134.9089-.19136a87.79314,87.79314,0,0,0-52.54294,45.47284c-.29658.58358-.574,1.17675-.84192,1.76991h-.00958c-.31573.69844-.6314,1.4064-.928,2.11436-.25834.58359-.49752,1.17675-.72712,1.76991-.48794,1.20547-.94714,2.42052-1.3681,3.65467q-.96156,2.741-1.73166,5.55853c-.52624,1.90386-.98544,3.81729-1.3681,5.769q-.71754,3.45849-1.129,7.0127a84.69414,84.69414,0,0,0-.60267,9.1367c-.01916.44-.01916.88017-.01916,1.32028a87.6937,87.6937,0,0,0,.62183,10.45692,85.24842,85.24842,0,0,0,2.65013,13.33665q.1292.48788.287.97581c.62189,2.16219,1.33942,4.27656,2.143,6.3622.66013,1.76991,1.38725,3.50156,2.17176,5.21413h.00958l.51661,1.11934q.91847,1.95168,1.94216,3.846l.25834.48794c.75578,1.40635,1.55939,2.784,2.39179,4.133a87.69661,87.69661,0,0,0,91.80663,39.99086Z"/><path class="cls-10" d="M252.40662,132.66306a83.10944,83.10944,0,0,0-38.11628-23.11842h-.0176c-57.46095,2.989-83.22444,53.555-86.40739,62.6983v-3.16535a15.81494,15.81494,0,0,0-.25573-2.83908s5.79283-25.86933,46.80991-49.6402a77.78717,77.78717,0,0,1,27.18307-9.54886,89.69142,89.69142,0,0,1,16.629-.96109h.00883c1.1109.34388,2.18662.70536,3.23585,1.09331A61.72132,61.72132,0,0,1,252.40662,132.66306Z"/><path class="cls-10" d="M269.81152,229.61564a39.49263,39.49263,0,0,1-7.17711,3.66794v.00882c-8.94936,3.68554-26.40717,8.44673-53.21106,5.56358-41.27276-4.435-81.558-37.6137-81.558-37.6137v-6.26893S191.82443,249.04852,266.461,226.371q1.13739-2.288,2.11607-4.65539C271.30161,227.27915,269.81152,229.61564,269.81152,229.61564Z"/><path class="cls-7" d="M191.1984,248.66939a119.86138,119.86138,0,0,1-6.49818,12.22046,9.02393,9.02393,0,0,1-3.906,3.50919c-.00883,0-.02643.00882-.03525.00882a9.067,9.067,0,0,1-5.5195.67011,85.80811,85.80811,0,0,1-10.76568-2.80383,9.07735,9.07735,0,0,1-6.13665-7.33581c-.40561-2.97136-.84646-7.02725-1.10214-11.762a10.77115,10.77115,0,0,0-4.726-8.36741c-6.26893-4.23218-17.59886-12.45853-24.6437-21.00229v-4.13521c2.83025,2.29247,29.36969,23.25946,60.6086,32.98473A4.3916,4.3916,0,0,1,191.1984,248.66939Z"/><path class="cls-10" d="M195.80977,245.41589c-1.46366,3.23585-3.45633,7.49452-5.29025,10.95962a16.09682,16.09682,0,0,1-9.593,7.98828,1.00314,1.00314,0,0,0-.13228.03525,9.02393,9.02393,0,0,0,3.906-3.50919,119.86138,119.86138,0,0,0,6.49818-12.22046,4.3916,4.3916,0,0,0-2.72445-6.01325c-31.23891-9.72527-57.77835-30.69226-60.6086-32.98473V207.185s22.025,17.92509,43.87375,25.4725c10.8274,3.73844,17.36966,5.69586,21.22272,6.71862A4.37628,4.37628,0,0,1,195.80977,245.41589Z"/><path class="cls-1" d="M180.79427,264.39906c-.00882,0-.02645.00882-.03527.00882"/><path class="cls-11" d="M174.63113,259.51439a8.13138,8.13138,0,0,0,2.97135-.5643,8.81794,8.81794,0,0,1-4.68187,1.33138,8.91406,8.91406,0,1,1,0-17.82811,8.81836,8.81836,0,0,1,4.68187,1.33134,8.14573,8.14573,0,1,0-2.97135,15.72969Z"/><path class="cls-5" d="M181.83467,251.36742a8.90737,8.90737,0,0,1-4.23219,7.58267,8.147,8.147,0,1,1,0-15.16539A8.9075,8.9075,0,0,1,181.83467,251.36742Z"/><path class="cls-12" d="M162.03154,261.0309c-9.43429-3.23585-3.13888-17.03455-12.03534-23.08311-14.69806-9.99854-22.13085-20.73773-22.13085-20.73773v-3.40344c7.04484,8.54376,18.37477,16.77011,24.6437,21.00229a10.77115,10.77115,0,0,1,4.726,8.36741c.25568,4.73476.69653,8.79065,1.10214,11.762A9.00058,9.00058,0,0,0,162.03154,261.0309Z"/><path class="cls-5" d="M120.34,128.06v34.75H100.75V131.27A45.22346,45.22346,0,0,0,87.5,99.28L72.38,84.16a16.10287,16.10287,0,0,1,0-22.8l2.35,2.35,32.36,32.36A45.26556,45.26556,0,0,1,120.34,128.06Z"/><path class="cls-7" d="M124.63,128.06v34.75h-4.29V128.06a45.26556,45.26556,0,0,0-13.25-31.99L74.73,63.71l-2.35-2.35h4.29l34.71,34.71A45.22341,45.22341,0,0,1,124.63,128.06Z"/><path class="cls-5" d="M250.6087,165.28335a6.61517,6.61517,0,0,1-6.283-4.55492c-.06285-.18728-7.33006-21.167-29.04728-30.63161a6.61274,6.61274,0,0,1,5.28336-12.12434c27.2985,11.897,35.9761,37.55051,36.33171,38.63672a6.61758,6.61758,0,0,1-6.28476,8.67415Z"/><circle class="cls-5" cx="259.46028" cy="177.7893" r="7.05366"/><path class="cls-10" d="M127.86337,166.14609v48.77353a27.87622,27.87622,0,0,1-10.11252,21.507,27.28731,27.28731,0,0,1-3.97992,2.75535,26.63523,26.63523,0,0,1-5.73073,2.48745,28.26117,28.26117,0,0,1-8.09386,1.18632h-.02873c-.71753,0-1.4255-.0191-2.11431-.0765a28.4116,28.4116,0,0,0,5.96034-1.10982A26.71154,26.71154,0,0,0,109.504,239.182a27.90322,27.90322,0,0,0,14.04461-22.71247c.03831-.51667.04783-1.03328.04783-1.54988V166.14609a28.425,28.425,0,0,0-.45921-5.05144,27.45623,27.45623,0,0,0-2.784-8.02688c-.22961-.43053-.46879-.86107-.72712-1.282a27.42063,27.42063,0,0,0-3.53987-4.707c-.1722-.19136-.354-.37313-.53576-.55491v-.00952l-.13395-.134c-.63141-.63146-1.282-1.22462-1.97084-1.78905a28.3058,28.3058,0,0,0-9.682-5.20455c-.21045-.067-.43054-.12438-.641-.19136a29.44073,29.44073,0,0,0-5.31935-.91847c.68881-.04782,1.39678-.07649,2.11431-.07649h.02873a26.84205,26.84205,0,0,1,3.17631.18177,28.5324,28.5324,0,0,1,4.91755,1.00455,27.96672,27.96672,0,0,1,6.8405,3.14758c.41138.25833.81324.52618,1.20547.81319.31574.22008.62189.44968.928.68886a28.26971,28.26971,0,0,1,2.61182,2.28657l.0574.0574a27.18464,27.18464,0,0,1,2.4492,2.80318,27.76029,27.76029,0,0,1,5.27152,11.91115,26.33983,26.33983,0,0,1,.44006,4.2765C127.86337,165.62949,127.86337,165.88782,127.86337,166.14609Z"/><path class="cls-12" d="M123.59639,166.14609v48.77353c0,.5166-.00952,1.03321-.04783,1.54988A27.922,27.922,0,0,1,109.504,239.182a26.71154,26.71154,0,0,1-5.74031,2.48745,28.4116,28.4116,0,0,1-5.96034,1.10982c-.22008-.01915-.44968-.04788-.66971-.0574-.47836-.0574-.95672-.11486-1.43508-.19135-.421-.0574-.83234-.134-1.23414-.21051h-.00958a24.11386,24.11386,0,0,1-2.35355-.574c-.25833-.07655-.5166-.15311-.76536-.23918a27.08832,27.08832,0,0,1-2.631-.995,25.95154,25.95154,0,0,1-3.15716-1.636c0-.00958-.00958,0-.00958,0a28.50475,28.50475,0,0,1-3.81729-2.76493c-.59316-.507-1.16723-1.05237-1.71257-1.60728q-.83227-.84673-1.57855-1.75081a27.87464,27.87464,0,0,1-6.4196-17.83318V166.14609a27.8359,27.8359,0,0,1,6.4196-17.83324q.74619-.904,1.57855-1.75075a27.7084,27.7084,0,0,1,14.45606-7.82594c.4018-.07656.81318-.14354,1.23414-.21051.47836-.067.95672-.134,1.43508-.18178.22-.01915.44963-.04783.66971-.067a29.44073,29.44073,0,0,1,5.31935.91847c.21045.067.43054.12438.641.19136a28.3058,28.3058,0,0,1,9.682,5.20455c.68887.56443,1.33943,1.15759,1.97084,1.78905l.13395.134v.00952c.18178.18178.36356.36355.53576.55491a27.42063,27.42063,0,0,1,3.53987,4.707c.25833.421.49751.85149.72712,1.282a27.45623,27.45623,0,0,1,2.784,8.02688A28.425,28.425,0,0,1,123.59639,166.14609Z"/><path class="cls-5" d="M119.32946,166.14609v48.77353a28.19794,28.19794,0,0,1-.22008,3.50156A27.91067,27.91067,0,0,1,105.237,239.182a26.71017,26.71017,0,0,1-5.7403,2.48745,27.3818,27.3818,0,0,1-3.79815.86107c-.421-.0574-.83234-.134-1.23414-.21051h-.00958c-.79409-.16263-1.58818-.354-2.35355-.574-.25833-.07655-.5166-.15311-.76536-.23918a27.08832,27.08832,0,0,1-2.631-.995,30.7577,30.7577,0,0,1-3.15716-1.636c0-.00958-.00958,0-.00958,0a30.299,30.299,0,0,1-3.81729-2.76493c-.59316-.51661-1.16723-1.05237-1.71257-1.60728q-.83227-.84673-1.57855-1.75081a27.87464,27.87464,0,0,1-6.4196-17.83318V166.14609a27.8359,27.8359,0,0,1,6.4196-17.83324q.74619-.904,1.57855-1.75075a27.7084,27.7084,0,0,1,14.45606-7.82594c.4018-.07656.81318-.14354,1.23414-.21051a27.39884,27.39884,0,0,1,3.79815.87064,26.29015,26.29015,0,0,1,3.626,1.39677,27.63075,27.63075,0,0,1,8.02688,5.58726c.22961.22961.45921.46879.66966.708a24.76828,24.76828,0,0,1,2.07612,2.497v.00957a27.20282,27.20282,0,0,1,2.19086,3.47289,26.76859,26.76859,0,0,1,2.17177,5.42458,26.36342,26.36342,0,0,1,.61226,2.6023,29.46214,29.46214,0,0,1,.421,3.69292C119.31988,165.2372,119.32946,165.68689,119.32946,166.14609Z"/><path class="cls-12" d="M95.6659,229.57764a18.25427,18.25427,0,0,1-5.28029-.77163,18.03815,18.03815,0,0,1-3.76618-1.63224,18.29625,18.29625,0,0,1-9.19115-15.84907V169.73442a18.44339,18.44339,0,0,1,.28861-3.28354,18.11853,18.11853,0,0,1,5.047-9.61846,18.3002,18.3002,0,0,1,12.902-5.35094c.62545,0,1.18735.04113,1.73056.08075l.07963.00561.27478.03626c.16187.02169.32.04375.47479.071a9.20294,9.20294,0,0,1,1.0737.18281,18.25013,18.25013,0,0,1,14.612,17.87647v41.59775A18.24645,18.24645,0,0,1,99.26011,229.209l-.00075.015c-.33684.06953-.68153.11664-1.03445.16-.15552.02766-.31441.05009-.477.07177l-.25983.0344a17.90221,17.90221,0,0,1-1.80683.08748Z"/><path class="cls-13" d="M97.85214,226.62744c-.19661.03937-.40105.06293-.61341.08655a14.65318,14.65318,0,0,1-1.55715.07863h-.01574a15.70338,15.70338,0,0,1-4.55352-.66846,15.27687,15.27687,0,0,1-3.24016-1.3999,15.73522,15.73522,0,0,1-7.93527-13.67634V186.613l4.43557.00787v24.42706a15.75154,15.75154,0,0,0,7.93523,13.67634,15.29759,15.29759,0,0,0,5.54445,1.90318Z"/><path class="cls-14" d="M98.75658,154.581a8.67365,8.67365,0,0,0-.90442-.1494,16.63448,16.63448,0,0,0-2.3043.51118A15.75326,15.75326,0,0,0,84.632,167.172a16.087,16.087,0,0,0-.25951,2.839V186.613l27.03018.00784V170.01107A15.71886,15.71886,0,0,0,98.75658,154.581Z"/><path class="cls-15" d="M97.85214,154.43157a16.63888,16.63888,0,0,0-2.30429.51121A15.75327,15.75327,0,0,0,84.632,167.172a16.08608,16.08608,0,0,0-.2595,2.83906V186.613l-4.43557.00787V170.01109a16.08177,16.08177,0,0,1,.25167-2.83906,15.748,15.748,0,0,1,15.47728-12.90559h.01574c.52691,0,1.03812.03932,1.55715.07863C97.45109,154.36864,97.65553,154.39226,97.85214,154.43157Z"/><path class="cls-14" d="M94.95019,158.30088c-.00787,0-.01574.00787-.02361.01574a11.10266,11.10266,0,0,0-2.18635,1.69875,11.48987,11.48987,0,0,0-3.16149,6.02417A11.89828,11.89828,0,0,0,89.39,168.1079v10.81366a1.25832,1.25832,0,0,1-2.51664,0V168.1079a12.71873,12.71873,0,0,1,.18874-2.06836,11.54554,11.54554,0,0,1,3.16153-6.02417,11.36321,11.36321,0,0,1,4.78157-2.8548c.08655-.03149.346-.09437.346-.09437a.6711.6711,0,0,1,.72357.22018C96.30286,157.64029,95.73664,157.78184,94.95019,158.30088Z"/><path class="cls-16" d="M111.40266,186.62086v24.43493A15.71665,15.71665,0,0,1,98.75657,226.478c-.13368-.02357,0,.01574,0,.01574-.29885.05506-.59771.09437-.90443.13368a15.29759,15.29759,0,0,1-5.54445-1.90318,15.75154,15.75154,0,0,1-7.93523-13.67634V186.62086Z"/><path class="cls-16" d="M94.95019,158.30088c-.00787,0-.01574.00787-.02361.01574a11.10266,11.10266,0,0,0-2.18635,1.69875,11.48987,11.48987,0,0,0-3.16149,6.02417A11.89828,11.89828,0,0,0,89.39,168.1079v10.81366a1.25832,1.25832,0,0,1-2.51664,0V168.1079a12.71873,12.71873,0,0,1,.18874-2.06836,11.54554,11.54554,0,0,1,3.16153-6.02417,11.36321,11.36321,0,0,1,4.78157-2.8548c.08655-.03149.346-.09437.346-.09437a.6711.6711,0,0,1,.72357.22018C96.30286,157.64029,95.73664,157.78184,94.95019,158.30088Z"/><rect class="cls-17" x="86.87336" y="190.48113" width="11.45987" height="2.81246" rx="1.40623"/><rect class="cls-18" x="86.87336" y="196.37038" width="11.45987" height="2.81246" rx="1.40623"/><rect class="cls-5" x="86.87336" y="202.25962" width="11.45987" height="2.81246" rx="1.40623"/><path class="cls-19" d="M245.35791,262.22928a93.25756,93.25756,0,0,1-136.2271-20.91384,26.50648,26.50648,0,0,0,4.64012-2.13347,27.28731,27.28731,0,0,0,3.97992-2.75535A87.49388,87.49388,0,0,0,191.82,277.25934c.60273,0,1.20547-.00958,1.80821-.01915.40186-.00958.80367-.0191,1.20547-.03825q2.06652-.05738,4.1043-.2296c.09571-.00958.19136-.00958.28706-.01916.71754-.0574,1.4255-.12437,2.13347-.21045.78451-.07655,1.55945-.17226,2.33439-.27748h.00958c.77494-.10523,1.54988-.22,2.31524-.354.77494-.1148,1.53072-.24876,2.29614-.40181.76537-.14353,1.52115-.29658,2.277-.46878.75578-.16269,1.51157-.33489,2.25784-.52618.507-.12438,1.00454-.24876,1.502-.38271.77494-.20094,1.54988-.421,2.31524-.65057.44012-.12437.88975-.25833,1.32986-.4018.067-.01915.14347-.04788.21045-.067.00957,0,.01915-.00958.02873-.00958a87.32463,87.32463,0,0,0,26.46279-13.69063C244.94653,260.41155,245.16655,261.31087,245.35791,262.22928Z"/><path class="cls-12" d="M245.97022,266.391A98.81863,98.81863,0,0,1,100.4821,242.84616a28.16507,28.16507,0,0,0,7.5581-1.17674c.36356-.1148.72706-.22961,1.09061-.354a93.25756,93.25756,0,0,0,136.2271,20.91384A38.27826,38.27826,0,0,1,245.97022,266.391Z"/><path class="cls-5" d="M248.582,300.76591V349.9426H82.48624V314.91575a50.71024,50.71024,0,0,1,14.6665-36.16393,19.78915,19.78915,0,0,0,5.87421-14.05419c0-.44963-.0191-.88974-.04783-1.33943l-.00957-.0191a.85168.85168,0,0,0-.00952-.22008.67654.67654,0,0,0-.00958-.1339,39.16164,39.16164,0,0,0-3.42506-14.236c-1.01412-2.21-2.09522-5.15672-2.344-5.87426a.79736.79736,0,0,0-.03824-.1148l-.00958-.03825c.22.00952.44963.03825.66971.0574.68881.0574,1.39678.0765,2.11431.0765h.02873c.18178,0,.354,0,.53576-.00958A98.81863,98.81863,0,0,0,245.97022,266.391c.067.708.1148,1.4255.14348,2.143.00957.4592.01915.91847.01915,1.37767a38.41217,38.41217,0,0,1-.63141,6.93621.035.035,0,0,1-.00958.02867,10.75388,10.75388,0,0,0,.33483,4.92712,63.93864,63.93864,0,0,1,1.90386,8.35213h.00958c.04782.34446.10528.68887.15311,1.03327A66.779,66.779,0,0,1,248.582,300.76591Z"/><path class="cls-17" d="M209.873,334.86388a11.83028,11.83028,0,0,1-6.06975,3.04161c-7.65371,1.30123-15.17306-5.3864-16.79619-14.93608-1.39129-8.20438,2.01829-15.84794,7.86469-18.66245-3.92625,3.63979-5.96012,9.92714-4.8319,16.58505,1.62254,9.54087,9.13309,16.2291,16.78739,14.93667A11.42779,11.42779,0,0,0,209.873,334.86388Z"/><path class="cls-10" d="M209.873,334.86388a11.42779,11.42779,0,0,1-3.04576.9648c-7.6543,1.29243-15.16485-5.3958-16.78739-14.93667-1.12822-6.65791.90565-12.94526,4.8319-16.58505a11.24388,11.24388,0,0,1,3.06273-.97479c7.6537-1.30123,15.17306,5.3864,16.78744,14.93666C215.8501,324.92675,213.81687,331.2229,209.873,334.86388Z"/><ellipse class="cls-17" cx="200.2979" cy="311.84112" rx="5.59565" ry="1.82687" transform="translate(-64.50502 52.52751) rotate(-12.88712)"/><ellipse class="cls-17" cx="205.65908" cy="327.045" rx="5.59565" ry="1.82687" transform="translate(-67.76091 54.10619) rotate(-12.88712)"/><ellipse class="cls-17" cx="202.97849" cy="319.44306" rx="7.78432" ry="2.54143" transform="translate(-66.13297 53.31685) rotate(-12.88712)"/><path class="cls-12" d="M231.45172,287.69769a49.01839,49.01839,0,0,0,9.84223-6.17761,1.49994,1.49994,0,0,0-1.98633-2.24805c-.165.14551-16.9375,14.52344-55.56836,16.90137a1.49994,1.49994,0,0,0,.09082,2.99707c.03027,0,.06152-.001.09277-.00293a144.77422,144.77422,0,0,0,29.75434-4.769c1.83636,4.49689,8.14331,27.84418,8.95544,55.54407h3.00189c-.79858-27.89319-6.93927-51.21277-9.05-56.38642a98.55781,98.55781,0,0,0,12.1496-4.55591c2.07556,4.86005,8.78967,29.019,9.09125,60.94233h3.00006C240.52588,316.987,233.648,292.70459,231.45172,287.69769Z"/><path class="cls-12" d="M119.2207,326.43945a135.0628,135.0628,0,0,1-28.16992-2.95215,1.4996,1.4996,0,1,1,.68506-2.91992c.24121.05664,24.30762,5.582,47.21387,1.08106a1.4998,1.4998,0,1,1,.57812,2.94336A106.10789,106.10789,0,0,1,119.2207,326.43945Z"/><path class="cls-12" d="M119.88672,335.63184a155.15039,155.15039,0,0,1-31.543-3.2461,1.4996,1.4996,0,1,1,.68506-2.91992c.26807.06152,27.0918,6.22168,52.62793,1.2041a1.4998,1.4998,0,0,1,.57812,2.94336A116.844,116.844,0,0,1,119.88672,335.63184Z"/><path class="cls-12" d="M148.52,329.72V350h-8.56V331.3a36.0388,36.0388,0,0,0-15.26-29.47,26.66321,26.66321,0,0,0-2.72-1.69c-.01-.01-.02-.02-.03-.02a28.57148,28.57148,0,0,0-27.01.2.71093.71093,0,0,1-.94-.23,2.339,2.339,0,0,1-.41-1.33,2.38525,2.38525,0,0,1,1.43-2.19l1.49-.66a37.27991,37.27991,0,0,1,6.18-2.12,36.90757,36.90757,0,0,1,8.23-1.06c.26,0,.51,0,.76-.01a36.57266,36.57266,0,0,1,8.99,1.15,36.99321,36.99321,0,0,1,27.85,35.85Z"/><path class="cls-19" d="M153.02,349.94257V333.74a41.05573,41.05573,0,0,0-41.34-41.02,36.57266,36.57266,0,0,1,8.99,1.15,36.99321,36.99321,0,0,1,27.85,35.85v20.2226Z"/><path class="cls-20" d="M136.75126,294.43244a75.31519,75.31519,0,0,1,26.04855,32.53338,8.95114,8.95114,0,0,0,8.24539,5.57266h.00006c6.54917,0,9.996-7.61486,7.09246-14.64064-2.1859-5.28916-4.506-8.16655-7.997-12.66407a76.99317,76.99317,0,0,0-70.77792-29.10931,19.79767,19.79767,0,0,1-2.21008,2.62736,47.52681,47.52681,0,0,0-5.4321,6.44114A58.0456,58.0456,0,0,1,136.75126,294.43244Z"/><path class="cls-21" d="M101.78323,271.586a19.60782,19.60782,0,0,1-4.63049,7.16581,48.07956,48.07956,0,0,0-8.467,11.30841l-2.68837,1.11935a34.11916,34.11916,0,0,0-20.97125,31.476v27.287h-7.2232V315.56631A43.97849,43.97849,0,0,1,101.78323,271.586Z"/><path class="cls-19" d="M177.73952,324.1979a7.73476,7.73476,0,0,1-2.02426,4.14295,6.09249,6.09249,0,0,1-3.85812,1.813.1589.1589,0,0,1-.06545-.00043,6.07608,6.07608,0,0,0,3.07277-1.69791,7.73489,7.73489,0,0,0,2.02426-4.143,10.13591,10.13591,0,0,0-.43582-4.99381,10.37513,10.37513,0,0,0-2.72208-4.25169,7.79316,7.79316,0,0,0-5.61757-2.20822,5.1696,5.1696,0,0,1,.83478-.11246,7.82678,7.82678,0,0,1,5.63359,2.20606,10.46412,10.46412,0,0,1,2.72208,4.25168A10.2311,10.2311,0,0,1,177.73952,324.1979Z"/><path class="cls-5" d="M176.88872,324.31252a7.73489,7.73489,0,0,1-2.02426,4.143,6.07608,6.07608,0,0,1-3.07277,1.69791,7.44673,7.44673,0,0,1-4.335-1.18024,10.07639,10.07639,0,0,1-3.445-3.794,10.54675,10.54675,0,0,1-1.26164-5.05806,8.10056,8.10056,0,0,1,1.33771-4.56772,6.18959,6.18959,0,0,1,4.01743-2.69345l.008-.00108a7.79316,7.79316,0,0,1,5.61757,2.20822,10.37513,10.37513,0,0,1,2.72208,4.25169A10.13591,10.13591,0,0,1,176.88872,324.31252Z"/><path class="cls-22" d="M174.91111,321.87435a.29056.29056,0,0,0-.14617-.03585c-.153.00132-.39927.00431-.68914.00137-.27731.00015-.59366-.00492-.90083-.01413-.63086-.01932-1.22248-.064-1.36073-.07566a1.86507,1.86507,0,0,0-.2316-.80072,1.64629,1.64629,0,0,0-.54956-.58585q.27435-.70808.56722-1.40206.19591-.46456.39978-.92237l.004-.00893q.14387-.34938.29228-.69485c.08143-.15284.06019-.25384-.07971-.32252a5.07754,5.07754,0,0,0-.55883-.23518,4.76252,4.76252,0,0,0-3.30289.01738q-.19242-.503-.374-1.01735a.55664.55664,0,0,0-.23909-.30632.39933.39933,0,0,0-.51052.07093.55155.55155,0,0,0-.11128.18107.6384.6384,0,0,0-.04.22253.68039.68039,0,0,0,.0391.2283q.18913.5346.38985,1.05729a4.57871,4.57871,0,0,0-.944.83542q-.26438-.6703-.51017-1.36015a.61013.61013,0,0,0-.247-.325.40426.40426,0,0,0-.34981-.04795.3957.3957,0,0,0-.16439.11164.55245.55245,0,0,0-.10911.18686.71225.71225,0,0,0-.03635.2315.74657.74657,0,0,0,.04368.23905q.34848.97441.73336,1.91077a5.84942,5.84942,0,0,0-.63311,2.832,6.276,6.276,0,0,0,.77638,2.88967,4.38846,4.38846,0,0,0,6.93865,1.339q1.40354-1.241,2.81787-2.49153a.34312.34312,0,0,0,.105-.17126.27336.27336,0,0,0-.01559-.18623q-.459-.60936-.8923-1.25335A.29322.29322,0,0,0,174.91111,321.87435Zm-.11,1.46984-2.35754,1.996a3.57661,3.57661,0,0,1-5.57927-1.12753,4.99462,4.99462,0,0,1-.60123-1.93188,4.90578,4.90578,0,0,1,.20935-1.995q.22137.49222.45292.97293a.53972.53972,0,0,0,.27434.27579.40849.40849,0,0,0,.34872-.009.43171.43171,0,0,0,.15046-.12976.56054.56054,0,0,0,.09012-.18944.60326.60326,0,0,0,.01572-.2204.63477.63477,0,0,0-.05952-.21242q-.377-.7853-.72634-1.602a3.80211,3.80211,0,0,1,1.29954-1.18485,3.52131,3.52131,0,0,1,2.7726-.31745q-.52226,1.20539-.98931,2.45575a1.5302,1.5302,0,0,0-.77736.27816,1.71874,1.71874,0,0,0-.55592.67533,1.95625,1.95625,0,0,0-.18143.9057,1.97681,1.97681,0,0,0,.25.8956,1.67449,1.67449,0,0,0,.60917.63234,1.42321,1.42321,0,0,0,.79807.19819,1.51777,1.51777,0,0,0,.7803-.2709,1.81768,1.81768,0,0,0,.56537-.65l-.00781.03368q1.42936.06129,2.842-.01267Q174.61033,323.08028,174.80112,323.34419Zm-4.00029-1.83434a.82049.82049,0,0,1,.0992.4236.839.839,0,0,1-.12809.41976.7324.7324,0,0,1-.31744.2799.62616.62616,0,0,1-.40134.03823.679.679,0,0,1-.35-.22075.80612.80612,0,0,1-.17869-.40691.83869.83869,0,0,1,.05762-.44836.73348.73348,0,0,1,.27023-.33448.64123.64123,0,0,1,.52427-.09053A.69477.69477,0,0,1,170.80083,321.50985Z"/><path class="cls-23" d="M173.57684,319.60932a4.28709,4.28709,0,0,1,.499,2.23055c-.27731.00015-.59366-.00492-.90083-.01413a3.30616,3.30616,0,0,0-.404-1.68063,3.0057,3.0057,0,0,0-1.17072-1.18366q.19591-.46456.39978-.92237A3.92188,3.92188,0,0,1,173.57684,319.60932Z"/><path class="cls-12" d="M258.35973,311.883V350l-9.77769-.0574V300.76591a66.779,66.779,0,0,0-.6888-9.57676c-.04783-.3444-.10529-.68881-.15311-1.03327l1.16722,1.01412A27.42883,27.42883,0,0,1,258.35973,311.883Z"/><path class="cls-20" d="M88.68575,290.06023a52.2552,52.2552,0,0,0-6.19951,24.85552V349.9426H65.02613v-27.287a34.11916,34.11916,0,0,1,20.97125-31.476Z"/><path class="cls-24" d="M175,0A175,175,0,1,0,350,175,174.9998,174.9998,0,0,0,175,0Zm0,345A170,170,0,1,1,345,175,169.996,169.996,0,0,1,175,345Z"/></g></svg>