<svg id="Layer_1" data-name="Layer 1" xmlns="http://www.w3.org/2000/svg" xmlns:xlink="http://www.w3.org/1999/xlink" viewBox="0 0 350 350"><defs><style>.cls-1{fill:none;}.cls-2{clip-path:url(#clip-path);}.cls-3{fill:#6f3ff5;}.cls-4{clip-path:url(#clip-path-2);}.cls-5{fill:#001d47;}.cls-6{fill:#5bf1cd;}.cls-7{fill:#fff;}.cls-8{fill:#c9b8ff;}.cls-9{fill:#ffe48d;}.cls-10{fill:#ffdb4c;}.cls-11{fill:#fff8db;}.cls-12{fill:#ffeea8;}.cls-13{fill:#fc0;}.cls-14{fill:#c4c1cf;}.cls-15{fill:#dddce2;}.cls-16{fill:#0fa57e;}.cls-17{fill:#00e7b4;}.cls-18{fill:#11bc92;}.cls-19{fill:#b6fff0;}.cls-20{fill:#f3587d;}.cls-21{fill:#8c65f7;}.cls-22{fill:#a7a2b6;}.cls-23{fill:#f579a6;}.cls-24{fill:#0e0333;}.cls-25{fill:#02e1ab;}</style><clipPath id="clip-path"><rect class="cls-1" x="-400" width="350" height="350" rx="174.99982"/></clipPath><clipPath id="clip-path-2"><rect class="cls-1" width="350" height="350" rx="174.99982"/></clipPath></defs><g class="cls-2"><polygon class="cls-3" points="26.667 302.222 4.971 282.009 10.87 264.722 8.168 236.945 -100.443 108.836 -90.214 175.194 -123.947 149.566 -103.632 243.8 -110.222 264.889 -139.852 271.407 -155.259 309.333 -103.704 371.556 -78.93 358.381 -68.203 408.143 -29.583 383.267 -8.266 320.8 26.667 302.222"/></g><g class="cls-4"><rect class="cls-5" width="350" height="350" rx="174.99982"/><path class="cls-3" d="M44.51843,251.95009l-.60374-5.84162-.51894.05365.60374,5.84159Zm-2.90632-23.68236.60377,5.84165.51894-.05365-.60377-5.84162Zm1.12271,5.788-.60377-5.84162-.51894.05362.60377,5.84165Zm6.3384,5.83082,5.84159-.60377-.05363-.51894-5.84162.60374Zm5.788-1.12271-5.84162.60374.05366.519,5.84159-.60377Zm-23.529,2.84346,5.84162-.60374-.05365-.51894-5.84159.60374Zm5.788-1.12268-5.84159.60374.05362.51894,5.84162-.60374ZM45.855,242.499l8.74045,7.3416.33553-.39947-8.74042-7.3416Zm9.076,6.94213-8.74042-7.3416-.33556.39947,8.74045,7.3416ZM31.5062,230.651l8.74049,7.34158.33556-.3995-8.74049-7.34158Zm9.07605,6.94208-8.74049-7.34158-.33556.3995,8.74049,7.34158Zm4.98123-.2286,7.3416-8.74049-.3995-.33553L45.164,237.02892Zm6.9421-9.076L45.164,237.02892l.39947.33556,7.3416-8.74049ZM33.71545,251.71321l7.34158-8.74046-.39947-.33556-7.3416,8.74046Zm6.94211-9.076-7.3416,8.74046.39949.33556,7.34158-8.74046Z"/><path class="cls-6" d="M39.61812,238.88984a3.47986,3.47986,0,1,1,1.86665,4.55348A3.47991,3.47991,0,0,1,39.61812,238.88984Z"/><path class="cls-3" d="M46.27892,241.67742a3.74073,3.74073,0,0,0-2.00654-4.89487l-.2014.48127a3.219,3.219,0,0,1,1.7267,4.21219ZM41.38408,243.684a3.74071,3.74071,0,0,0,4.89484-2.00654l-.48124-.20141a3.219,3.219,0,0,1-4.21219,1.72668Zm-2.00657-4.89484a3.74075,3.74075,0,0,0,2.00657,4.89484l.20141-.48127a3.219,3.219,0,0,1-1.72671-4.21216Zm4.89487-2.00657a3.74074,3.74074,0,0,0-4.89487,2.00657l.48127.20141a3.219,3.219,0,0,1,4.2122-1.72671Z"/><path class="cls-3" d="M310.6116,224.70269l-.60374-5.84162-.51894.05366.60374,5.84158Zm-2.90632-23.68235.60377,5.84165.51894-.05366-.60377-5.84162Zm1.12271,5.788-.60377-5.84162-.51894.05363.60377,5.84165Zm6.3384,5.83083,5.84158-.60377-.05362-.519-5.84162.60374Zm5.788-1.12272-5.84162.60374.05366.519,5.84158-.60377Zm-23.529,2.84347,5.84162-.60374-.05365-.51894-5.84159.60374Zm5.788-1.12268-5.84159.60374.05362.51894,5.84162-.60374Zm8.73479,2.0144,8.74045,7.34161.33553-.39947-8.74043-7.3416Zm9.076,6.94214-8.74043-7.3416-.33555.39946,8.74045,7.34161Zm-23.42475-18.79016,8.74049,7.34157.33556-.3995-8.74049-7.34157Zm9.076,6.94207-8.74049-7.34157-.33556.3995,8.74049,7.34157Zm4.98123-.2286,7.3416-8.74049-.3995-.33552-7.34157,8.74045Zm6.9421-9.076-7.34157,8.74045.39947.33556,7.3416-8.74049Zm-18.79013,23.42474,7.34158-8.74045-.39947-.33556-7.34161,8.74045Zm6.94211-9.076-7.34161,8.74045.3995.33556,7.34158-8.74045Z"/><path class="cls-7" d="M305.71129,211.64245a3.47986,3.47986,0,1,1,1.86665,4.55348A3.47992,3.47992,0,0,1,305.71129,211.64245Z"/><path class="cls-3" d="M312.37209,214.43a3.74072,3.74072,0,0,0-2.00654-4.89487l-.2014.48127a3.219,3.219,0,0,1,1.7267,4.21219Zm-4.89484,2.00654a3.74073,3.74073,0,0,0,4.89484-2.00654l-.48124-.20141a3.219,3.219,0,0,1-4.21219,1.72667Zm-2.00657-4.89484a3.74075,3.74075,0,0,0,2.00657,4.89484l.20141-.48128a3.219,3.219,0,0,1-1.72671-4.21216Zm4.89487-2.00657a3.74074,3.74074,0,0,0-4.89487,2.00657l.48127.2014a3.219,3.219,0,0,1,4.2122-1.7267Z"/><path class="cls-3" d="M233.98964,57.32355l-3.4373-4.76172-.423.30537,3.43728,4.7617ZM219.657,38.248l3.43734,4.76173.423-.30537L220.08,37.94266Zm3.86033,4.45636L220.08,37.94266l-.423.30535,3.43734,4.76173Zm8.40211,1.89168,4.76168-3.43731-.30535-.423L231.61407,44.173Zm4.45633-3.86032L231.61407,44.173l.30539.423,4.76168-3.43731Zm-18.974,14.20163,4.76172-3.4373-.30537-.423-4.7617,3.43728Zm4.45635-3.8603-4.7617,3.43728.30535.423,4.76172-3.4373Zm8.57525-2.6114L241.671,50.46848l.09153-.51359L230.525,47.95206Zm11.32912,1.48923L230.525,47.95206l-.09156.5136L241.671,50.46848Zm-29.67538-4.60008,11.2376,2.00278.09154-.51363-11.2376-2.00278ZM223.41631,46.844l-11.2376-2.00278-.09154.51363,11.2376,2.00278Zm4.20316-2.683,2.00281-11.23762-.51362-.09151-2.00279,11.23757Zm1.48919-11.32913-2.00279,11.23757.5136.09156,2.00281-11.23762Zm-4.6,29.67536,2.00279-11.23757-.51361-.09156L223.995,62.41568Zm1.48918-11.32913L223.995,62.41568l.51363.09154,2.00279-11.23757Z"/><path class="cls-8" d="M223.22758,48.4488a3.47987,3.47987,0,1,1,3.88928,3.01531A3.47993,3.47993,0,0,1,223.22758,48.4488Z"/><path class="cls-3" d="M230.391,47.54209a3.74073,3.74073,0,0,0-4.18082-3.2414l.06552.51758a3.219,3.219,0,0,1,3.59774,2.78933Zm-3.24138,4.18081a3.74073,3.74073,0,0,0,3.24138-4.18081l-.51756.06551a3.219,3.219,0,0,1-2.78934,3.59771Zm-4.18083-3.24137a3.74074,3.74074,0,0,0,4.18083,3.24137l-.06552-.51759a3.219,3.219,0,0,1-3.59773-2.7893Zm3.24139-4.18084a3.74073,3.74073,0,0,0-3.24139,4.18084l.51758-.06552a3.219,3.219,0,0,1,2.78933-3.59774Z"/><path class="cls-3" d="M285.15533,81.4119l2.22124,11.169.32021-.06369-2.22123-11.169Zm7.0054,4.31625L280.63147,87.88l.05991.32095,11.52926-2.15183Zm-11.46935,2.47278,11.52926-2.15183-.05991-.32095L280.63147,87.88Z"/><path class="cls-3" d="M19.33,159.28434l6.16694,6.71025.19238-.17681-6.16693-6.71025Zm6.58511.03477-6.98542,6.26945.17453.19446,6.98542-6.26945ZM19.10425,165.783l6.98542-6.26945-.17453-.19446-6.98542,6.26945Z"/><path class="cls-3" d="M326.24363,143.428l-4.90041,10.27938.29471.1405,4.90042-10.27939Zm3.03244,7.64919-10.52661-5.17154-.144.293,10.52661,5.17154Zm-10.67057-4.8785,10.52661,5.17154.144-.293-10.52661-5.17154Z"/><path class="cls-3" d="M61.95716,108.88925,73.7234,126.28783l.49882-.33734L62.456,108.5519Zm14.99718,2.32624-18.06074,11.906.33143.50277,18.06075-11.906ZM59.225,123.62425l18.06075-11.906-.33144-.50276-18.06074,11.906Z"/><path class="cls-3" d="M251.51214,263.93392l7.01472,10.37256.29737-.20111-7.01471-10.37257Zm8.94091,1.38684-10.76732,7.098.19759.29974,10.76733-7.098Zm-10.56973,7.39777,10.76733-7.098-.1976-.29974-10.76732,7.098Z"/><path class="cls-6" d="M147.22878,57.07464c15.68736,13.00127,26.41367,26.01271,23.96345,29.00865s-17.32535-5.1437-33.01268-18.145-26.41368-26.01276-23.96346-29.0087C116.76353,35.90916,131.54145,44.07338,147.22878,57.07464ZM103.59527,30.02737c-3.39633,4.16508,11.42508,21.93415,33.00744,39.85948,21.67957,17.90082,41.984,29.11751,45.38028,24.95244s-11.425-21.93408-33.00743-39.85947C127.32047,37.17621,107.01609,25.9595,103.59527,30.02737Z"/><path class="cls-3" d="M147.38227,56.88944A146.76646,146.76646,0,0,0,125.911,41.78322a37.37277,37.37277,0,0,0-7.60453-3.35307,8.32661,8.32661,0,0,0-2.59815-.36143,2.27491,2.27491,0,0,0-1.67605.70582l.36774.31014a1.80539,1.80539,0,0,1,1.33691-.53575,7.86607,7.86607,0,0,1,2.44267.34528,36.91993,36.91993,0,0,1,7.49941,3.31047,146.29831,146.29831,0,0,1,21.39632,15.05517ZM171.37841,86.2356a2.2276,2.2276,0,0,0,.36947-1.75759,8.36249,8.36249,0,0,0-.84433-2.469,37.76607,37.76607,0,0,0-4.706-6.8312,146.72789,146.72789,0,0,0-18.81532-18.28838l-.307.37041a146.25929,146.25929,0,0,1,18.75131,18.22428,37.31811,37.31811,0,0,1,4.64519,6.737,7.90359,7.90359,0,0,1,.79927,2.32071,1.75906,1.75906,0,0,1-.265,1.38918ZM138.02606,68.12352a145.82369,145.82369,0,0,0,21.508,15.09709,37.78142,37.78142,0,0,0,7.60857,3.35169,8.31687,8.31687,0,0,0,2.58486.3649,2.20035,2.20035,0,0,0,1.65091-.7016L171.006,85.931a1.73175,1.73175,0,0,1-1.30623.52584,7.85586,7.85586,0,0,1-2.42976-.34847,37.33545,37.33545,0,0,1-7.50449-3.3095A145.35514,145.35514,0,0,1,138.333,67.75311ZM114.0299,38.77731a2.22757,2.22757,0,0,0-.36946,1.75758,8.36287,8.36287,0,0,0,.84432,2.469,37.7669,37.7669,0,0,0,4.706,6.8312,146.732,146.732,0,0,0,18.81533,18.28843l.307-.37041a146.266,146.266,0,0,1-18.75131-18.22428,37.31958,37.31958,0,0,1-4.6452-6.73708,7.90311,7.90311,0,0,1-.79927-2.32071,1.759,1.759,0,0,1,.265-1.38918Zm-10.25053-8.5951a2.49858,2.49858,0,0,1,1.87222-.74057,10.971,10.971,0,0,1,3.36778.49653,51.78433,51.78433,0,0,1,10.31218,4.57433c8.194,4.512,18.67151,11.75774,29.49124,20.65313l.30553-.37162C138.293,45.88578,127.79073,38.62133,119.5636,34.09109a52.23383,52.23383,0,0,0-10.41527-4.61641,11.43044,11.43044,0,0,0-3.52158-.51347,2.96733,2.96733,0,0,0-2.2156.91133Zm32.977,39.51962c-10.78354-8.95636-19.87289-17.86951-25.83935-25.05846a51.1702,51.1702,0,0,1-6.41653-9.258,10.85858,10.85858,0,0,1-1.10885-3.21639,2.52311,2.52311,0,0,1,.39-1.98958l-.37284-.304a2.99251,2.99251,0,0,0-.49405,2.35709,11.31954,11.31954,0,0,0,1.15434,3.36578,51.61843,51.61843,0,0,0,6.47775,9.35238c5.99076,7.2182,15.1033,16.15221,25.90214,25.12124Zm45.04018,24.98545a2.48159,2.48159,0,0,1-1.86425.76982,10.733,10.733,0,0,1-3.36057-.47419A50.90143,50.90143,0,0,1,166.2651,90.427c-8.19379-4.51188-18.67728-11.78172-29.50924-20.72569l-.3063.371c10.84763,8.95691,21.35612,16.24577,29.58351,20.77619a51.3515,51.3515,0,0,0,10.41154,4.5984,11.19241,11.19241,0,0,0,3.51734.49031,2.95113,2.95113,0,0,0,2.20745-.94593ZM148.82188,55.16489c10.78352,8.9563,19.87284,17.86946,25.8393,25.05842a51.16915,51.16915,0,0,1,6.41653,9.258,10.85868,10.85868,0,0,1,1.10888,3.21639,2.523,2.523,0,0,1-.39,1.98957l.37281.304a2.99241,2.99241,0,0,0,.49408-2.35709,11.31959,11.31959,0,0,0-1.15434-3.36579,51.62291,51.62291,0,0,0-6.47775-9.35238c-5.99076-7.21819-15.1033-16.15221-25.90214-25.12124ZM114.03223,38.77454l-.00235.00277.18621.15231Zm-10.62108-8.902-.00231.00283.18643.152ZM136.449,70.07186l.00054.00047.15315-.18548ZM149.12925,54.7948l-.00093-.00079-.15276.18581Z"/><path class="cls-9" d="M124.98233,47.58836a23.24219,23.24219,0,1,0,35.808,29.64092"/><path class="cls-3" d="M127.91051,80.49758a23.4895,23.4895,0,0,0,33.06562-3.11552l-.37159-.30554A23.00847,23.00847,0,0,1,128.216,80.126Zm-3.114-33.062a23.483,23.483,0,0,0,3.114,33.062l.3055-.37162a23.002,23.002,0,0,1-3.0479-32.38483Z"/><path class="cls-3" d="M182.20939,95.01732a2.98056,2.98056,0,0,0,.50746-2.3523,11.28231,11.28231,0,0,0-1.14031-3.36974,51.31794,51.31794,0,0,0-6.45219-9.37445c-5.977-7.23542-15.08521-16.18675-25.90755-25.14271l-.30676.3706C159.71635,64.0914,168.801,73.02149,174.7534,80.22719a50.87166,50.87166,0,0,1,6.39092,9.27931,10.82361,10.82361,0,0,1,1.09534,3.21974,2.51115,2.51115,0,0,1-.40091,1.98439ZM136.507,70.13295c10.82235,8.956,21.31966,16.2291,29.54577,20.74736a51.3285,51.3285,0,0,0,10.41646,4.58511,11.28474,11.28474,0,0,0,3.5239.49011,2.98127,2.98127,0,0,0,2.21626-.93821l-.37064-.30669a2.51192,2.51192,0,0,1-1.87467.76475,10.82609,10.82609,0,0,1-3.36811-.474,50.88025,50.88025,0,0,1-10.31155-4.54276C158.0921,85.959,147.62007,78.705,136.81376,69.76235ZM103.51437,29.89376a2.98045,2.98045,0,0,0-.50745,2.35229,11.2834,11.2834,0,0,0,1.14028,3.36975,51.31936,51.31936,0,0,0,6.45223,9.37438c5.977,7.23548,15.08521,16.18675,25.90757,25.14277l.30676-.3706c-10.80633-8.94274-19.891-17.87277-25.8434-25.07852a50.87125,50.87125,0,0,1-6.39091-9.27925,10.82246,10.82246,0,0,1-1.09534-3.21974,2.51123,2.51123,0,0,1,.40088-1.98439ZM149.2168,54.77812c-10.82237-8.956-21.31969-16.2291-29.54581-20.74736a51.32813,51.32813,0,0,0-10.41647-4.58516,11.28764,11.28764,0,0,0-3.52392-.49011,2.98149,2.98149,0,0,0-2.21623.93827l.37062.30669a2.512,2.512,0,0,1,1.8747-.76475,10.826,10.826,0,0,1,3.36811.474,50.88245,50.88245,0,0,1,10.31156,4.54269c8.1923,4.49972,18.66435,11.75361,29.47068,20.69635Z"/><path class="cls-3" d="M177.03414,90.73446a2.61082,2.61082,0,0,0,.44509-2.06318,9.82534,9.82534,0,0,0-.9948-2.93162,44.63992,44.63992,0,0,0-5.60729-8.13735,175.29335,175.29335,0,0,0-22.49145-21.82015l-.30676.3706a174.82741,174.82741,0,0,1,22.42739,21.75606,44.192,44.192,0,0,1,5.546,8.04239,9.36629,9.36629,0,0,1,.94976,2.78181,2.14183,2.14183,0,0,1-.33859,1.69475Zm-39.696-21.60569a175.30368,175.30368,0,0,0,25.64279,18.013,44.64516,44.64516,0,0,0,9.04307,3.98649,9.82774,9.82774,0,0,0,3.06626.42908,2.61125,2.61125,0,0,0,1.94386-.82289l-.37062-.30669a2.1423,2.1423,0,0,1-1.60174.64941,9.3685,9.3685,0,0,1-2.91064-.41285,44.20054,44.20054,0,0,1-8.93838-3.94409,174.83291,174.83291,0,0,1-25.56784-17.96207Zm-28.64845-34.9523a2.61082,2.61082,0,0,0-.44509,2.06318,9.82575,9.82575,0,0,0,.99483,2.93161,44.64141,44.64141,0,0,0,5.60726,8.13736,175.29667,175.29667,0,0,0,22.49145,21.82015l.30676-.3706a174.83073,174.83073,0,0,1-22.42739-21.75606,44.19351,44.19351,0,0,1-5.546-8.0424,9.36458,9.36458,0,0,1-.94976-2.78181,2.1417,2.1417,0,0,1,.33859-1.69474Zm39.696,21.60569a175.30191,175.30191,0,0,0-25.64279-18.013,44.64467,44.64467,0,0,0-9.04306-3.9865,9.828,9.828,0,0,0-3.06627-.42908,2.6113,2.6113,0,0,0-1.94386.82289l.37065.30669a2.14226,2.14226,0,0,1,1.60175-.64942,9.36846,9.36846,0,0,1,2.91061.41286,44.19921,44.19921,0,0,1,8.93837,3.94409,174.8313,174.8313,0,0,1,25.56784,17.96207Z"/><path class="cls-3" d="M171.54992,86.19605a2.21093,2.21093,0,0,0,.376-1.75385,8.285,8.285,0,0,0-.84342-2.46395,37.655,37.655,0,0,0-4.71638-6.82064A147.96187,147.96187,0,0,0,147.49065,56.8635l-.30676.3706a147.49277,147.49277,0,0,1,18.81178,18.23041,37.20524,37.20524,0,0,1,4.65525,6.72637,7.82454,7.82454,0,0,1,.79806,2.3146,1.74209,1.74209,0,0,1-.2697,1.38388ZM138.23324,68.04748a147.96646,147.96646,0,0,0,21.50245,15.12041,37.65935,37.65935,0,0,0,7.58292,3.35755,8.28723,8.28723,0,0,0,2.57851.36784,2.2115,2.2115,0,0,0,1.6528-.69723l-.37064-.30669a1.74267,1.74267,0,0,1-1.30918.52362,7.82649,7.82649,0,0,1-2.42328-.35121,37.21184,37.21184,0,0,1-7.47883-3.31511A147.5,147.5,0,0,1,138.54,67.67688ZM114.174,38.71494a2.2109,2.2109,0,0,0-.376,1.75384,8.28508,8.28508,0,0,0,.84341,2.464,37.65556,37.65556,0,0,0,4.71636,6.82064,147.95679,147.95679,0,0,0,18.8755,18.2941l.30676-.3706a147.49279,147.49279,0,0,1-18.81178-18.2304,37.20586,37.20586,0,0,1-4.65527-6.72637,7.82586,7.82586,0,0,1-.79807-2.3146,1.74219,1.74219,0,0,1,.26971-1.38388ZM147.49065,56.8635a147.96831,147.96831,0,0,0-21.50244-15.12041,37.65886,37.65886,0,0,0-7.58295-3.35754,8.28714,8.28714,0,0,0-2.57848-.36785,2.21139,2.21139,0,0,0-1.6528.69724l.37061.30669a1.74264,1.74264,0,0,1,1.30921-.52363,7.82694,7.82694,0,0,1,2.42324.35121,37.211,37.211,0,0,1,7.47886,3.31511,147.50245,147.50245,0,0,1,21.428,15.06978Z"/><path class="cls-9" d="M160.81484,77.32643a23.24217,23.24217,0,1,0-35.808-29.64087"/><path class="cls-3" d="M157.88665,44.41728A23.48956,23.48956,0,0,0,124.821,47.5328l.3716.30554a23.0085,23.0085,0,0,1,32.38852-3.04944Zm3.114,33.062a23.483,23.483,0,0,0-3.114-33.062l-.30551.37162A23.00185,23.00185,0,0,1,160.629,77.17366Z"/><circle class="cls-9" cx="305.44068" cy="265.69603" r="29.56381" transform="translate(38.90662 570.40569) rotate(-89.84261)"/><path class="cls-3" d="M330.85724,249.57426a30.09509,30.09509,0,0,0-41.53639-9.298l.57544.90744a29.02079,29.02079,0,0,1,40.05352,8.96611Zm-9.29693,41.54151a30.10318,30.10318,0,0,0,9.29693-41.54151l-.90743.57557a29.02856,29.02856,0,0,1-8.96494,40.05851Zm-41.53639-9.298a30.09512,30.09512,0,0,0,41.53639,9.298l-.57544-.90743a29.02077,29.02077,0,0,1-40.05352-8.96612Zm9.29693-41.54151a30.1033,30.1033,0,0,0-9.29693,41.54151l.90743-.57557a29.02855,29.02855,0,0,1,8.96494-40.0585Z"/><path class="cls-9" d="M334.62694,261.62884c-1.11967-.224-1.79139-1.11986-2.91106-1.56774-2.01542-.89589-4.25476-.67192-6.49422-.224s-4.25476,1.34377-6.49409,1.34377c-4.47867.224-8.50952-2.68754-12.09242-5.59906s-7.38986-5.823-11.86865-6.271a33.89136,33.89136,0,0,0-6.718.44795c-2.23933.224-4.7027.224-6.49409-1.11987"/><path class="cls-3" d="M287.995,249.22417c-2.2392.224-4.50778.193-6.11829-1.015l-.6447.85962c1.9724,1.47953,4.63043,1.44857,6.8699,1.2246Zm6.825-.44788a34.25393,34.25393,0,0,0-6.825.44788l.10691,1.06923a33.54449,33.54449,0,0,1,6.61122-.44794Zm12.15394,6.38856c-3.56559-2.89734-7.49151-5.92225-12.15394-6.38856l-.10691,1.06917c4.2949.42958,7.98274,3.22769,11.58322,6.15331Zm11.72685,5.47943c-4.24571.2123-8.12414-2.55184-11.72685-5.47943l-.67763.83392c3.56323,2.89551,7.74624,5.95432,12.45813,5.71874Zm6.41552-1.334c-1.13974.228-2.24878.5761-3.27846.8471a12.14914,12.14914,0,0,1-3.1103.48624v1.07455a13.19457,13.19457,0,0,0,3.38379-.5216c1.09776-.2889,2.11616-.61269,3.21576-.8326Zm6.81769.25985c-2.17952-.96882-4.56472-.71048-6.81769-.25985l.21079,1.05369c2.22569-.44519,4.31916-.63486,6.1705.188Zm2.79838,1.53187a3.39153,3.39153,0,0,1-1.25661-.61578,7.88488,7.88488,0,0,0-1.5604-.924l-.39915.99768a6.9422,6.9422,0,0,1,1.35079.81174,4.42361,4.42361,0,0,0,1.65458.784Zm-16.00483-.45838h-.01338l-.01338.00066.02676.53662Zm12.77-.09162.00931.00413.00931.00381.19964-.49884Z"/><path class="cls-6" d="M279.31508,276.85832a35.83685,35.83685,0,0,0,5.15051.67192h1.34358c2.46324.224,5.15051.44795,7.38985,2.01569a19.33956,19.33956,0,0,1,3.13509,2.91145q1.00778,1.00788,2.01543,2.01569a8.95233,8.95233,0,0,0,5.82237,2.23966,30.345,30.345,0,0,0,4.47866-.448l1.11967-.224a16.00906,16.00906,0,0,1,6.49409.224,7.22451,7.22451,0,0,1,4.25476,3.80734,27.06437,27.06437,0,0,0,9.62918-9.85434h-2.68715a38.90314,38.90314,0,0,1-8.73355-1.11979,20.73828,20.73828,0,0,1-4.47867-1.79172,22.61125,22.61125,0,0,1-3.5829-2.91151c-1.56762-1.56775-3.1351-2.91152-5.15052-3.35946a9.693,9.693,0,0,0-3.583.224h-.67172a52.80335,52.80335,0,0,1-10.301.224,11.40234,11.40234,0,0,1-4.7027-1.34377c-.89576-.67191-1.56748-1.56774-2.46324-2.23966a3.09456,3.09456,0,0,1-.67185-.89582,12.87506,12.87506,0,0,0-6.27019-3.80741A29.05021,29.05021,0,0,0,279.31508,276.85832Z"/><path class="cls-6" d="M276.31509,263.16976a29.58579,29.58579,0,0,0,2.51439,13.91857l.97106-.45995a28.51636,28.51636,0,0,1-2.41222-13.40491Zm7.2112,3.48046a13.41163,13.41163,0,0,0-6.53318-3.97195l-.28268,1.0367a12.33989,12.33989,0,0,1,6.00719,3.64278Zm.64732.86973a2.57018,2.57018,0,0,1-.57111-.7562l-.96109.48048a3.61674,3.61674,0,0,0,.77246,1.03552Zm2.40579,2.18968a11.19947,11.19947,0,0,1-1.17411-1.06989,12.1928,12.1928,0,0,0-1.28913-1.1697l-.64483.85962a11.18729,11.18729,0,0,1,1.1741,1.06988,12.19376,12.19376,0,0,0,1.28927,1.16971Zm4.45623,1.24172a10.93531,10.93531,0,0,1-4.4805-1.2589l-.59617.894a11.87551,11.87551,0,0,0,4.92465,1.42857Zm10.154-.22463a52.27574,52.27574,0,0,1-10.19427.22043l-.07148,1.07219a53.3425,53.3425,0,0,0,10.4078-.22752Zm.74281-.00472h-.67172v1.07454h.67172Zm3.68837-.21354a10.18443,10.18443,0,0,0-3.7937.224l.21079,1.05369a9.20772,9.20772,0,0,1,3.37212-.224Zm5.425,3.50643a11.38253,11.38253,0,0,0-5.41377-3.50407l-.23322,1.049c1.85146.41148,3.324,1.65143,4.88713,3.21485Zm3.50106,2.84435a22.07529,22.07529,0,0,1-3.50106-2.84435l-.75986.75974a23.14685,23.14685,0,0,0,3.66488,2.97867Zm4.311,1.71748a20.22538,20.22538,0,0,1-4.36874-1.751l-.48061.96108a21.25238,21.25238,0,0,0,4.58872,1.83238Zm8.60317,1.10379a38.36446,38.36446,0,0,1-8.61261-1.10609l-.24175,1.04706a39.4321,39.4321,0,0,0,8.85436,1.13358Zm2.23934,0h-2.23934v1.07455h2.23934Zm.44781,0h-.44781v1.07455h.44781Zm-9.349,10.85a27.60105,27.60105,0,0,0,9.81872-10.05188l-.93931-.52179a26.52763,26.52763,0,0,1-9.43977,9.65679Zm-4.70481-3.75612a6.68892,6.68892,0,0,1,3.93077,3.50932l.98771-.42322a7.761,7.761,0,0,0-4.57862-4.10548Zm-6.26493-.19964a15.50516,15.50516,0,0,1,6.28041.20456l.30878-1.02916a16.51613,16.51613,0,0,0-6.70777-.24338Zm-1.07363.21683,1.11967-.224-.21079-1.05368-1.11967.224Zm-4.584.45837a30.83145,30.83145,0,0,0,4.55461-.45332l-.152-1.06379a29.86646,29.86646,0,0,1-4.40258.44257Zm-6.17207-2.369a9.48939,9.48939,0,0,0,6.17207,2.369v-1.07454a8.41593,8.41593,0,0,1-5.47268-2.11027Zm-2.0456-2.04369c.16869.16875.335.33508.50382.50389l.063.063c.01731.01732-.00945-.00938.00787.00794l.00393.00393.00394.00394.00787.00787.00787.00787.03148.03148.00787.00787.00787.00787.00393.00394.00394.00393.00393.00394.00394.00393.01574.01574.00393.00394.00394.00393.00393.00394.00394.00393.03148.03155.03148.03148.12606.126.01574.01574c.01993.01994-.01207-.01214.00787.00787.01928.01928-.01142-.01148.00787.00787l.03148.03148.00787.00787.00393.00393.00394.00394.01574.01574.03148.03155.01574.01574.00393.00393.00394.00394c.01521.01515-.00735-.00735.00787.00787l.03148.03148.03148.03148.01574.01574.01574.01574.063.063.03162.03148.03148.03148.063.063.063.063.03148.03148c.0366.03666-.00512-.00512.03148.03148l.063.063c.16882.16881.33514.33513.50383.50388l.75986-.75973c-.16868-.16882-.335-.33514-.50382-.504l-.063-.063c-.01732-.01725.00944.00938-.00787-.00787l-.00394-.00393-.00393-.00394c-.02886-.02886.021.021-.00787-.00787l-.00787-.00787-.03148-.03148c-.01128-.01128.00341.00335-.00787-.00794l-.00787-.00787-.00394-.00393-.00393-.00394-.00394-.00393-.00393-.00394-.01574-.01574-.00394-.00393-.00393-.00394-.00394-.00393-.00394-.00394-.03148-.03148-.03148-.03148-.126-.126-.01574-.01574c-.01994-.02.01207.01207-.00787-.00787-.01928-.01935.01141.01141-.00787-.00787l-.03148-.03154-.00787-.00787-.00394-.00394-.00393-.00393-.01574-.01574-.03148-.03149-.01574-.01574-.00394-.00393-.00393-.00394c-.01522-.01515.00721.00728-.00787-.00787l-.03149-.03148-.03148-.03154-.01574-.01574-.01574-.01574-.063-.063-.03161-.03154-.03148-.03148-.063-.063-.063-.063-.03149-.03148c-.03659-.0366.00512.00511-.03148-.03148l-.063-.063-.504-.504Zm-3.09089-2.8719a18.852,18.852,0,0,1,3.05115,2.82757l.83922-.6712a19.8321,19.8321,0,0,0-3.219-2.9954Zm-7.10285-1.90013c2.49131.22654,5.02788.4488,7.1304,1.92073l.61624-.88022c-2.37615-1.66356-5.21414-1.88924-7.64931-2.11065Zm-1.29491.00223h1.34358V276.993h-1.34358Zm-5.29821-.69257a14.54264,14.54264,0,0,0,2.58719.43811c.89458.08657,1.756.13923,2.64439.25033l.13327-1.06628c-.90311-.11287-1.83336-.17222-2.67416-.25361a13.50528,13.50528,0,0,1-2.39543-.40178Zm-2.17427-14.69667-.64457-.17584-.03345.66733.53661.02682Zm6.60939,4.08548-.03083-.06165-.04538-.05188-.4044.35377Zm-.18863,1.516.02689.02695.03057.023.32241-.42985Zm2.52083,2.2895.0118.00892.01246.00833.298-.447Zm4.94891,1.44582.02006.00289.02021.00138.0358-.5361Zm10.37711-1.29307H301.225l-.03541.00472.07109.53255Zm.67172,1.07454h.05326l.0522-.01042-.10546-.52685Zm3.69965-1.28572-.01128-.0025-.10533.527Zm8.31879,7.24248.02781.01856.02991.01495.2403-.48054Zm4.64644,1.86589.00944.00236.12081-.52356Zm12.02067.85949.44335-.79817h-.91307v.53727Zm-10.59276,9.80508.2445.57046.52954-.32366-.28018-.45844Zm-3.59091-4.5287-.00773-.00256-.00787-.0023-.15439.51458Zm-6.72337-.24824-.02322.00255-.02295.0046.10546.52684Zm-.98443,1.28986.01482-.00217.01456-.00288-.10533-.52685Zm-10.757-1.94375.01469.01463.01561.01344.3497-.40793Zm-2.055-2.06.01862.02328.02112.02105.37987-.37993Zm-2.37982-3.6666-.01338-.01075-.01416-.00984-.30812.44014Zm-7.67685-2.13124-.02427-.00217h-.02439v.53727Zm-1.45887,1.06824.03318.00413h.03345v-.53727Zm-5.56948-.97505.10415.21978.23375.06683.1477-.51662Z"/><path class="cls-9" d="M332.61151,277.30634c-.44781,1.11979-1.79139,1.34377-2.911,1.34377a33.04875,33.04875,0,0,1-10.525-1.1198,21.54872,21.54872,0,0,1-4.03085-1.56781c-3.13509-2.01562-5.37442-5.599-8.95746-6.27091a16.59556,16.59556,0,0,0-4.70257.224,50.55047,50.55047,0,0,1-10.07713.224,13.25031,13.25031,0,0,1-4.25476-1.11986,11.97338,11.97338,0,0,1-2.91118-2.91145,15.34239,15.34239,0,0,0-7.38986-4.25535"/><path class="cls-3" d="M284.62155,265.7283a15.87884,15.87884,0,0,0-7.649-4.39892l-.24161,1.04707a14.80667,14.80667,0,0,1,7.13079,4.11165Zm2.80757,2.83071a11.5013,11.5013,0,0,1-2.76795-2.78644l-.83923.67126a12.45464,12.45464,0,0,0,3.05429,3.03658Zm4.05433,1.04864a12.74211,12.74211,0,0,1-4.09041-1.06851l-.4806.96108a13.76091,13.76091,0,0,0,4.41911,1.17115Zm9.93008-.22463a50.01265,50.01265,0,0,1-9.97035.22043l-.07149,1.07212a51.074,51.074,0,0,0,10.1839-.22745Zm4.84962-.22332a17.0906,17.0906,0,0,0-4.8546.224l.152,1.06373a16.105,16.105,0,0,1,4.55068-.22391Zm9.17205,6.35092a37.70891,37.70891,0,0,1-4.24636-3.59078,10.47118,10.47118,0,0,0-4.90261-2.75634l-.19806,1.05618a9.43767,9.43767,0,0,1,4.39078,2.50679,38.32058,38.32058,0,0,0,4.37517,3.688Zm3.91018,1.51a21.18144,21.18144,0,0,1-3.92434-1.51875l-.55288.9214a21.93667,21.93667,0,0,0,4.13736,1.61674Zm10.3215,1.0933a32.51178,32.51178,0,0,1-10.353-1.10274l-.2769,1.03827a33.58445,33.58445,0,0,0,10.6969,1.13692Zm2.44579-1.007a1.403,1.403,0,0,1-.89051.78715,4.5309,4.5309,0,0,1-1.5217.21885v1.07455a5.57876,5.57876,0,0,0,1.89317-.2851,2.47172,2.47172,0,0,0,1.51685-1.39643Zm-47.4515-11.33426-.01863-.02322-.021-.02105-.38.37993Zm2.21506,3.70784.01771.01063.0185.00918.2403-.48054Zm4.45532,1.191.01994.00288.0202.00132.03581-.536Zm10.224-.22325.005-.00066-.07594-.53189Zm4.73064-1.28462-.01141-.00209-.01167-.00171-.07595.53189Zm8.56789,7.25095.00695.00452.00709.00426.2765-.46073Zm4.1514,1.62552.01561.00518.01587.00426.13851-.5191Zm10.69494.07286h-.01679l-.01679.00105.03358.53623Z"/><path class="cls-3" d="M315.91,287.234a4.87925,4.87925,0,0,1,2.23435,1.36285,4.07407,4.07407,0,0,1,1.16977,2.21389l1.06628-.13327a5.13783,5.13783,0,0,0-1.46149-2.82534,5.94733,5.94733,0,0,0-2.74828-1.66061Zm-5.63257.01272A16.45772,16.45772,0,0,1,315.91,287.234l.26063-1.04248a17.4068,17.4068,0,0,0-6.01191-.01272Zm-5.88166.6752a46.40772,46.40772,0,0,0,5.88888-.676l-.13327-1.06622a45.91227,45.91227,0,0,1-5.75561.66772Zm-6.848-2.59658a10.29269,10.29269,0,0,0,6.848,2.59658v-1.07455a9.21838,9.21838,0,0,1-6.14032-2.33062Zm-4.89513-4.67771a20.41933,20.41933,0,0,1,2.3991,2.211c.77495.80276,1.57876,1.664,2.496,2.46671l.70767-.80859c-.87425-.765-1.63805-1.58349-2.43058-2.40448a21.442,21.442,0,0,0-2.52752-2.32427Zm-6.61962-1.68422a11.85956,11.85956,0,0,1,6.64389,1.70147l.59617-.89406a12.9186,12.9186,0,0,0-7.24006-1.882Zm-7.32033-.69455a25.6383,25.6383,0,0,0,7.32033.69455v-1.07455a24.6704,24.6704,0,0,1-7.01155-.64922Zm31.446,7.90994-.00734.00079.06663.53314Zm-16.86137-6.3908-.01193-.00891-.01233-.00827-.298.447Z"/><path class="cls-9" d="M329.47655,248.639a31.97519,31.97519,0,0,1-6.49409.67186,13.05169,13.05169,0,0,1-6.49409-1.34377c-1.56761-.67192-2.91119-2.01569-4.70271-2.46357-3.13509-1.11986-6.718-.224-9.85309-1.56774-2.68728-1.1198-4.7027-3.35946-6.49409-5.59912"/><path class="cls-3" d="M302.13917,243.43977c-2.54942-1.06241-4.49166-3.20153-6.28121-5.43876l-.83909.67126c1.79348,2.242,3.8821,4.58216,6.707,5.75934Zm9.82725,1.55771a17.52486,17.52486,0,0,0-5.08048-.73055,13.5489,13.5489,0,0,1-4.74166-.82506l-.42342.98765a14.555,14.555,0,0,0,5.11143.91064,16.56341,16.56341,0,0,1,4.77275.66923Zm4.73365,2.4757a16.56078,16.56078,0,0,1-2.19276-1.27654,8.971,8.971,0,0,0-2.59126-1.21444l-.26064,1.04247a7.939,7.939,0,0,1,2.27934,1.08124,17.39711,17.39711,0,0,0,2.34191,1.35492Zm6.28239,1.30035a12.5297,12.5297,0,0,1-6.2332-1.27615l-.52179.93931a13.57438,13.57438,0,0,0,6.755,1.41139Zm6.38876-.66142a31.43862,31.43862,0,0,1-6.38876.66142v1.07455a32.50714,32.50714,0,0,0,6.59955-.68235Zm-27.22694-4.67024-.005-.0021-.20673.496Zm9.46076,2.56752.02479.00886.02558.00642.13025-.5212Zm5.14422,1.488-.024-.01331-.02519-.01089-.2117.49386Z"/><path class="cls-3" d="M330.85724,249.57426a30.09509,30.09509,0,0,0-41.53639-9.298l.57544.90744a29.02079,29.02079,0,0,1,40.05352,8.96611Zm-9.29693,41.54151a30.10318,30.10318,0,0,0,9.29693-41.54151l-.90743.57557a29.02856,29.02856,0,0,1-8.96494,40.05851Zm-41.53639-9.298a30.09512,30.09512,0,0,0,41.53639,9.298l-.57544-.90743a29.02077,29.02077,0,0,1-40.05352-8.96612Zm9.29693-41.54151a30.1033,30.1033,0,0,0-9.29693,41.54151l.90743-.57557a29.02855,29.02855,0,0,1,8.96494-40.0585Z"/><path class="cls-10" d="M258.89156,90.03383v68.43a8.24892,8.24892,0,0,1-7.5,8.23,6.23582,6.23582,0,0,1-.76.04h-3.53a8.02805,8.02805,0,0,0,1.74-.2,8.22539,8.22539,0,0,0,6.51-8.07v-68.43a8.24534,8.24534,0,0,0-8.25-8.25h3.53a8.26234,8.26234,0,0,1,8.26,8.25Z"/><path class="cls-7" d="M255.35158,90.03383v68.43a8.22539,8.22539,0,0,1-6.51,8.07,8.02805,8.02805,0,0,1-1.74.2,8.256,8.256,0,0,1-8.25-8.27v-33.36a5,5,0,0,0-5-5H216.11153a4.61,4.61,0,0,1,0-9.22h5.06a5.445,5.445,0,0,0,0-10.89h-14.79a9.11643,9.11643,0,0,1-9.09917-8.97811,9.38914,9.38914,0,0,1,9.433-9.23191h40.3862a8.24534,8.24534,0,0,1,8.25,8.25Z"/><path class="cls-11" d="M274.996,189.64785a82.74081,82.74081,0,0,1-6.41886,32.06772q-.97868,2.36736-2.11607,4.65539c-74.63661,22.67756-138.59569-31.39761-138.59569-31.39761V172.24294c3.183-9.1433,28.94644-59.70929,86.40739-62.6983h.0176a83.10944,83.10944,0,0,1,38.11628,23.11842l.00877.00882A82.87471,82.87471,0,0,1,274.996,189.64785Z"/><path class="cls-12" d="M272.8446,208.5076a80.75678,80.75678,0,0,1-4.26749,13.208q-.97868,2.36736-2.11607,4.65539c-74.63661,22.67756-138.59569-31.39761-138.59569-31.39761v-9.928S188.91481,220.74566,272.8446,208.5076Z"/><path class="cls-7" d="M269.81162,229.61479a87.04237,87.04237,0,0,1-7.051,11.46147,86.14381,86.14381,0,0,1-5.96033,7.34758,87.7492,87.7492,0,0,1-38.5653,24.779c-.00958,0-.01916.00958-.02873.00958-.067.0191-.14348.04783-.21045.067-.44011.13389-.88974.26785-1.32986.4018-.76536.22961-1.5403.44963-2.31524.65057-.49751.13395-.995.26785-1.502.38271-.74627.19129-1.50206.36349-2.25784.52618s-1.51163.32525-2.277.46878-1.53078.27743-2.29614.40181c-.77494.12437-1.5403.23918-2.31524.354h-.00958c-.77494.10522-1.55945.20093-2.33439.27748-.708.0765-1.41593.14348-2.13347.21045-.0957.00958-.19135.00958-.28706.01916q-2.03778.1722-4.1043.2296c-.4018.01915-.80361.02867-1.20547.03825-.60274.00957-1.20548.01915-1.80821.01915a87.49388,87.49388,0,0,1-74.0691-40.83272c-.19135-.287-.37313-.56449-.54533-.85149-.354-.56443-.68881-1.12892-1.0237-1.70293-.56443-.95672-1.10019-1.93259-1.62637-2.918-.03831-.07649-.08613-.15305-.12438-.2296-.66014-1.22457-1.282-2.48744-1.88477-3.75032-.15305-.32531-.30615-.66014-.4592-.98545-.27743-.60273-.54534-1.215-.81319-1.8273a87.14928,87.14928,0,0,1-5.02277-15.6328c-.36356-1.67426-.68887-3.37718-.9472-5.08969q-.1291-.76064-.2296-1.52121a87.96426,87.96426,0,0,1-.861-12.2747q0-1.85122.08607-3.67377a84.72476,84.72476,0,0,1,.77494-8.60088,79.35323,79.35323,0,0,1,1.5403-8.14168,85.48837,85.48837,0,0,1,4.20958-13.021c.38271-.93757.7941-1.86556,1.21505-2.784a.58463.58463,0,0,1,.04783-.1148c.3444-.74627.68881-1.4829,1.05236-2.21959l.08613-.19136c.22-.44.44012-.87058.66972-1.30112v-.00957c.13389-.26785.27743-.53576.41138-.7941l1.24372-2.26741v-.00952l.53576-.91847v-.00958c.10523-.18178.21051-.354.31574-.53576l.61231-1.01412.18172-.30615c.36356-.59316.73669-1.17675,1.1194-1.76033.421-.66014.861-1.32028,1.3107-1.96132V139.999a1.45794,1.45794,0,0,0,.10523-.15305l.01915-.01915c.47836-.69839.97581-1.38719,1.4829-2.07606l.01915-.02867c.40181-.54534.80361-1.0811,1.215-1.60734l.36356-.45921c.44969-.58358.91847-1.16716,1.38726-1.73165l.54533-.66014c.34441-.41138.69839-.82277,1.05237-1.22457l.58364-.66014c.421-.47836.85144-.9472,1.29155-1.416l.26785-.29658c.53582-.574,1.08109-1.12892,1.636-1.68383l6.03688-5.549c.44969-.38265.9089-.76536,1.37768-1.12892a2.02258,2.02258,0,0,1,.22-.18178q.83236-.67444,1.69341-1.32027.55969-.41615,1.11934-.83234c.43054-.31573.86107-.63141,1.30118-.93757.82277-.58358,1.66468-1.14807,2.5066-1.703.43053-.287.861-.56443,1.30112-.83234.32531-.21045.65056-.41138.98539-.61232q2.13834-1.33461,4.36269-2.50659c.4209-.22961.84186-.44963,1.26282-.66966q3.20028-1.65038,6.55355-3.03284.60272-.2583,1.20547-.48793c2.5066-1.00454,5.08017-1.88471,7.70157-2.65007q.50225-.14357,1.00455-.287c.85149-.23918,1.703-.45926,2.564-.66971a.9714.9714,0,0,1,.23918-.0574q.73191-.18657,1.46381-.34441c.421-.0957.84192-.19135,1.27239-.27748.30616-.067.60274-.134.9089-.19136h.00957a88.22124,88.22124,0,0,1,43.54983,2.38228,89.30864,89.30864,0,0,0-16.62777.95672,77.98572,77.98572,0,0,0-27.18991,9.548c-36.585,21.20084-45.14753,44.076-46.57308,48.77346-.17221.56449-.23918.87065-.23918.87065a15.35535,15.35535,0,0,1,.25833,2.83185V201.2385s40.28738,33.179,81.56021,37.61816c26.80726,2.87973,44.25779-1.87513,53.21265-5.5681V233.279A39.63125,39.63125,0,0,0,269.81162,229.61479Z"/><path class="cls-11" d="M218.20625,273.21244c-.067.0191-.14348.04783-.21045.067-.44011.13389-.88974.26785-1.32986.4018-.76536.22961-1.5403.44963-2.31524.65057-.49751.13395-.995.26785-1.502.38271-.74627.19129-1.50206.36349-2.25784.52618s-1.51163.32525-2.277.46878-1.53078.27743-2.29614.40181c-.76536.134-1.5403.24875-2.31524.354h-.00958c-.77494.10522-1.55945.20093-2.33439.27748-.708.0765-1.41593.14348-2.13347.21045-.0957.00958-.19135.00958-.28706.01916q-2.03778.1722-4.1043.2296c-.4018.01915-.80361.02867-1.20547.03825-.60274.00957-1.20548.01915-1.80821.01915a87.49388,87.49388,0,0,1-74.0691-40.83272c-.19135-.287-.37313-.56449-.54533-.85149-.354-.56443-.68881-1.12892-1.0237-1.70293-.56443-.95672-1.10019-1.93259-1.62637-2.918-.03831-.07649-.08613-.15305-.12438-.2296-.66014-1.22457-1.282-2.48744-1.88477-3.75032-.15305-.32531-.30615-.66014-.4592-.98545-.27743-.60273-.54534-1.215-.81319-1.8273a87.14928,87.14928,0,0,1-5.02277-15.6328c-.36356-1.67426-.68887-3.37718-.9472-5.08969q-.1291-.76064-.2296-1.52121a87.96426,87.96426,0,0,1-.861-12.2747q0-1.85122.08607-3.67377a84.72476,84.72476,0,0,1,.77494-8.60088,79.35323,79.35323,0,0,1,1.5403-8.14168,85.48837,85.48837,0,0,1,4.20958-13.021c.38271-.93757.7941-1.86556,1.21505-2.784a.58463.58463,0,0,1,.04783-.1148c.3444-.74627.68881-1.4829,1.05236-2.21959l.08613-.19136c.22-.44.44012-.87058.66972-1.30112.13389-.26791.26785-.53576.41138-.80367l1.24372-2.26741v-.00952l.53576-.91847q.14348-.27267.31574-.54534l.61231-1.01412.18172-.30615c.36356-.59316.73669-1.17675,1.1194-1.76033.421-.66014.861-1.32028,1.3107-1.96132a1.55753,1.55753,0,0,0,.10523-.16263l.01915-.01915c.47836-.69839.97581-1.38719,1.4829-2.07606l.01915-.02867c.40181-.54534.80361-1.0811,1.215-1.60734l.36356-.45921c.44969-.58358.91847-1.16716,1.38726-1.73165l.54533-.66014c.34441-.41138.69839-.82277,1.05237-1.22457l.58364-.66014c.421-.47836.85144-.9472,1.29155-1.416l.26785-.29658c.53582-.574,1.08109-1.12892,1.636-1.68383l6.03688-5.549c.44969-.38265.9089-.76536,1.37768-1.12892a2.02258,2.02258,0,0,1,.22-.18178q.83236-.67444,1.69341-1.32027.55969-.41615,1.11934-.83234c.43054-.31573.86107-.63141,1.30118-.93757.82277-.58358,1.66468-1.14807,2.5066-1.703.43053-.287.861-.56443,1.30112-.83234.32531-.21045.65056-.41138.98539-.61232q2.13834-1.33461,4.36269-2.50659c.4209-.22961.84186-.44963,1.26282-.66966q3.20028-1.65038,6.55355-3.03284.60272-.2583,1.20547-.48793c2.5066-1.00454,5.08017-1.88471,7.70157-2.65007q.50225-.14357,1.00455-.287c.85149-.23918,1.703-.45926,2.564-.66971a.9714.9714,0,0,1,.23918-.0574q.73191-.18657,1.46381-.34441c.421-.0957.84192-.19135,1.27239-.27748.30616-.067.60274-.134.9089-.19136a87.79314,87.79314,0,0,0-52.54294,45.47284c-.29658.58358-.574,1.17675-.84192,1.76991h-.00958c-.31573.69844-.6314,1.4064-.928,2.11436-.25834.58359-.49752,1.17675-.72712,1.76991-.48794,1.20547-.94714,2.42052-1.3681,3.65467q-.96156,2.741-1.73166,5.55853c-.52624,1.90386-.98544,3.81729-1.3681,5.769q-.71754,3.45849-1.129,7.0127a84.69414,84.69414,0,0,0-.60267,9.1367c-.01916.44-.01916.88017-.01916,1.32028a87.6937,87.6937,0,0,0,.62183,10.45692,85.24842,85.24842,0,0,0,2.65013,13.33665q.1292.48788.287.97581c.62189,2.16219,1.33942,4.27656,2.143,6.3622.66013,1.76991,1.38725,3.50156,2.17176,5.21413h.00958l.51661,1.11934q.91847,1.95168,1.94216,3.846l.25834.48794c.75578,1.40635,1.55939,2.784,2.39179,4.133a87.69661,87.69661,0,0,0,91.80663,39.99086Z"/><path class="cls-13" d="M252.40662,132.66306a83.10944,83.10944,0,0,0-38.11628-23.11842h-.0176c-57.46095,2.989-83.22444,53.555-86.40739,62.6983v-3.16535a15.81494,15.81494,0,0,0-.25573-2.83908s5.79283-25.86933,46.80991-49.6402a77.78717,77.78717,0,0,1,27.18307-9.54886,89.69142,89.69142,0,0,1,16.629-.96109h.00883c1.1109.34388,2.18662.70536,3.23585,1.09331A61.72132,61.72132,0,0,1,252.40662,132.66306Z"/><path class="cls-13" d="M269.81152,229.61564a39.49263,39.49263,0,0,1-7.17711,3.66794v.00882c-8.94936,3.68554-26.40717,8.44673-53.21106,5.56358-41.27276-4.435-81.558-37.6137-81.558-37.6137v-6.26893S191.82443,249.04852,266.461,226.371q1.13739-2.288,2.11607-4.65539C271.30161,227.27915,269.81152,229.61564,269.81152,229.61564Z"/><path class="cls-10" d="M191.1984,248.66939a119.86138,119.86138,0,0,1-6.49818,12.22046,9.02393,9.02393,0,0,1-3.906,3.50919c-.00883,0-.02643.00882-.03525.00882a9.067,9.067,0,0,1-5.5195.67011,85.80811,85.80811,0,0,1-10.76568-2.80383,9.07735,9.07735,0,0,1-6.13665-7.33581c-.40561-2.97136-.84646-7.02725-1.10214-11.762a10.77115,10.77115,0,0,0-4.726-8.36741c-6.26893-4.23218-17.59886-12.45853-24.6437-21.00229v-4.13521c2.83025,2.29247,29.36969,23.25946,60.6086,32.98473A4.3916,4.3916,0,0,1,191.1984,248.66939Z"/><path class="cls-13" d="M195.80977,245.41589c-1.46366,3.23585-3.45633,7.49452-5.29025,10.95962a16.09682,16.09682,0,0,1-9.593,7.98828,1.00314,1.00314,0,0,0-.13228.03525,9.02393,9.02393,0,0,0,3.906-3.50919,119.86138,119.86138,0,0,0,6.49818-12.22046,4.3916,4.3916,0,0,0-2.72445-6.01325c-31.23891-9.72527-57.77835-30.69226-60.6086-32.98473V207.185s22.025,17.92509,43.87375,25.4725c10.8274,3.73844,17.36966,5.69586,21.22272,6.71862A4.37628,4.37628,0,0,1,195.80977,245.41589Z"/><path class="cls-1" d="M180.79427,264.39906c-.00882,0-.02645.00882-.03527.00882"/><path class="cls-14" d="M174.63113,259.51439a8.13138,8.13138,0,0,0,2.97135-.5643,8.81794,8.81794,0,0,1-4.68187,1.33138,8.91406,8.91406,0,1,1,0-17.82811,8.81836,8.81836,0,0,1,4.68187,1.33134,8.14573,8.14573,0,1,0-2.97135,15.72969Z"/><path class="cls-7" d="M181.83467,251.36742a8.90737,8.90737,0,0,1-4.23219,7.58267,8.147,8.147,0,1,1,0-15.16539A8.9075,8.9075,0,0,1,181.83467,251.36742Z"/><path class="cls-15" d="M162.03154,261.0309c-9.43429-3.23585-3.13888-17.03455-12.03534-23.08311-14.69806-9.99854-22.13085-20.73773-22.13085-20.73773v-3.40344c7.04484,8.54376,18.37477,16.77011,24.6437,21.00229a10.77115,10.77115,0,0,1,4.726,8.36741c.25568,4.73476.69653,8.79065,1.10214,11.762A9.00058,9.00058,0,0,0,162.03154,261.0309Z"/><path class="cls-10" d="M119.62654,94.04463V162.474a8.24936,8.24936,0,0,1-7.49451,8.2263,8.24773,8.24773,0,0,0,3.95886-7.04484V95.21732a8.24832,8.24832,0,0,0-8.25278-8.25278,7.45164,7.45164,0,0,0-.76708.03525,8.25268,8.25268,0,0,1,12.55551,7.04484Z"/><path class="cls-7" d="M116.09089,95.21732v68.43817a8.24773,8.24773,0,0,1-3.95886,7.04484,7.15557,7.15557,0,0,1-.75826.0353,8.254,8.254,0,0,1-8.25283-8.2616V94.04463a8.25953,8.25953,0,0,1,3.95009-7.04484,7.45164,7.45164,0,0,1,.76708-.03525,8.24832,8.24832,0,0,1,8.25278,8.25278Z"/><path class="cls-10" d="M119.63,87.04v68.43a8.24891,8.24891,0,0,1-7.5,8.23,6.23576,6.23576,0,0,1-.76.04h-3.53a8.02805,8.02805,0,0,0,1.74-.2,8.22539,8.22539,0,0,0,6.51-8.07V87.04a8.24536,8.24536,0,0,0-8.25-8.25h3.53a8.26234,8.26234,0,0,1,8.26,8.25Z"/><path class="cls-7" d="M116.09,87.04v68.43a8.22539,8.22539,0,0,1-6.51,8.07,8.02805,8.02805,0,0,1-1.74.2,8.256,8.256,0,0,1-8.25-8.27V122.11a5,5,0,0,0-5-5H76.85a4.61,4.61,0,1,1,0-9.22h5.06a5.445,5.445,0,0,0,0-10.89H67.12a9.11643,9.11643,0,0,1-9.09918-8.97811,9.38915,9.38915,0,0,1,9.433-9.23191H107.84a8.24536,8.24536,0,0,1,8.25,8.25Z"/><path class="cls-7" d="M250.6087,165.28335a6.61517,6.61517,0,0,1-6.283-4.55492c-.06285-.18728-7.33006-21.167-29.04728-30.63161a6.61274,6.61274,0,0,1,5.28336-12.12434c27.2985,11.897,35.9761,37.55051,36.33171,38.63672a6.61758,6.61758,0,0,1-6.28476,8.67415Z"/><circle class="cls-7" cx="259.46028" cy="177.7893" r="7.05366"/><path class="cls-13" d="M127.86337,166.14609v48.77353a27.87622,27.87622,0,0,1-10.11252,21.507,27.28731,27.28731,0,0,1-3.97992,2.75535,26.63523,26.63523,0,0,1-5.73073,2.48745,28.26117,28.26117,0,0,1-8.09386,1.18632h-.02873c-.71753,0-1.4255-.0191-2.11431-.0765a28.4116,28.4116,0,0,0,5.96034-1.10982A26.71154,26.71154,0,0,0,109.504,239.182a27.90322,27.90322,0,0,0,14.04461-22.71247c.03831-.51667.04783-1.03328.04783-1.54988V166.14609a28.425,28.425,0,0,0-.45921-5.05144,27.45623,27.45623,0,0,0-2.784-8.02688c-.22961-.43053-.46879-.86107-.72712-1.282a27.42063,27.42063,0,0,0-3.53987-4.707c-.1722-.19136-.354-.37313-.53576-.55491v-.00952l-.13395-.134c-.63141-.63146-1.282-1.22462-1.97084-1.78905a28.3058,28.3058,0,0,0-9.682-5.20455c-.21045-.067-.43054-.12438-.641-.19136a29.44073,29.44073,0,0,0-5.31935-.91847c.68881-.04782,1.39678-.07649,2.11431-.07649h.02873a26.84205,26.84205,0,0,1,3.17631.18177,28.5324,28.5324,0,0,1,4.91755,1.00455,27.96672,27.96672,0,0,1,6.8405,3.14758c.41138.25833.81324.52618,1.20547.81319.31574.22008.62189.44968.928.68886a28.26971,28.26971,0,0,1,2.61182,2.28657l.0574.0574a27.18464,27.18464,0,0,1,2.4492,2.80318,27.76029,27.76029,0,0,1,5.27152,11.91115,26.33983,26.33983,0,0,1,.44006,4.2765C127.86337,165.62949,127.86337,165.88782,127.86337,166.14609Z"/><path class="cls-15" d="M123.59639,166.14609v48.77353c0,.5166-.00952,1.03321-.04783,1.54988A27.922,27.922,0,0,1,109.504,239.182a26.71154,26.71154,0,0,1-5.74031,2.48745,28.4116,28.4116,0,0,1-5.96034,1.10982c-.22008-.01915-.44968-.04788-.66971-.0574-.47836-.0574-.95672-.11486-1.43508-.19135-.421-.0574-.83234-.134-1.23414-.21051h-.00958a24.11386,24.11386,0,0,1-2.35355-.574c-.25833-.07655-.5166-.15311-.76536-.23918a27.08832,27.08832,0,0,1-2.631-.995,25.95154,25.95154,0,0,1-3.15716-1.636c0-.00958-.00958,0-.00958,0a28.50475,28.50475,0,0,1-3.81729-2.76493c-.59316-.507-1.16723-1.05237-1.71257-1.60728q-.83227-.84673-1.57855-1.75081a27.87464,27.87464,0,0,1-6.4196-17.83318V166.14609a27.8359,27.8359,0,0,1,6.4196-17.83324q.74619-.904,1.57855-1.75075a27.7084,27.7084,0,0,1,14.45606-7.82594c.4018-.07656.81318-.14354,1.23414-.21051.47836-.067.95672-.134,1.43508-.18178.22-.01915.44963-.04783.66971-.067a29.44073,29.44073,0,0,1,5.31935.91847c.21045.067.43054.12438.641.19136a28.3058,28.3058,0,0,1,9.682,5.20455c.68887.56443,1.33943,1.15759,1.97084,1.78905l.13395.134v.00952c.18178.18178.36356.36355.53576.55491a27.42063,27.42063,0,0,1,3.53987,4.707c.25833.421.49751.85149.72712,1.282a27.45623,27.45623,0,0,1,2.784,8.02688A28.425,28.425,0,0,1,123.59639,166.14609Z"/><path class="cls-7" d="M119.32946,166.14609v48.77353a28.19794,28.19794,0,0,1-.22008,3.50156A27.91067,27.91067,0,0,1,105.237,239.182a26.71017,26.71017,0,0,1-5.7403,2.48745,27.3818,27.3818,0,0,1-3.79815.86107c-.421-.0574-.83234-.134-1.23414-.21051h-.00958c-.79409-.16263-1.58818-.354-2.35355-.574-.25833-.07655-.5166-.15311-.76536-.23918a27.08832,27.08832,0,0,1-2.631-.995,30.7577,30.7577,0,0,1-3.15716-1.636c0-.00958-.00958,0-.00958,0a30.299,30.299,0,0,1-3.81729-2.76493c-.59316-.51661-1.16723-1.05237-1.71257-1.60728q-.83227-.84673-1.57855-1.75081a27.87464,27.87464,0,0,1-6.4196-17.83318V166.14609a27.8359,27.8359,0,0,1,6.4196-17.83324q.74619-.904,1.57855-1.75075a27.7084,27.7084,0,0,1,14.45606-7.82594c.4018-.07656.81318-.14354,1.23414-.21051a27.39884,27.39884,0,0,1,3.79815.87064,26.29015,26.29015,0,0,1,3.626,1.39677,27.63075,27.63075,0,0,1,8.02688,5.58726c.22961.22961.45921.46879.66966.708a24.76828,24.76828,0,0,1,2.07612,2.497v.00957a27.20282,27.20282,0,0,1,2.19086,3.47289,26.76859,26.76859,0,0,1,2.17177,5.42458,26.36342,26.36342,0,0,1,.61226,2.6023,29.46214,29.46214,0,0,1,.421,3.69292C119.31988,165.2372,119.32946,165.68689,119.32946,166.14609Z"/><path class="cls-15" d="M95.6659,229.57764a18.25427,18.25427,0,0,1-5.28029-.77163,18.03815,18.03815,0,0,1-3.76618-1.63224,18.29625,18.29625,0,0,1-9.19115-15.84907V169.73442a18.44339,18.44339,0,0,1,.28861-3.28354,18.11853,18.11853,0,0,1,5.047-9.61846,18.3002,18.3002,0,0,1,12.902-5.35094c.62545,0,1.18735.04113,1.73056.08075l.07963.00561.27478.03626c.16187.02169.32.04375.47479.071a9.20294,9.20294,0,0,1,1.0737.18281,18.25013,18.25013,0,0,1,14.612,17.87647v41.59775A18.24645,18.24645,0,0,1,99.26011,229.209l-.00075.015c-.33684.06953-.68153.11664-1.03445.16-.15552.02766-.31441.05009-.477.07177l-.25983.0344a17.90221,17.90221,0,0,1-1.80683.08748Z"/><path class="cls-16" d="M97.85214,226.62744c-.19661.03937-.40105.06293-.61341.08655a14.65318,14.65318,0,0,1-1.55715.07863h-.01574a15.70338,15.70338,0,0,1-4.55352-.66846,15.27687,15.27687,0,0,1-3.24016-1.3999,15.73522,15.73522,0,0,1-7.93527-13.67634V186.613l4.43557.00787v24.42706a15.75154,15.75154,0,0,0,7.93523,13.67634,15.29759,15.29759,0,0,0,5.54445,1.90318Z"/><path class="cls-17" d="M98.75658,154.581a8.67365,8.67365,0,0,0-.90442-.1494,16.63448,16.63448,0,0,0-2.3043.51118A15.75326,15.75326,0,0,0,84.632,167.172a16.087,16.087,0,0,0-.25951,2.839V186.613l27.03018.00784V170.01107A15.71886,15.71886,0,0,0,98.75658,154.581Z"/><path class="cls-18" d="M97.85214,154.43157a16.63888,16.63888,0,0,0-2.30429.51121A15.75327,15.75327,0,0,0,84.632,167.172a16.08608,16.08608,0,0,0-.2595,2.83906V186.613l-4.43557.00787V170.01109a16.08177,16.08177,0,0,1,.25167-2.83906,15.748,15.748,0,0,1,15.47728-12.90559h.01574c.52691,0,1.03812.03932,1.55715.07863C97.45109,154.36864,97.65553,154.39226,97.85214,154.43157Z"/><path class="cls-17" d="M94.95019,158.30088c-.00787,0-.01574.00787-.02361.01574a11.10266,11.10266,0,0,0-2.18635,1.69875,11.48987,11.48987,0,0,0-3.16149,6.02417A11.89828,11.89828,0,0,0,89.39,168.1079v10.81366a1.25832,1.25832,0,0,1-2.51664,0V168.1079a12.71873,12.71873,0,0,1,.18874-2.06836,11.54554,11.54554,0,0,1,3.16153-6.02417,11.36321,11.36321,0,0,1,4.78157-2.8548c.08655-.03149.346-.09437.346-.09437a.6711.6711,0,0,1,.72357.22018C96.30286,157.64029,95.73664,157.78184,94.95019,158.30088Z"/><path class="cls-19" d="M111.40266,186.62086v24.43493A15.71665,15.71665,0,0,1,98.75657,226.478c-.13368-.02357,0,.01574,0,.01574-.29885.05506-.59771.09437-.90443.13368a15.29759,15.29759,0,0,1-5.54445-1.90318,15.75154,15.75154,0,0,1-7.93523-13.67634V186.62086Z"/><path class="cls-19" d="M94.95019,158.30088c-.00787,0-.01574.00787-.02361.01574a11.10266,11.10266,0,0,0-2.18635,1.69875,11.48987,11.48987,0,0,0-3.16149,6.02417A11.89828,11.89828,0,0,0,89.39,168.1079v10.81366a1.25832,1.25832,0,0,1-2.51664,0V168.1079a12.71873,12.71873,0,0,1,.18874-2.06836,11.54554,11.54554,0,0,1,3.16153-6.02417,11.36321,11.36321,0,0,1,4.78157-2.8548c.08655-.03149.346-.09437.346-.09437a.6711.6711,0,0,1,.72357.22018C96.30286,157.64029,95.73664,157.78184,94.95019,158.30088Z"/><rect class="cls-20" x="86.87336" y="190.48113" width="11.45987" height="2.81246" rx="1.40623"/><rect class="cls-21" x="86.87336" y="196.37038" width="11.45987" height="2.81246" rx="1.40623"/><rect class="cls-7" x="86.87336" y="202.25962" width="11.45987" height="2.81246" rx="1.40623"/><path class="cls-22" d="M245.35791,262.22928a93.25756,93.25756,0,0,1-136.2271-20.91384,26.50648,26.50648,0,0,0,4.64012-2.13347,27.28731,27.28731,0,0,0,3.97992-2.75535A87.49388,87.49388,0,0,0,191.82,277.25934c.60273,0,1.20547-.00958,1.80821-.01915.40186-.00958.80367-.0191,1.20547-.03825q2.06652-.05738,4.1043-.2296c.09571-.00958.19136-.00958.28706-.01916.71754-.0574,1.4255-.12437,2.13347-.21045.78451-.07655,1.55945-.17226,2.33439-.27748h.00958c.77494-.10523,1.54988-.22,2.31524-.354.77494-.1148,1.53072-.24876,2.29614-.40181.76537-.14353,1.52115-.29658,2.277-.46878.75578-.16269,1.51157-.33489,2.25784-.52618.507-.12438,1.00454-.24876,1.502-.38271.77494-.20094,1.54988-.421,2.31524-.65057.44012-.12437.88975-.25833,1.32986-.4018.067-.01915.14347-.04788.21045-.067.00957,0,.01915-.00958.02873-.00958a87.32463,87.32463,0,0,0,26.46279-13.69063C244.94653,260.41155,245.16655,261.31087,245.35791,262.22928Z"/><path class="cls-15" d="M245.97022,266.391A98.81863,98.81863,0,0,1,100.4821,242.84616a28.16507,28.16507,0,0,0,7.5581-1.17674c.36356-.1148.72706-.22961,1.09061-.354a93.25756,93.25756,0,0,0,136.2271,20.91384A38.27826,38.27826,0,0,1,245.97022,266.391Z"/><path class="cls-7" d="M248.582,300.76591V349.9426H82.48624V314.91575a50.71024,50.71024,0,0,1,14.6665-36.16393,19.78915,19.78915,0,0,0,5.87421-14.05419c0-.44963-.0191-.88974-.04783-1.33943l-.00957-.0191a.85168.85168,0,0,0-.00952-.22008.67654.67654,0,0,0-.00958-.1339,39.16164,39.16164,0,0,0-3.42506-14.236c-1.01412-2.21-2.09522-5.15672-2.344-5.87426a.79736.79736,0,0,0-.03824-.1148l-.00958-.03825c.22.00952.44963.03825.66971.0574.68881.0574,1.39678.0765,2.11431.0765h.02873c.18178,0,.354,0,.53576-.00958A98.81863,98.81863,0,0,0,245.97022,266.391c.067.708.1148,1.4255.14348,2.143.00957.4592.01915.91847.01915,1.37767a38.41217,38.41217,0,0,1-.63141,6.93621.035.035,0,0,1-.00958.02867,10.75388,10.75388,0,0,0,.33483,4.92712,63.93864,63.93864,0,0,1,1.90386,8.35213h.00958c.04782.34446.10528.68887.15311,1.03327A66.779,66.779,0,0,1,248.582,300.76591Z"/><path class="cls-13" d="M209.873,334.86388a11.83028,11.83028,0,0,1-6.06975,3.04161c-7.65371,1.30123-15.17306-5.3864-16.79619-14.93608-1.39129-8.20438,2.01829-15.84794,7.86469-18.66245-3.92625,3.63979-5.96012,9.92714-4.8319,16.58505,1.62254,9.54087,9.13309,16.2291,16.78739,14.93667A11.42779,11.42779,0,0,0,209.873,334.86388Z"/><path class="cls-10" d="M209.873,334.86388a11.42779,11.42779,0,0,1-3.04576.9648c-7.6543,1.29243-15.16485-5.3958-16.78739-14.93667-1.12822-6.65791.90565-12.94526,4.8319-16.58505a11.24388,11.24388,0,0,1,3.06273-.97479c7.6537-1.30123,15.17306,5.3864,16.78744,14.93666C215.8501,324.92675,213.81687,331.2229,209.873,334.86388Z"/><ellipse class="cls-13" cx="200.2979" cy="311.84112" rx="5.59565" ry="1.82687" transform="translate(-64.50502 52.52751) rotate(-12.88712)"/><ellipse class="cls-13" cx="205.65908" cy="327.045" rx="5.59565" ry="1.82687" transform="translate(-67.76091 54.10619) rotate(-12.88712)"/><ellipse class="cls-13" cx="202.97849" cy="319.44306" rx="7.78432" ry="2.54143" transform="translate(-66.13297 53.31685) rotate(-12.88712)"/><path class="cls-15" d="M231.45172,287.69769a49.01839,49.01839,0,0,0,9.84223-6.17761,1.49994,1.49994,0,0,0-1.98633-2.24805c-.165.14551-16.9375,14.52344-55.56836,16.90137a1.49994,1.49994,0,0,0,.09082,2.99707c.03027,0,.06152-.001.09277-.00293a144.77422,144.77422,0,0,0,29.75434-4.769c1.83636,4.49689,8.14331,27.84418,8.95544,55.54407h3.00189c-.79858-27.89319-6.93927-51.21277-9.05-56.38642a98.55781,98.55781,0,0,0,12.1496-4.55591c2.07556,4.86005,8.78967,29.019,9.09125,60.94233h3.00006C240.52588,316.987,233.648,292.70459,231.45172,287.69769Z"/><path class="cls-15" d="M119.2207,326.43945a135.0628,135.0628,0,0,1-28.16992-2.95215,1.4996,1.4996,0,1,1,.68506-2.91992c.24121.05664,24.30762,5.582,47.21387,1.08106a1.4998,1.4998,0,1,1,.57812,2.94336A106.10789,106.10789,0,0,1,119.2207,326.43945Z"/><path class="cls-15" d="M119.88672,335.63184a155.15039,155.15039,0,0,1-31.543-3.2461,1.4996,1.4996,0,1,1,.68506-2.91992c.26807.06152,27.0918,6.22168,52.62793,1.2041a1.4998,1.4998,0,0,1,.57812,2.94336A116.844,116.844,0,0,1,119.88672,335.63184Z"/><path class="cls-15" d="M148.52,329.72V350h-8.56V331.3a36.0388,36.0388,0,0,0-15.26-29.47,26.66321,26.66321,0,0,0-2.72-1.69c-.01-.01-.02-.02-.03-.02a28.57148,28.57148,0,0,0-27.01.2.71093.71093,0,0,1-.94-.23,2.339,2.339,0,0,1-.41-1.33,2.38525,2.38525,0,0,1,1.43-2.19l1.49-.66a37.27991,37.27991,0,0,1,6.18-2.12,36.90757,36.90757,0,0,1,8.23-1.06c.26,0,.51,0,.76-.01a36.57266,36.57266,0,0,1,8.99,1.15,36.99321,36.99321,0,0,1,27.85,35.85Z"/><path class="cls-22" d="M153.02,349.94257V333.74a41.05573,41.05573,0,0,0-41.34-41.02,36.57266,36.57266,0,0,1,8.99,1.15,36.99321,36.99321,0,0,1,27.85,35.85v20.2226Z"/><path class="cls-20" d="M136.75126,294.43244a75.31519,75.31519,0,0,1,26.04855,32.53338,8.95114,8.95114,0,0,0,8.24539,5.57266h.00006c6.54917,0,9.996-7.61486,7.09246-14.64064-2.1859-5.28916-4.506-8.16655-7.997-12.66407a76.99317,76.99317,0,0,0-70.77792-29.10931,19.79767,19.79767,0,0,1-2.21008,2.62736,47.52681,47.52681,0,0,0-5.4321,6.44114A58.0456,58.0456,0,0,1,136.75126,294.43244Z"/><path class="cls-23" d="M101.78323,271.586a19.60782,19.60782,0,0,1-4.63049,7.16581,48.07956,48.07956,0,0,0-8.467,11.30841l-2.68837,1.11935a34.11916,34.11916,0,0,0-20.97125,31.476v27.287h-7.2232V315.56631A43.97849,43.97849,0,0,1,101.78323,271.586Z"/><path class="cls-22" d="M177.73952,324.1979a7.73476,7.73476,0,0,1-2.02426,4.14295,6.09249,6.09249,0,0,1-3.85812,1.813.1589.1589,0,0,1-.06545-.00043,6.07608,6.07608,0,0,0,3.07277-1.69791,7.73489,7.73489,0,0,0,2.02426-4.143,10.13591,10.13591,0,0,0-.43582-4.99381,10.37513,10.37513,0,0,0-2.72208-4.25169,7.79316,7.79316,0,0,0-5.61757-2.20822,5.1696,5.1696,0,0,1,.83478-.11246,7.82678,7.82678,0,0,1,5.63359,2.20606,10.46412,10.46412,0,0,1,2.72208,4.25168A10.2311,10.2311,0,0,1,177.73952,324.1979Z"/><path class="cls-7" d="M176.88872,324.31252a7.73489,7.73489,0,0,1-2.02426,4.143,6.07608,6.07608,0,0,1-3.07277,1.69791,7.44673,7.44673,0,0,1-4.335-1.18024,10.07639,10.07639,0,0,1-3.445-3.794,10.54675,10.54675,0,0,1-1.26164-5.05806,8.10056,8.10056,0,0,1,1.33771-4.56772,6.18959,6.18959,0,0,1,4.01743-2.69345l.008-.00108a7.79316,7.79316,0,0,1,5.61757,2.20822,10.37513,10.37513,0,0,1,2.72208,4.25169A10.13591,10.13591,0,0,1,176.88872,324.31252Z"/><path class="cls-24" d="M174.91111,321.87435a.29056.29056,0,0,0-.14617-.03585c-.153.00132-.39927.00431-.68914.00137-.27731.00015-.59366-.00492-.90083-.01413-.63086-.01932-1.22248-.064-1.36073-.07566a1.86507,1.86507,0,0,0-.2316-.80072,1.64629,1.64629,0,0,0-.54956-.58585q.27435-.70808.56722-1.40206.19591-.46456.39978-.92237l.004-.00893q.14387-.34938.29228-.69485c.08143-.15284.06019-.25384-.07971-.32252a5.07754,5.07754,0,0,0-.55883-.23518,4.76252,4.76252,0,0,0-3.30289.01738q-.19242-.503-.374-1.01735a.55664.55664,0,0,0-.23909-.30632.39933.39933,0,0,0-.51052.07093.55155.55155,0,0,0-.11128.18107.6384.6384,0,0,0-.04.22253.68039.68039,0,0,0,.0391.2283q.18913.5346.38985,1.05729a4.57871,4.57871,0,0,0-.944.83542q-.26438-.6703-.51017-1.36015a.61013.61013,0,0,0-.247-.325.40426.40426,0,0,0-.34981-.04795.3957.3957,0,0,0-.16439.11164.55245.55245,0,0,0-.10911.18686.71225.71225,0,0,0-.03635.2315.74657.74657,0,0,0,.04368.23905q.34848.97441.73336,1.91077a5.84942,5.84942,0,0,0-.63311,2.832,6.276,6.276,0,0,0,.77638,2.88967,4.38846,4.38846,0,0,0,6.93865,1.339q1.40354-1.241,2.81787-2.49153a.34312.34312,0,0,0,.105-.17126.27336.27336,0,0,0-.01559-.18623q-.459-.60936-.8923-1.25335A.29322.29322,0,0,0,174.91111,321.87435Zm-.11,1.46984-2.35754,1.996a3.57661,3.57661,0,0,1-5.57927-1.12753,4.99462,4.99462,0,0,1-.60123-1.93188,4.90578,4.90578,0,0,1,.20935-1.995q.22137.49222.45292.97293a.53972.53972,0,0,0,.27434.27579.40849.40849,0,0,0,.34872-.009.43171.43171,0,0,0,.15046-.12976.56054.56054,0,0,0,.09012-.18944.60326.60326,0,0,0,.01572-.2204.63477.63477,0,0,0-.05952-.21242q-.377-.7853-.72634-1.602a3.80211,3.80211,0,0,1,1.29954-1.18485,3.52131,3.52131,0,0,1,2.7726-.31745q-.52226,1.20539-.98931,2.45575a1.5302,1.5302,0,0,0-.77736.27816,1.71874,1.71874,0,0,0-.55592.67533,1.95625,1.95625,0,0,0-.18143.9057,1.97681,1.97681,0,0,0,.25.8956,1.67449,1.67449,0,0,0,.60917.63234,1.42321,1.42321,0,0,0,.79807.19819,1.51777,1.51777,0,0,0,.7803-.2709,1.81768,1.81768,0,0,0,.56537-.65l-.00781.03368q1.42936.06129,2.842-.01267Q174.61033,323.08028,174.80112,323.34419Zm-4.00029-1.83434a.82049.82049,0,0,1,.0992.4236.839.839,0,0,1-.12809.41976.7324.7324,0,0,1-.31744.2799.62616.62616,0,0,1-.40134.03823.679.679,0,0,1-.35-.22075.80612.80612,0,0,1-.17869-.40691.83869.83869,0,0,1,.05762-.44836.73348.73348,0,0,1,.27023-.33448.64123.64123,0,0,1,.52427-.09053A.69477.69477,0,0,1,170.80083,321.50985Z"/><path class="cls-25" d="M173.57684,319.60932a4.28709,4.28709,0,0,1,.499,2.23055c-.27731.00015-.59366-.00492-.90083-.01413a3.30616,3.30616,0,0,0-.404-1.68063,3.0057,3.0057,0,0,0-1.17072-1.18366q.19591-.46456.39978-.92237A3.92188,3.92188,0,0,1,173.57684,319.60932Z"/><path class="cls-15" d="M258.35973,311.883V350l-9.77769-.0574V300.76591a66.779,66.779,0,0,0-.6888-9.57676c-.04783-.3444-.10529-.68881-.15311-1.03327l1.16722,1.01412A27.42883,27.42883,0,0,1,258.35973,311.883Z"/><path class="cls-20" d="M88.68575,290.06023a52.2552,52.2552,0,0,0-6.19951,24.85552V349.9426H65.02613v-27.287a34.11916,34.11916,0,0,1,20.97125-31.476Z"/><path class="cls-3" d="M175,0A175,175,0,1,0,350,175,174.9998,174.9998,0,0,0,175,0Zm0,345A170,170,0,1,1,345,175,169.996,169.996,0,0,1,175,345Z"/></g></svg>