<svg id="Layer_1" data-name="Layer 1" xmlns="http://www.w3.org/2000/svg" xmlns:xlink="http://www.w3.org/1999/xlink" viewBox="0 0 350 350"><defs><style>.cls-1,.cls-15{fill:none;}.cls-2{clip-path:url(#clip-path);}.cls-3{fill:#140075;}.cls-4{fill:#ffeea8;}.cls-5{fill:#fff;}.cls-6{fill:#6f3ff5;}.cls-7{fill:#a7a2b6;}.cls-8{fill:#dddce2;}.cls-9{fill:#02e2ac;}.cls-10{fill:#5bf1cd;}.cls-11{fill:#0d58ff;}.cls-12{fill:#53aef9;}.cls-13{fill:#0e0333;}.cls-14{fill:#02e1ab;}.cls-15{stroke:#fff;stroke-miterlimit:10;}.cls-16{fill:#ff841f;}.cls-17{fill:#ffd8ae;}.cls-18{fill:#ffaa71;}.cls-19{fill:#f50;}.cls-20{fill:#c4c1cf;}.cls-21{fill:#0fa57e;}.cls-22{fill:#00e7b4;}.cls-23{fill:#11bc92;}.cls-24{fill:#b6fff0;}.cls-25{fill:#f3587d;}.cls-26{fill:#8c65f7;}</style><clipPath id="clip-path"><rect class="cls-1" width="350" height="350" rx="174.99982"/></clipPath></defs><g class="cls-2"><rect class="cls-3" width="350" height="350" rx="174.99982"/><circle class="cls-4" cx="92.37646" cy="80.41422" r="4.24881"/><circle class="cls-4" cx="81.5318" cy="44.4218" r="4.24881"/><circle class="cls-4" cx="133.55206" cy="87.31416" r="4.24881"/><circle class="cls-4" cx="272.81132" cy="61.53638" r="4.24881"/><circle class="cls-4" cx="61.84836" cy="202.57342" r="4.24881"/><circle class="cls-4" cx="216.51502" cy="71.90675" r="3.37394"/><circle class="cls-4" cx="47.92243" cy="102.72157" r="1.97445"/><circle class="cls-4" cx="283.18169" cy="228.0549" r="1.97445"/><circle class="cls-4" cx="161.66982" cy="59.85492" r="5.42123"/><circle class="cls-4" cx="159.37727" cy="26.22693" r="8.40562"/><circle class="cls-4" cx="77.5995" cy="262.67138" r="8.40562"/><circle class="cls-4" cx="106.54435" cy="20.09146" r="6.08004"/><circle class="cls-5" cx="125.27287" cy="51.89222" r="18.88864"/><polygon class="cls-6" points="426.667 302.222 404.971 282.009 410.87 264.722 408.168 236.945 299.557 108.836 309.786 175.194 276.053 149.566 296.368 243.8 289.778 264.889 260.148 271.407 244.741 309.333 296.296 371.556 321.07 358.381 331.797 408.143 370.417 383.267 391.734 320.8 426.667 302.222"/><polygon class="cls-6" points="39.956 266.779 52.759 227.239 40.75 148.466 -15.476 164.406 -18.3 173.438 -23.437 206.152 -21.371 233.022 -6.749 281.88 23.622 317.223 24.165 315.547 41.623 335.156 124.452 368.278 167.916 350.741 187.738 289.307 88.954 304.638 39.956 266.779"/><path class="cls-5" d="M248.58,300.77v49.17H82.49V314.92a50.738,50.738,0,0,1,14.66-36.17,19.40134,19.40134,0,0,0,4.63-7.16,19.61914,19.61914,0,0,0,1.25-6.89c0-.45-.02-.89-.05-1.34l-.01-.02a.81437.81437,0,0,0-.01-.22.56947.56947,0,0,0-.01-.13,39.28777,39.28777,0,0,0-3.42-14.24c-1.02-2.21-2.1-5.16-2.35-5.88-.01-.04-.03-.08-.04-.11l-.01-.04s-30.3292-63.851,19.07242-101.3921a22.79085,22.79085,0,0,1,3.28056-1.89335q-1.70693,1.50263-3.293,3.03545c-.3.28-.6.57-.89.86a86.62159,86.62159,0,0,0-11.11,13.34c-.46.67-.89,1.33-1.3,2a76.3349,76.3349,0,0,0-4.44,8.04c-.26.54-.51,1.08-.75,1.63-.97,2.16-1.82,4.33-2.55,6.49-.23.65-.44,1.29-.63,1.93q-.33,1.04993-.63,2.1-.12.45-.24.9c-.14.5-.27.99-.38,1.49-.13.5-.25.99-.36005,1.49-.13995.6-.26,1.2-.37994,1.8-.06006.3-.12006.59-.17.89a2.56861,2.56861,0,0,0-.05.27c-.07.32-.12.65-.18.98-.29,1.64-.51,3.26-.69,4.87-.06.58-.12,1.16-.17,1.73-.03.33-.06.67-.08,1a.41013.41013,0,0,0-.01.11c-.02.2-.04.4-.05.6-.01.12-.02.23-.02.35-.08,1.25-.14,2.5-.16,3.74-.01.31-.01.62-.01.92-.01.68-.01,1.36,0,2.03,0,.24,0,.47.01.71.01.49.03.98.05,1.47,1.26,30.28,18.91,57.6,45.69,72.32.48.25.95.51,1.43.76,1.4.74,2.84,1.45,4.29,2.12.82.38,1.64.74,2.47,1.1.77.33,1.54.63995,2.31.95.64.26,1.28.51,1.93.75l.42.15c.25.1.51.19.77.28.43.16.87.31,1.31.46q1.17.405,2.37.78c.41.13.82.26,1.23.38.23.07.46.13995.7.21.77.23,1.55.45,2.33.65.57.15,1.14.3,1.72.44.76.19,1.52.37,2.29.54s1.54.33,2.32.48c.18.04.36.08.55.11.7.13,1.42.26,2.13.38.15.03.3.05.46.07.81006.14,1.62006.26,2.43005.37.89.12,1.79.24,2.68.33.9.1,1.8.19,2.7.26a.37442.37442,0,0,0,.1.01c.78.06,1.57.12,2.35.16.17.01.35.02.52.03.83.05,1.66.08,2.49.1.92.03,1.84.04,2.76.04a98.3848,98.3848,0,0,0,62.22-22.05c.07.71.12006,1.43.14,2.14.01.46.02.92.02,1.38a38.52983,38.52983,0,0,1-.63,6.94.03674.03674,0,0,1-.01.03,10.79672,10.79672,0,0,0,.34,4.92,64.40914,64.40914,0,0,1,1.9,8.36h.01c.05.34.11.68.15,1.03A66.69628,66.69628,0,0,1,248.58,300.77Z"/><path class="cls-7" d="M245.36,262.23a93.27187,93.27187,0,0,1-136.23-20.91s-29.16-44.88,1.67-85.07a87.01069,87.01069,0,0,0-4.19,12.98,81.1765,81.1765,0,0,0-1.54,8.14,83.749,83.749,0,0,0-.77,8.6c-.06,1.21-.09,2.44-.09,3.67a88.75019,88.75019,0,0,0,.86,12.28c.07.5.15,1.01.23,1.52.26,1.71.59,3.41.95,5.09a87.70418,87.70418,0,0,0,5.02,15.63c.27.61.54,1.23.82,1.83.15.32.3.66.46.98.6,1.27,1.22,2.53,1.88,3.75.04.08.09.16.13.23.52.99,1.06,1.97,1.62,2.92.34.58.67,1.14,1.03,1.71.17.28.35.56.54.85a87.49387,87.49387,0,0,0,74.07,40.83c.6,0,1.21-.01,1.81-.02.4-.01.8-.02,1.2-.04,1.38-.04,2.75-.11,4.11-.23.09-.01.19-.01.28-.02.72-.05,1.43005-.12,2.14-.21.77-.07,1.56-.17,2.33-.27h.01c.78-.11,1.55-.22,2.32-.36.76-.12,1.53-.26,2.29-.4.77-.13995,1.52-.3,2.28-.47.75995-.16,1.50995-.33,2.25995-.53.51-.11,1-.24,1.5-.38.78-.2,1.55-.42,2.32-.65.44-.12.89-.26,1.33-.4.06-.02.14-.05.21-.07a.035.035,0,0,0,.02-.01,87.30668,87.30668,0,0,0,26.47-13.69C244.95,260.41,245.17,261.31,245.36,262.23Z"/><path class="cls-8" d="M245.97,266.39a98.3848,98.3848,0,0,1-62.22,22.05c-.92,0-1.84-.01-2.76-.04-.83-.02-1.66-.05-2.49-.1-.17-.01-.35-.02-.52-.03-.78-.04-1.57-.1-2.35-.16a.37442.37442,0,0,1-.1-.01c-.9-.07-1.8-.16-2.7-.26-.89-.09-1.79-.21-2.68-.33-.81-.11005-1.62-.23-2.43005-.37-.16-.02-.31-.04-.46-.07-.71-.12-1.43-.25-2.13-.38-.19-.03-.37-.07-.55-.11-.78-.15-1.55-.31-2.32-.48s-1.53-.35-2.29-.54c-.58-.14-1.15-.29-1.72-.44-.78-.2-1.56-.42-2.33-.65-.24-.07-.47-.14-.7-.21-.41-.12-.81995-.25-1.23-.38q-1.2-.375-2.37-.78c-.44-.15-.88-.3-1.31-.46-.26-.09-.52-.18-.77-.28l-.42-.15c-.65-.24-1.29-.49-1.93-.75-.77-.31-1.54-.62-2.31-.95-.83-.36005-1.65-.72-2.47-1.1-1.45-.67-2.88995-1.38-4.29-2.12-.48-.25-.95-.51-1.43-.76C109.91,261.81,92.26,234.49,91,204.21c-.02-.49-.04-.98-.05-1.47-.01-.24-.01-.47-.01-.71-.01-.67-.01-1.35,0-2.03,0-.3,0-.61.01-.92.02-1.24.08-2.49.16-3.74,0-.12.01-.23.02-.35.01-.2.03-.4.05-.6a.41013.41013,0,0,1,.01-.11c.02-.33.05-.67.08-1,.05-.57.11-1.15.17-1.73.18-1.61.4-3.23.69-4.87.06-.33.11-.66.18-.98a2.56861,2.56861,0,0,1,.05-.27c.05-.3.11-.59.17-.89.12-.6.24-1.2.37994-1.8.11005-.5.23-.99.36005-1.49.11-.5.24-.99.38-1.49q.11994-.45007.24-.9.3-1.05.63-2.1c.19-.64.4-1.28.63-1.93.73-2.16,1.58-4.33,2.55-6.49.24-.55.49-1.09.75-1.63a76.3349,76.3349,0,0,1,4.44-8.04c.42-.67.85-1.34,1.3-2a86.62159,86.62159,0,0,1,11.11-13.34c.29-.29.59-.58.89-.86q2.235-2.16,4.71-4.26c-.39.53-.77,1.08-1.15,1.62l-.02.02c-.03.05-.07.1-.1.16-.45.63995-.89,1.3-1.31,1.96-.39.58-.76,1.17-1.12,1.76l-.19.31-.61,1.01a5.93212,5.93212,0,0,0-.31.55l-.54.91v.01l-1.24,2.27c-.15.27-.28.54-.41.8-.23.44-.45.87-.67,1.31l-.09.19q-.54,1.09506-1.05,2.22c-.06.12-.12006.15.07995.61.45,1.03-.36,1.75-1.35,2.29-.01,0-.01.03-.02.04-30.83,40.19-1.67,85.07-1.67,85.07a93.27187,93.27187,0,0,0,136.23,20.91A36.576,36.576,0,0,1,245.97,266.39Z"/><path class="cls-9" d="M209.873,334.86388a11.83028,11.83028,0,0,1-6.06975,3.04161c-7.65371,1.30123-15.17306-5.3864-16.79619-14.93608-1.39129-8.20438,2.01829-15.84794,7.86469-18.66245-3.92625,3.63979-5.96012,9.92714-4.8319,16.58505,1.62254,9.54087,9.13309,16.2291,16.78739,14.93667A11.42779,11.42779,0,0,0,209.873,334.86388Z"/><path class="cls-10" d="M209.873,334.86388a11.42779,11.42779,0,0,1-3.04576.9648c-7.6543,1.29243-15.16485-5.3958-16.78739-14.93667-1.12822-6.65791.90565-12.94526,4.8319-16.58505a11.24388,11.24388,0,0,1,3.06273-.97479c7.6537-1.30123,15.17306,5.3864,16.78744,14.93666C215.8501,324.92675,213.81687,331.2229,209.873,334.86388Z"/><ellipse class="cls-9" cx="200.2979" cy="311.84112" rx="5.59565" ry="1.82687" transform="translate(-64.50502 52.52751) rotate(-12.88712)"/><ellipse class="cls-9" cx="205.65908" cy="327.045" rx="5.59565" ry="1.82687" transform="translate(-67.76091 54.10619) rotate(-12.88712)"/><ellipse class="cls-9" cx="202.97849" cy="319.44306" rx="7.78432" ry="2.54143" transform="translate(-66.13297 53.31685) rotate(-12.88712)"/><path class="cls-8" d="M231.45172,287.69769a49.01839,49.01839,0,0,0,9.84223-6.17761,1.49994,1.49994,0,0,0-1.98633-2.24805c-.165.14551-16.9375,14.52344-55.56836,16.90137a1.49994,1.49994,0,0,0,.09082,2.99707c.03027,0,.06152-.001.09277-.00293a144.77422,144.77422,0,0,0,29.75434-4.769c1.83636,4.49689,8.14331,27.84418,8.95544,55.54407h3.00189c-.79858-27.89319-6.93927-51.21277-9.05-56.38642a98.55781,98.55781,0,0,0,12.1496-4.55591c2.07556,4.86005,8.78967,29.019,9.09125,60.94233h3.00006C240.52588,316.987,233.648,292.70459,231.45172,287.69769Z"/><path class="cls-8" d="M119.2207,326.43945a135.0628,135.0628,0,0,1-28.16992-2.95215,1.4996,1.4996,0,1,1,.68506-2.91992c.24121.05664,24.30762,5.582,47.21387,1.08106a1.4998,1.4998,0,1,1,.57812,2.94336A106.10789,106.10789,0,0,1,119.2207,326.43945Z"/><path class="cls-8" d="M119.88672,335.63184a155.15039,155.15039,0,0,1-31.543-3.2461,1.4996,1.4996,0,1,1,.68506-2.91992c.26807.06152,27.0918,6.22168,52.62793,1.2041a1.4998,1.4998,0,0,1,.57812,2.94336A116.844,116.844,0,0,1,119.88672,335.63184Z"/><path class="cls-8" d="M148.52,329.72V350h-8.56V331.3a36.0388,36.0388,0,0,0-15.26-29.47,26.66321,26.66321,0,0,0-2.72-1.69c-.01-.01-.02-.02-.03-.02a28.57148,28.57148,0,0,0-27.01.2.71093.71093,0,0,1-.94-.23,2.339,2.339,0,0,1-.41-1.33,2.38525,2.38525,0,0,1,1.43-2.19l1.49-.66a37.27991,37.27991,0,0,1,6.18-2.12,36.90757,36.90757,0,0,1,8.23-1.06c.26,0,.51,0,.76-.01a36.57266,36.57266,0,0,1,8.99,1.15,36.99321,36.99321,0,0,1,27.85,35.85Z"/><path class="cls-7" d="M153.02,349.94257V333.74a41.05573,41.05573,0,0,0-41.34-41.02,36.57266,36.57266,0,0,1,8.99,1.15,36.99321,36.99321,0,0,1,27.85,35.85v20.2226Z"/><path class="cls-11" d="M136.75126,294.43244a75.31519,75.31519,0,0,1,26.04855,32.53338,8.95114,8.95114,0,0,0,8.24539,5.57266h.00006c6.54917,0,9.996-7.61486,7.09246-14.64064-2.1859-5.28916-4.506-8.16655-7.997-12.66407a76.99317,76.99317,0,0,0-70.77792-29.10931,19.79767,19.79767,0,0,1-2.21008,2.62736,47.52681,47.52681,0,0,0-5.4321,6.44114A58.0456,58.0456,0,0,1,136.75126,294.43244Z"/><path class="cls-12" d="M101.78323,271.586a19.60782,19.60782,0,0,1-4.63049,7.16581,48.07956,48.07956,0,0,0-8.467,11.30841l-2.68837,1.11935a34.11916,34.11916,0,0,0-20.97125,31.476v27.287h-7.2232V315.56631A43.97849,43.97849,0,0,1,101.78323,271.586Z"/><path class="cls-7" d="M177.73952,324.1979a7.73476,7.73476,0,0,1-2.02426,4.14295,6.09249,6.09249,0,0,1-3.85812,1.813.1589.1589,0,0,1-.06545-.00043,6.07608,6.07608,0,0,0,3.07277-1.69791,7.73489,7.73489,0,0,0,2.02426-4.143,10.13591,10.13591,0,0,0-.43582-4.99381,10.37513,10.37513,0,0,0-2.72208-4.25169,7.79316,7.79316,0,0,0-5.61757-2.20822,5.1696,5.1696,0,0,1,.83478-.11246,7.82678,7.82678,0,0,1,5.63359,2.20606,10.46412,10.46412,0,0,1,2.72208,4.25168A10.2311,10.2311,0,0,1,177.73952,324.1979Z"/><path class="cls-5" d="M176.88872,324.31252a7.73489,7.73489,0,0,1-2.02426,4.143,6.07608,6.07608,0,0,1-3.07277,1.69791,7.44673,7.44673,0,0,1-4.335-1.18024,10.07639,10.07639,0,0,1-3.445-3.794,10.54675,10.54675,0,0,1-1.26164-5.05806,8.10056,8.10056,0,0,1,1.33771-4.56772,6.18959,6.18959,0,0,1,4.01743-2.69345l.008-.00108a7.79316,7.79316,0,0,1,5.61757,2.20822,10.37513,10.37513,0,0,1,2.72208,4.25169A10.13591,10.13591,0,0,1,176.88872,324.31252Z"/><path class="cls-13" d="M174.91111,321.87435a.29056.29056,0,0,0-.14617-.03585c-.153.00132-.39927.00431-.68914.00137-.27731.00015-.59366-.00492-.90083-.01413-.63086-.01932-1.22248-.064-1.36073-.07566a1.86507,1.86507,0,0,0-.2316-.80072,1.64629,1.64629,0,0,0-.54956-.58585q.27435-.70808.56722-1.40206.19591-.46456.39978-.92237l.004-.00893q.14387-.34938.29228-.69485c.08143-.15284.06019-.25384-.07971-.32252a5.07754,5.07754,0,0,0-.55883-.23518,4.76252,4.76252,0,0,0-3.30289.01738q-.19242-.503-.374-1.01735a.55664.55664,0,0,0-.23909-.30632.39933.39933,0,0,0-.51052.07093.55155.55155,0,0,0-.11128.18107.6384.6384,0,0,0-.04.22253.68039.68039,0,0,0,.0391.2283q.18913.5346.38985,1.05729a4.57871,4.57871,0,0,0-.944.83542q-.26438-.6703-.51017-1.36015a.61013.61013,0,0,0-.247-.325.40426.40426,0,0,0-.34981-.04795.3957.3957,0,0,0-.16439.11164.55245.55245,0,0,0-.10911.18686.71225.71225,0,0,0-.03635.2315.74657.74657,0,0,0,.04368.23905q.34848.97441.73336,1.91077a5.84942,5.84942,0,0,0-.63311,2.832,6.276,6.276,0,0,0,.77638,2.88967,4.38846,4.38846,0,0,0,6.93865,1.339q1.40354-1.241,2.81787-2.49153a.34312.34312,0,0,0,.105-.17126.27336.27336,0,0,0-.01559-.18623q-.459-.60936-.8923-1.25335A.29322.29322,0,0,0,174.91111,321.87435Zm-.11,1.46984-2.35754,1.996a3.57661,3.57661,0,0,1-5.57927-1.12753,4.99462,4.99462,0,0,1-.60123-1.93188,4.90578,4.90578,0,0,1,.20935-1.995q.22137.49222.45292.97293a.53972.53972,0,0,0,.27434.27579.40849.40849,0,0,0,.34872-.009.43171.43171,0,0,0,.15046-.12976.56054.56054,0,0,0,.09012-.18944.60326.60326,0,0,0,.01572-.2204.63477.63477,0,0,0-.05952-.21242q-.377-.7853-.72634-1.602a3.80211,3.80211,0,0,1,1.29954-1.18485,3.52131,3.52131,0,0,1,2.7726-.31745q-.52226,1.20539-.98931,2.45575a1.5302,1.5302,0,0,0-.77736.27816,1.71874,1.71874,0,0,0-.55592.67533,1.95625,1.95625,0,0,0-.18143.9057,1.97681,1.97681,0,0,0,.25.8956,1.67449,1.67449,0,0,0,.60917.63234,1.42321,1.42321,0,0,0,.79807.19819,1.51777,1.51777,0,0,0,.7803-.2709,1.81768,1.81768,0,0,0,.56537-.65l-.00781.03368q1.42936.06129,2.842-.01267Q174.61033,323.08028,174.80112,323.34419Zm-4.00029-1.83434a.82049.82049,0,0,1,.0992.4236.839.839,0,0,1-.12809.41976.7324.7324,0,0,1-.31744.2799.62616.62616,0,0,1-.40134.03823.679.679,0,0,1-.35-.22075.80612.80612,0,0,1-.17869-.40691.83869.83869,0,0,1,.05762-.44836.73348.73348,0,0,1,.27023-.33448.64123.64123,0,0,1,.52427-.09053A.69477.69477,0,0,1,170.80083,321.50985Z"/><path class="cls-14" d="M173.57684,319.60932a4.28709,4.28709,0,0,1,.499,2.23055c-.27731.00015-.59366-.00492-.90083-.01413a3.30616,3.30616,0,0,0-.404-1.68063,3.0057,3.0057,0,0,0-1.17072-1.18366q.19591-.46456.39978-.92237A3.92188,3.92188,0,0,1,173.57684,319.60932Z"/><path class="cls-8" d="M258.35973,311.883V350l-9.77769-.0574V300.76591a66.779,66.779,0,0,0-.6888-9.57676c-.04783-.3444-.10529-.68881-.15311-1.03327l1.16722,1.01412A27.42883,27.42883,0,0,1,258.35973,311.883Z"/><path class="cls-11" d="M88.68575,290.06023a52.2552,52.2552,0,0,0-6.19951,24.85552V349.9426H65.02613v-27.287a34.11916,34.11916,0,0,1,20.97125-31.476Z"/><path class="cls-15" d="M91.18,194.39c-.03.32-.05.64-.07.95,0-.12.01-.23.02-.35C91.14,194.79,91.16,194.59,91.18,194.39Z"/><path class="cls-5" d="M259.60158,132.94889v34.75h-19.59v-31.54a45.22346,45.22346,0,0,0-13.25-31.99l-15.12-15.12a16.10288,16.10288,0,0,1,0-22.8l2.35,2.35,32.36,32.36005A45.26556,45.26556,0,0,1,259.60158,132.94889Z"/><path class="cls-16" d="M263.89156,132.94889v34.75h-4.29v-34.75a45.26556,45.26556,0,0,0-13.25-31.99l-32.36-32.36-2.35-2.35h4.29l34.71,34.71A45.22346,45.22346,0,0,1,263.89156,132.94889Z"/><path class="cls-17" d="M274.996,189.64785a82.74081,82.74081,0,0,1-6.41886,32.06772q-.97868,2.36736-2.11607,4.65539c-74.63661,22.67756-138.59569-31.39761-138.59569-31.39761V172.24294c3.183-9.1433,28.94644-59.70929,86.40739-62.6983h.0176a83.10944,83.10944,0,0,1,38.11628,23.11842l.00877.00882A82.87471,82.87471,0,0,1,274.996,189.64785Z"/><path class="cls-18" d="M272.8446,208.5076a80.75678,80.75678,0,0,1-4.26749,13.208q-.97868,2.36736-2.11607,4.65539c-74.63661,22.67756-138.59569-31.39761-138.59569-31.39761v-9.928S188.91481,220.74566,272.8446,208.5076Z"/><path class="cls-5" d="M269.81162,229.61479a87.04237,87.04237,0,0,1-7.051,11.46147,86.14381,86.14381,0,0,1-5.96033,7.34758,87.7492,87.7492,0,0,1-38.5653,24.779c-.00958,0-.01916.00958-.02873.00958-.067.0191-.14348.04783-.21045.067-.44011.13389-.88974.26785-1.32986.4018-.76536.22961-1.5403.44963-2.31524.65057-.49751.13395-.995.26785-1.502.38271-.74627.19129-1.50206.36349-2.25784.52618s-1.51163.32525-2.277.46878-1.53078.27743-2.29614.40181c-.77494.12437-1.5403.23918-2.31524.354h-.00958c-.77494.10522-1.55945.20093-2.33439.27748-.708.0765-1.41593.14348-2.13347.21045-.0957.00958-.19135.00958-.28706.01916q-2.03778.1722-4.1043.2296c-.4018.01915-.80361.02867-1.20547.03825-.60274.00957-1.20548.01915-1.80821.01915a87.49388,87.49388,0,0,1-74.0691-40.83272c-.19135-.287-.37313-.56449-.54533-.85149-.354-.56443-.68881-1.12892-1.0237-1.70293-.56443-.95672-1.10019-1.93259-1.62637-2.918-.03831-.07649-.08613-.15305-.12438-.2296-.66014-1.22457-1.282-2.48744-1.88477-3.75032-.15305-.32531-.30615-.66014-.4592-.98545-.27743-.60273-.54534-1.215-.81319-1.8273a87.14928,87.14928,0,0,1-5.02277-15.6328c-.36356-1.67426-.68887-3.37718-.9472-5.08969q-.1291-.76064-.2296-1.52121a87.96426,87.96426,0,0,1-.861-12.2747q0-1.85122.08607-3.67377a84.72476,84.72476,0,0,1,.77494-8.60088,79.35323,79.35323,0,0,1,1.5403-8.14168,85.48837,85.48837,0,0,1,4.20958-13.021c.38271-.93757.7941-1.86556,1.21505-2.784a.58463.58463,0,0,1,.04783-.1148c.3444-.74627.68881-1.4829,1.05236-2.21959l.08613-.19136c.22-.44.44012-.87058.66972-1.30112v-.00957c.13389-.26785.27743-.53576.41138-.7941l1.24372-2.26741v-.00952l.53576-.91847v-.00958c.10523-.18178.21051-.354.31574-.53576l.61231-1.01412.18172-.30615c.36356-.59316.73669-1.17675,1.1194-1.76033.421-.66014.861-1.32028,1.3107-1.96132V139.999a1.45794,1.45794,0,0,0,.10523-.15305l.01915-.01915c.47836-.69839.97581-1.38719,1.4829-2.07606l.01915-.02867c.40181-.54534.80361-1.0811,1.215-1.60734l.36356-.45921c.44969-.58358.91847-1.16716,1.38726-1.73165l.54533-.66014c.34441-.41138.69839-.82277,1.05237-1.22457l.58364-.66014c.421-.47836.85144-.9472,1.29155-1.416l.26785-.29658c.53582-.574,1.08109-1.12892,1.636-1.68383l6.03688-5.549c.44969-.38265.9089-.76536,1.37768-1.12892a2.02258,2.02258,0,0,1,.22-.18178q.83236-.67444,1.69341-1.32027.55969-.41615,1.11934-.83234c.43054-.31573.86107-.63141,1.30118-.93757.82277-.58358,1.66468-1.14807,2.5066-1.703.43053-.287.861-.56443,1.30112-.83234.32531-.21045.65056-.41138.98539-.61232q2.13834-1.33461,4.36269-2.50659c.4209-.22961.84186-.44963,1.26282-.66966q3.20028-1.65038,6.55355-3.03284.60272-.2583,1.20547-.48793c2.5066-1.00454,5.08017-1.88471,7.70157-2.65007q.50225-.14357,1.00455-.287c.85149-.23918,1.703-.45926,2.564-.66971a.9714.9714,0,0,1,.23918-.0574q.73191-.18657,1.46381-.34441c.421-.0957.84192-.19135,1.27239-.27748.30616-.067.60274-.134.9089-.19136h.00957a88.22124,88.22124,0,0,1,43.54983,2.38228,89.30864,89.30864,0,0,0-16.62777.95672,77.98572,77.98572,0,0,0-27.18991,9.548c-36.585,21.20084-45.14753,44.076-46.57308,48.77346-.17221.56449-.23918.87065-.23918.87065a15.35535,15.35535,0,0,1,.25833,2.83185V201.2385s40.28738,33.179,81.56021,37.61816c26.80726,2.87973,44.25779-1.87513,53.21265-5.5681V233.279A39.63125,39.63125,0,0,0,269.81162,229.61479Z"/><path class="cls-19" d="M195.81,245.42c-1.46,3.23-3.46,7.49-5.29,10.96a16.09529,16.09529,0,0,1-9.59,7.98,1.0333,1.0333,0,0,0-.14.04,9.00006,9.00006,0,0,0,3.91-3.51,122.32917,122.32917,0,0,0,6.5-12.22,4.38961,4.38961,0,0,0-2.73-6.01c-31.23-9.73-57.77-30.7-60.6-32.99a40.583,40.583,0,0,1-12.02-15.88v-.01a.03679.03679,0,0,1-.01-.03c-.18006-.39-.35-.79-.51-1.19-4.66-11.56,3.38,7.83,12.54,14.63,0,0,22.02,17.92,43.87,25.47,10.83,3.74,17.37,5.69,21.22,6.72A4.37529,4.37529,0,0,1,195.81,245.42Z"/><path class="cls-8" d="M162.03,261.03C152.6,257.8,158.89,244,150,237.95c-14.7-10-22.13-20.74-22.13-20.74a135.81692,135.81692,0,0,1-7.7-12.55q.34506.52506.69,1.02c.88,1.26,1.76,2.4,2.59,3.41.13.16.26.32.39.47.25.3.5.59.75.86.6.69,1.15,1.28,1.62,1.77.06.06.12.13.19.19.96.99,1.9,2,2.84,3.03.11.11.21.23.32.35,1.32,1.47,2.76,2.92,4.25,4.34.49.47.99.93,1.5,1.39a1.53645,1.53645,0,0,0,.13.12c.4.37.81.73,1.22,1.09,3.92005,3.45,8.02,6.58,11.51,9.09.23.16.46.33.68.48.44.32.88.63,1.3.92.39.27.75995.53,1.13.78.43.29.84.58,1.23.84a10.80306,10.80306,0,0,1,4.73,8.37c.25,4.73.69,8.79,1.1,11.76A9.00215,9.00215,0,0,0,162.03,261.03Z"/><path class="cls-16" d="M191.2,248.67a122.32917,122.32917,0,0,1-6.5,12.22,9.00006,9.00006,0,0,1-3.91,3.51.10027.10027,0,0,1-.03.01,9.12359,9.12359,0,0,1-5.52.67,85.95116,85.95116,0,0,1-10.77-2.81,8.90879,8.90879,0,0,1-2.43994-1.24,9.00215,9.00215,0,0,1-3.69-6.09c-.41-2.97-.85-7.03-1.1-11.76a10.80306,10.80306,0,0,0-4.73-8.37c-.39-.26-.8-.55-1.23-.84-.36005-.25-.74-.51-1.13-.78-.42-.29-.86-.6-1.3-.92-.22-.16-.45-.32-.68-.48-3.49-2.51-7.59-5.64-11.51-9.09-.41-.36-.81994-.72-1.22-1.09a1.53645,1.53645,0,0,1-.13-.12c-.51-.46-1.01-.92-1.5-1.39-1.49-1.42-2.93-2.87-4.25-4.34-.11-.12-.21-.24-.32-.35-.94-1.03-1.88-2.04-2.84-3.03-.07-.06-.13-.13-.19-.19-.47-.49-1.02-1.08-1.62-1.77-.24-.27-.49-.56-.75-.86-.13-.16-.26-.31-.39-.47-.83-1.01-1.71-2.15-2.59-3.41q-.345-.495-.69-1.02c-2.03-3.82-3.8-7.81-4.32-10.87a40.583,40.583,0,0,0,12.02,15.88c2.83,2.29,29.37,23.26,60.6,32.99A4.38961,4.38961,0,0,1,191.2,248.67Z"/><path class="cls-17" d="M218.20625,273.21244c-.067.0191-.14348.04783-.21045.067-.44011.13389-.88974.26785-1.32986.4018-.76536.22961-1.5403.44963-2.31524.65057-.49751.13395-.995.26785-1.502.38271-.74627.19129-1.50206.36349-2.25784.52618s-1.51163.32525-2.277.46878-1.53078.27743-2.29614.40181c-.76536.134-1.5403.24875-2.31524.354h-.00958c-.77494.10522-1.55945.20093-2.33439.27748-.708.0765-1.41593.14348-2.13347.21045-.0957.00958-.19135.00958-.28706.01916q-2.03778.1722-4.1043.2296c-.4018.01915-.80361.02867-1.20547.03825-.60274.00957-1.20548.01915-1.80821.01915a87.49388,87.49388,0,0,1-74.0691-40.83272c-.19135-.287-.37313-.56449-.54533-.85149-.354-.56443-.68881-1.12892-1.0237-1.70293-.56443-.95672-1.10019-1.93259-1.62637-2.918-.03831-.07649-.08613-.15305-.12438-.2296-.66014-1.22457-1.282-2.48744-1.88477-3.75032-.15305-.32531-.30615-.66014-.4592-.98545-.27743-.60273-.54534-1.215-.81319-1.8273a87.14928,87.14928,0,0,1-5.02277-15.6328c-.36356-1.67426-.68887-3.37718-.9472-5.08969q-.1291-.76064-.2296-1.52121a87.96426,87.96426,0,0,1-.861-12.2747q0-1.85122.08607-3.67377a84.72476,84.72476,0,0,1,.77494-8.60088,79.35323,79.35323,0,0,1,1.5403-8.14168,85.48837,85.48837,0,0,1,4.20958-13.021c.38271-.93757.7941-1.86556,1.21505-2.784a.58463.58463,0,0,1,.04783-.1148c.3444-.74627.68881-1.4829,1.05236-2.21959l.08613-.19136c.22-.44.44012-.87058.66972-1.30112.13389-.26791.26785-.53576.41138-.80367l1.24372-2.26741v-.00952l.53576-.91847q.14348-.27267.31574-.54534l.61231-1.01412.18172-.30615c.36356-.59316.73669-1.17675,1.1194-1.76033.421-.66014.861-1.32028,1.3107-1.96132a1.55753,1.55753,0,0,0,.10523-.16263l.01915-.01915c.47836-.69839.97581-1.38719,1.4829-2.07606l.01915-.02867c.40181-.54534.80361-1.0811,1.215-1.60734l.36356-.45921c.44969-.58358.91847-1.16716,1.38726-1.73165l.54533-.66014c.34441-.41138.69839-.82277,1.05237-1.22457l.58364-.66014c.421-.47836.85144-.9472,1.29155-1.416l.26785-.29658c.53582-.574,1.08109-1.12892,1.636-1.68383l6.03688-5.549c.44969-.38265.9089-.76536,1.37768-1.12892a2.02258,2.02258,0,0,1,.22-.18178q.83236-.67444,1.69341-1.32027.55969-.41615,1.11934-.83234c.43054-.31573.86107-.63141,1.30118-.93757.82277-.58358,1.66468-1.14807,2.5066-1.703.43053-.287.861-.56443,1.30112-.83234.32531-.21045.65056-.41138.98539-.61232q2.13834-1.33461,4.36269-2.50659c.4209-.22961.84186-.44963,1.26282-.66966q3.20028-1.65038,6.55355-3.03284.60272-.2583,1.20547-.48793c2.5066-1.00454,5.08017-1.88471,7.70157-2.65007q.50225-.14357,1.00455-.287c.85149-.23918,1.703-.45926,2.564-.66971a.9714.9714,0,0,1,.23918-.0574q.73191-.18657,1.46381-.34441c.421-.0957.84192-.19135,1.27239-.27748.30616-.067.60274-.134.9089-.19136a87.79314,87.79314,0,0,0-52.54294,45.47284c-.29658.58358-.574,1.17675-.84192,1.76991h-.00958c-.31573.69844-.6314,1.4064-.928,2.11436-.25834.58359-.49752,1.17675-.72712,1.76991-.48794,1.20547-.94714,2.42052-1.3681,3.65467q-.96156,2.741-1.73166,5.55853c-.52624,1.90386-.98544,3.81729-1.3681,5.769q-.71754,3.45849-1.129,7.0127a84.69414,84.69414,0,0,0-.60267,9.1367c-.01916.44-.01916.88017-.01916,1.32028a87.6937,87.6937,0,0,0,.62183,10.45692,85.24842,85.24842,0,0,0,2.65013,13.33665q.1292.48788.287.97581c.62189,2.16219,1.33942,4.27656,2.143,6.3622.66013,1.76991,1.38725,3.50156,2.17176,5.21413h.00958l.51661,1.11934q.91847,1.95168,1.94216,3.846l.25834.48794c.75578,1.40635,1.55939,2.784,2.39179,4.133a87.69661,87.69661,0,0,0,91.80663,39.99086Z"/><path class="cls-19" d="M252.40662,132.66306a83.10944,83.10944,0,0,0-38.11628-23.11842h-.0176c-57.46095,2.989-83.22444,53.555-86.40739,62.6983v-3.16535a15.81494,15.81494,0,0,0-.25573-2.83908s5.79283-25.86933,46.80991-49.6402a77.78717,77.78717,0,0,1,27.18307-9.54886,89.69142,89.69142,0,0,1,16.629-.96109h.00883c1.1109.34388,2.18662.70536,3.23585,1.09331A61.72132,61.72132,0,0,1,252.40662,132.66306Z"/><path class="cls-19" d="M269.81152,229.61564a39.49263,39.49263,0,0,1-7.17711,3.66794v.00882c-8.94936,3.68554-26.40717,8.44673-53.21106,5.56358-41.27276-4.435-81.558-37.6137-81.558-37.6137v-6.26893S191.82443,249.04852,266.461,226.371q1.13739-2.288,2.11607-4.65539C271.30161,227.27915,269.81152,229.61564,269.81152,229.61564Z"/><path class="cls-1" d="M180.79427,264.39906c-.00882,0-.02645.00882-.03527.00882"/><path class="cls-20" d="M174.63113,259.51439a8.13138,8.13138,0,0,0,2.97135-.5643,8.81794,8.81794,0,0,1-4.68187,1.33138,8.91406,8.91406,0,1,1,0-17.82811,8.81836,8.81836,0,0,1,4.68187,1.33134,8.14573,8.14573,0,1,0-2.97135,15.72969Z"/><path class="cls-5" d="M181.83467,251.36742a8.90737,8.90737,0,0,1-4.23219,7.58267,8.147,8.147,0,1,1,0-15.16539A8.9075,8.9075,0,0,1,181.83467,251.36742Z"/><path class="cls-5" d="M250.6087,165.28335a6.61517,6.61517,0,0,1-6.283-4.55492c-.06285-.18728-7.33006-21.167-29.04728-30.63161a6.61274,6.61274,0,0,1,5.28336-12.12434c27.2985,11.897,35.9761,37.55051,36.33171,38.63672a6.61758,6.61758,0,0,1-6.28476,8.67415Z"/><circle class="cls-5" cx="259.46028" cy="177.7893" r="7.05366"/><path class="cls-5" d="M120.34,128.06v34.75H100.75V131.27A45.22346,45.22346,0,0,0,87.5,99.28L72.38,84.16a16.10287,16.10287,0,0,1,0-22.8l2.35,2.35,32.36,32.36A45.26556,45.26556,0,0,1,120.34,128.06Z"/><path class="cls-16" d="M124.63,128.06v34.75h-4.29V128.06a45.26556,45.26556,0,0,0-13.25-31.99L74.73,63.71l-2.35-2.35h4.29l34.71,34.71A45.22341,45.22341,0,0,1,124.63,128.06Z"/><path class="cls-19" d="M127.86337,201.75979a23.36355,23.36355,0,0,1-3.93274,12.56907l.00965.00965a12.13527,12.13527,0,0,1-.8,1.0892c-.11567.17349-.241.33734-.36629.50124l-.20237.26986c-.48195.58795-1.00248,1.15667-1.57115,1.72533l-.00964.0193a23.78893,23.78893,0,0,1-5.52318,4.10617,23.11534,23.11534,0,0,1-4.91568,1.94707,23.46881,23.46881,0,0,1-8.2027.72292,22.68983,22.68983,0,0,0,4.05793-.72292,23.11871,23.11871,0,0,0,4.91581-1.94707,23.7914,23.7914,0,0,0,5.52317-4.10617l.00953-.0193c.56866-.56866,1.0892-1.13738,1.57114-1.72533l.20238-.26986c.12543-.1639.25062-.32775.3664-.50124a12.13332,12.13332,0,0,0,.8-1.0892l-.00964-.00965a23.3635,23.3635,0,0,0,3.93262-12.56907V167.455a10.26851,10.26851,0,0,0-3.01686-7.287l-17.273-17.27285a10.30285,10.30285,0,0,0-7.27728-3.017h4.135a10.30851,10.30851,0,0,1,7.28705,3.017L124.8464,160.168a10.30858,10.30858,0,0,1,3.017,7.287Z"/><path class="cls-19" d="M119.72821,201.75979a23.36456,23.36456,0,0,1-3.93273,12.56907l.00965.00965a12.11359,12.11359,0,0,1-.80011,1.0892c-.11554.17349-.241.33734-.36616.50124l-.20238.26986c-.48194.58795-1.00248,1.15667-1.57126,1.72533l-.00965.0193a23.7857,23.7857,0,0,1-5.523,4.10617,23.11871,23.11871,0,0,1-4.91581,1.94707c-.694.18314-1.3977.347-2.09167.46265a23.53318,23.53318,0,0,1-12.598-6.53519L49.81737,180.01449a22.95317,22.95317,0,0,1-2.72782-3.25794,23.59454,23.59454,0,0,1,2.70858-30.00583c.57831-.56872,1.12773-1.041,1.65786-1.50366l.07712-.06748.27951-.21208c.17349-.12526.33734-.25057.50124-.36623a10.51879,10.51879,0,0,1,1.147-.81934,23.33842,23.33842,0,0,1,12.95465-3.90373H92.15129a10.34227,10.34227,0,0,1,7.287,3.017L116.71112,160.168a10.30866,10.30866,0,0,1,3.01709,7.287Z"/><path class="cls-8" d="M123.71861,201.75979a23.3635,23.3635,0,0,1-3.93262,12.56907l.00964.00965a12.13332,12.13332,0,0,1-.8,1.0892c-.11578.17349-.241.33734-.3664.50124l-.20238.26986c-.48194.58795-1.00248,1.15667-1.57114,1.72533l-.00953.0193a23.7914,23.7914,0,0,1-5.52317,4.10617,23.11871,23.11871,0,0,1-4.91581,1.94707,22.68983,22.68983,0,0,1-4.05793.72292,20.401,20.401,0,0,1-2.02425-.26027c.694-.11566,1.3977-.27951,2.09167-.46265a23.11871,23.11871,0,0,0,4.91581-1.94707,23.7857,23.7857,0,0,0,5.523-4.10617l.00965-.0193c.56878-.56866,1.08932-1.13738,1.57126-1.72533l.20238-.26986c.12519-.1639.25062-.32775.36616-.50124a12.11359,12.11359,0,0,0,.80011-1.0892l-.00965-.00965a23.36456,23.36456,0,0,0,3.93273-12.56907V167.455a10.30866,10.30866,0,0,0-3.01709-7.287L99.43834,142.89517a10.34227,10.34227,0,0,0-7.287-3.017h4.00016a10.30285,10.30285,0,0,1,7.27728,3.017l17.273,17.27285a10.26851,10.26851,0,0,1,3.01686,7.287Z"/><path class="cls-5" d="M119.72821,201.75979a23.36456,23.36456,0,0,1-3.93273,12.56907l.00965.00965a12.11359,12.11359,0,0,1-.80011,1.0892c-.11554.17349-.241.33734-.36616.50124l-.20238.26986c-.48194.58795-1.00248,1.15667-1.57126,1.72533l-.00965.0193a23.7857,23.7857,0,0,1-5.523,4.10617,23.11871,23.11871,0,0,1-4.91581,1.94707c-.694.18314-1.3977.347-2.09167.46265a20.401,20.401,0,0,0,2.02425.26027,22.8221,22.8221,0,0,1-4.05792.00959h-.0193a23.55233,23.55233,0,0,1-14.68964-6.805L45.67266,180.01449a22.95317,22.95317,0,0,1-2.72782-3.25794,23.59474,23.59474,0,0,1,2.70852-30.00583c.57837-.56872,1.1278-1.041,1.65792-1.50366l.07713-.06748.27951-.21208c.17349-.12526.33733-.25057.50124-.36623a10.51956,10.51956,0,0,1,1.147-.81934,23.3384,23.3384,0,0,1,12.9546-3.90373H92.15129a10.34227,10.34227,0,0,1,7.287,3.017L116.71112,160.168a10.30866,10.30866,0,0,1,3.01709,7.287Z"/><path class="cls-8" d="M108.18911,183.29368,93.88876,168.99333l17.158-17.158-2.421-2.421-17.15789,17.158L77.36115,152.46571A19.12733,19.12733,0,0,0,53.284,150.04642a9.65311,9.65311,0,0,0-.9312.6602c-.13493.09452-.26846.19535-.40448.29922l-.23054.17679-.06316.05484c-.432.37324-.87885.75915-1.34235,1.22266a19.13874,19.13874,0,0,0-2.20816,24.39575,19.32682,19.32682,0,0,0,2.2195,2.64734l30.82251,30.82244a19.17564,19.17564,0,0,0,18.55723,4.93419,18.90615,18.90615,0,0,0,4.00074-1.58145,19.13315,19.13315,0,0,0,4.485-3.34139l.01141-.01135a18.79376,18.79376,0,0,0,1.27428-1.40387l.167-.218c.10448-.13657.20555-.271.30044-.40673.22932-.2937.44992-.58406.64794-.88522l-.01044-.01158A19.1235,19.1235,0,0,0,108.18911,183.29368Z"/><path class="cls-21" d="M107.623,206.53044c-.11654.17488-.25058.34386-.39045.51874a15.35869,15.35869,0,0,1-1.09573,1.21227l-.01167.01166a16.458,16.458,0,0,1-3.87,2.87921,16.01121,16.01121,0,0,1-3.43874,1.36381,16.49159,16.49159,0,0,1-16.01631-4.25468L64.69144,190.15278l3.293-3.28136L86.0873,204.97425a16.50868,16.50868,0,0,0,16.01628,4.25472,16.03293,16.03293,0,0,0,5.51942-2.69853Z"/><path class="cls-22" d="M54.89981,152.46669a9.09576,9.09576,0,0,0-.781.55955A17.43277,17.43277,0,0,0,52.79,155.11279a16.51055,16.51055,0,0,0,.97335,17.15282A16.85958,16.85958,0,0,0,55.675,174.562l12.30364,12.30364,20.03781-20.0262L75.707,154.52994A16.47447,16.47447,0,0,0,54.89981,152.46669Z"/><path class="cls-23" d="M54.11881,153.02625A17.44082,17.44082,0,0,0,52.79,155.11281a16.51055,16.51055,0,0,0,.97332,17.15281A16.85982,16.85982,0,0,0,55.675,174.562l12.30362,12.30362-3.28136,3.293L52.38781,177.84915a16.856,16.856,0,0,1-1.91751-2.29053,16.505,16.505,0,0,1,1.90588-21.03448l.01167-.01166c.39049-.39049.79848-.74022,1.21227-1.09574C53.775,153.27683,53.944,153.14283,54.11881,153.02625Z"/><path class="cls-22" d="M54.83572,158.04441a.04376.04376,0,0,0-.00583.02917,11.63583,11.63583,0,0,0-.36136,2.87924,12.04222,12.04222,0,0,0,2.12153,6.80747,12.47023,12.47023,0,0,0,1.393,1.67273l8.014,8.014a1.31881,1.31881,0,0,1-1.86508,1.86508l-8.014-8.014a13.32967,13.32967,0,0,1-1.393-1.67273,12.10055,12.10055,0,0,1-2.12149-6.8075,11.90943,11.90943,0,0,1,1.42792-5.6593c.0408-.08748.18651-.32639.18651-.32639a.70337.70337,0,0,1,.69941-.37306C55.34862,156.5524,55.0339,157.07693,54.83572,158.04441Z"/><path class="cls-24" d="M88.01648,166.8394l18.10867,18.10867a16.47216,16.47216,0,0,1,2.05739,20.80136c-.11654.08161.01167.01167.01167.01167-.18068.26228-.373.5129-.57121.76934a16.03293,16.03293,0,0,1-5.51942,2.69853,16.50868,16.50868,0,0,1-16.01628-4.25472L67.98447,186.87142Z"/><path class="cls-24" d="M54.83572,158.04441a.04376.04376,0,0,0-.00583.02917,11.63583,11.63583,0,0,0-.36136,2.87924,12.04222,12.04222,0,0,0,2.12153,6.80747,12.47023,12.47023,0,0,0,1.393,1.67273l8.014,8.014a1.31881,1.31881,0,0,1-1.86508,1.86508l-8.014-8.014a13.32967,13.32967,0,0,1-1.393-1.67273,12.10055,12.10055,0,0,1-2.12149-6.8075,11.90943,11.90943,0,0,1,1.42792-5.6593c.0408-.08748.18651-.32639.18651-.32639a.70337.70337,0,0,1,.69941-.37306C55.34862,156.5524,55.0339,157.07693,54.83572,158.04441Z"/><rect class="cls-25" x="71.98193" y="183.20073" width="12.01075" height="2.94766" rx="1.47383" transform="translate(-107.74268 109.23528) rotate(-45)"/><rect class="cls-26" x="76.34644" y="187.56524" width="12.01075" height="2.94766" rx="1.47383" transform="translate(-109.55052 113.59978) rotate(-45)"/><rect class="cls-5" x="80.71095" y="191.92974" width="12.01075" height="2.94766" rx="1.47383" transform="translate(-111.35835 117.96429) rotate(-45)"/><circle class="cls-22" cx="92.15129" cy="150.48043" r="4.60906"/><circle class="cls-24" cx="90.78687" cy="149.11601" r="1.85746"/><path class="cls-11" d="M175,0A175,175,0,1,0,350,175,174.9998,174.9998,0,0,0,175,0Zm0,345A170,170,0,1,1,345,175,169.996,169.996,0,0,1,175,345Z"/></g></svg>